<svg width="512" height="512" viewBox="0 0 512 512" fill="none" xmlns="http://www.w3.org/2000/svg">
<rect width="512" height="512" rx="20" fill="#B9E6EC"/>
<path d="M276.088 110C294.396 110 310.803 112.763 325.311 118.29C340.165 123.472 354.154 131.762 367.28 143.161L335.156 186.684C326.175 179.776 317.367 174.767 308.731 171.658C300.441 168.549 291.287 166.995 281.27 166.995C242.237 166.995 222.72 197.047 222.72 257.151C222.72 287.548 227.729 309.31 237.746 322.436C247.764 335.562 262.099 342.125 280.752 342.125C290.423 342.125 299.232 340.743 307.177 337.98C315.121 334.871 324.448 329.862 335.156 322.954L367.28 369.068C341.028 390.484 310.976 401.192 277.125 401.192C250.182 401.192 226.693 395.32 206.658 383.576C186.969 371.831 171.77 355.251 161.062 333.835C150.354 312.073 145 286.684 145 257.669C145 228.653 150.354 203.092 161.062 180.985C171.77 158.532 186.969 141.088 206.658 128.653C226.693 116.218 249.836 110 276.088 110Z" fill="#ED6DAF"/>
</svg>
