<svg width="57" height="22" viewBox="0 0 57 22" fill="none" xmlns="http://www.w3.org/2000/svg">
<path d="M14.436 2.89256C15.4443 2.89256 16.2525 3.23665 16.8607 3.92483C17.4848 4.61301 17.7969 5.54926 17.7969 6.73357V16H14.388V7.30972C14.388 6.06139 13.9719 5.43723 13.1397 5.43723C12.6916 5.43723 12.2995 5.58127 11.9634 5.86934C11.6273 6.15742 11.2832 6.60554 10.9311 7.2137V16H7.52223V7.30972C7.52223 6.06139 7.10613 5.43723 6.27391 5.43723C5.82579 5.43723 5.43369 5.58927 5.0976 5.89335C4.76151 6.18142 4.42542 6.62154 4.08933 7.2137V16H0.680441V3.27666H3.63321L3.89728 4.86108C4.37741 4.22091 4.91355 3.73278 5.50571 3.39669C6.11387 3.06061 6.81005 2.89256 7.59425 2.89256C8.31444 2.89256 8.93861 3.07661 9.46674 3.44471C9.99488 3.7968 10.379 4.30093 10.619 4.9571C11.1472 4.26892 11.7153 3.75679 12.3235 3.4207C12.9477 3.06861 13.6518 2.89256 14.436 2.89256ZM27.9227 16.024C27.4106 17.6404 26.6024 18.8888 25.4981 19.769C24.4098 20.6492 22.9294 21.1534 21.0569 21.2814L20.6968 18.8327C21.9131 18.6727 22.8014 18.3846 23.3615 17.9685C23.9377 17.5524 24.4098 16.8962 24.7779 16H23.6016L19.6405 3.27666H23.2655L25.8102 13.7914L28.4989 3.27666H32.0278L27.9227 16.024ZM41.2394 2.89256C42.3597 2.89256 43.232 3.23665 43.8561 3.92483C44.4803 4.59701 44.7924 5.53326 44.7924 6.73357V16H41.3835V7.30972C41.3835 6.62154 41.2635 6.14141 41.0234 5.86934C40.7993 5.58127 40.4552 5.43723 39.9911 5.43723C39.511 5.43723 39.0709 5.58927 38.6708 5.89335C38.2867 6.18142 37.9106 6.62154 37.5425 7.2137V16H34.1336V3.27666H37.0864L37.3504 4.88509C37.8786 4.22891 38.4547 3.73278 39.0789 3.39669C39.719 3.06061 40.4392 2.89256 41.2394 2.89256ZM56.1258 15.3998C55.6617 15.7199 55.1335 15.96 54.5414 16.12C53.9652 16.2961 53.3891 16.3841 52.8129 16.3841C51.5006 16.3681 50.5083 15.992 49.8361 15.2558C49.164 14.5196 48.8279 13.4393 48.8279 12.015V5.67729H46.9314V3.27666H48.8279V0.491933L52.2368 0.0838258V3.27666H55.1655L54.8294 5.67729H52.2368V11.9429C52.2368 12.5511 52.3408 12.9912 52.5489 13.2633C52.7569 13.5354 53.077 13.6714 53.5091 13.6714C53.9412 13.6714 54.4213 13.5274 54.9495 13.2393L56.1258 15.3998Z" fill="#263961"/>
</svg>
