<svg width="28" height="28" viewBox="0 0 28 28" fill="none" xmlns="http://www.w3.org/2000/svg">
<path d="M21.2992 4.30712L13.501 12.1062L5.70276 4.30712C5.5152 4.13547 5.26865 4.04281 5.01448 4.04844C4.76031 4.05407 4.5181 4.15756 4.33833 4.33736C4.15856 4.51715 4.05508 4.75937 4.04945 5.01358C4.04382 5.26778 4.13647 5.51435 4.3081 5.70193L12.1024 13.501L4.30612 21.2981C4.21087 21.3889 4.13473 21.4978 4.08218 21.6184C4.02962 21.739 4.00171 21.8689 4.00008 22.0005C3.99845 22.1321 4.02313 22.2627 4.07269 22.3846C4.12224 22.5065 4.19566 22.6172 4.28863 22.7103C4.3816 22.8035 4.49225 22.877 4.61406 22.9268C4.73588 22.9765 4.8664 23.0014 4.99797 22.9999C5.12953 22.9985 5.25948 22.9708 5.38018 22.9184C5.50087 22.866 5.60988 22.79 5.70078 22.6949L13.501 14.8978L21.2992 22.6968C21.4868 22.8685 21.7333 22.9612 21.9875 22.9555C22.2417 22.9499 22.4839 22.8464 22.6636 22.6666C22.8434 22.4868 22.9469 22.2446 22.9525 21.9904C22.9582 21.7362 22.8655 21.4896 22.6939 21.302L14.8956 13.503L22.6939 5.70193C22.7891 5.61115 22.8653 5.50224 22.9178 5.38161C22.9704 5.26097 22.9983 5.13105 22.9999 4.99947C23.0016 4.8679 22.9769 4.73732 22.9273 4.61542C22.8778 4.49353 22.8043 4.38277 22.7114 4.28965C22.6184 4.19654 22.5078 4.12296 22.3859 4.07322C22.2641 4.02349 22.1336 3.99862 22.002 4.00006C21.8705 4.0015 21.7405 4.02924 21.6198 4.08163C21.4991 4.13402 21.3901 4.21001 21.2992 4.30514V4.30712Z" fill="#263961"/>
</svg>
