<svg width="91" height="65" viewBox="0 0 91 65" fill="none" xmlns="http://www.w3.org/2000/svg">
<path d="M7.41271 58.9182V45.6758H5.25V58.9182H7.41271Z" fill="#FCFCFC"/>
<path d="M8.73633 54.504C8.73633 57.2094 10.5445 59.1316 13.2922 59.1316C16.0399 59.1316 17.8481 57.2094 17.8481 54.504C17.8481 51.7985 16.0399 49.8762 13.2922 49.8762C10.5445 49.8762 8.73633 51.7985 8.73633 54.504ZM10.9167 54.504C10.9167 52.9198 11.8563 51.8163 13.2922 51.8163C14.7281 51.8163 15.6676 52.9198 15.6676 54.504C15.6676 56.0702 14.7281 57.1915 13.2922 57.1915C11.8563 57.1915 10.9167 56.0702 10.9167 54.504Z" fill="#FCFCFC"/>
<path d="M18.5762 54.3258C18.5762 56.8889 20.2248 58.74 22.6888 58.74C23.9652 58.74 25.0643 58.2238 25.6138 57.3695V58.8646C25.6138 60.3062 24.7097 61.2675 23.2029 61.2675C21.8557 61.2675 20.9339 60.6088 20.8098 59.4519H18.6294C18.913 61.748 20.6679 63.2431 23.0788 63.2431C25.9152 63.2431 27.7233 61.3742 27.7233 58.473V50.1253H25.8088L25.6848 51.3178C25.1529 50.3923 24.0538 49.8405 22.7597 49.8405C20.2602 49.8405 18.5762 51.745 18.5762 54.3258ZM20.7743 54.2724C20.7743 52.8129 21.6962 51.745 23.0612 51.745C24.5502 51.745 25.5429 52.8307 25.5429 54.2724C25.5429 55.7319 24.5502 56.8533 23.0612 56.8533C21.7138 56.8533 20.7743 55.7497 20.7743 54.2724Z" fill="#FCFCFC"/>
<path d="M28.793 54.504C28.793 57.2094 30.6012 59.1316 33.3488 59.1316C36.0965 59.1316 37.9047 57.2094 37.9047 54.504C37.9047 51.7985 36.0965 49.8762 33.3488 49.8762C30.6012 49.8762 28.793 51.7985 28.793 54.504ZM30.9734 54.504C30.9734 52.9198 31.913 51.8163 33.3488 51.8163C34.7847 51.8163 35.7243 52.9198 35.7243 54.504C35.7243 56.0702 34.7847 57.1915 33.3488 57.1915C31.913 57.1915 30.9734 56.0702 30.9734 54.504Z" fill="#FCFCFC"/>
<path d="M40.2451 48.3279C40.9542 48.3279 41.5392 47.7583 41.5392 47.0285C41.5392 46.3166 40.9542 45.7471 40.2451 45.7471C39.5183 45.7471 38.9688 46.3166 38.9688 47.0285C38.9688 47.7583 39.5183 48.3279 40.2451 48.3279ZM39.1638 58.9183H41.3265V50.1256H39.1638V58.9183Z" fill="#FCFCFC"/>
<path d="M43.2227 62.9938H45.3321V57.7075C45.8817 58.6152 47.0694 59.1492 48.3812 59.1492C50.9694 59.1492 52.5117 57.1557 52.4761 54.4147C52.423 51.6558 50.8453 49.8582 48.3635 49.8582C47.034 49.8582 45.8285 50.4455 45.2967 51.4601L45.1726 50.1252H43.2227V62.9938ZM45.4207 54.5215C45.4207 52.9374 46.3781 51.8338 47.8848 51.8338C49.3917 51.8338 50.2957 52.9551 50.2957 54.5215C50.2957 56.0878 49.3917 57.1913 47.8848 57.1913C46.3781 57.1913 45.4207 56.1056 45.4207 54.5215Z" fill="#FCFCFC"/>
<path d="M53.0234 56.2835C53.0944 58.0277 54.4416 59.1491 56.5334 59.1491C58.5897 59.1491 59.9902 58.0456 59.9902 56.3369C59.9902 55.0731 59.2102 54.2187 57.7743 53.8628L56.2321 53.489C55.5762 53.311 55.133 53.0797 55.133 52.5101C55.133 51.9049 55.6116 51.4778 56.3916 51.4778C57.2071 51.4778 57.7389 51.9405 57.7389 52.7059H59.7066C59.6356 50.9615 58.3416 49.858 56.4448 49.858C54.5657 49.858 53.1653 50.9615 53.1653 52.6347C53.1653 53.7738 53.8212 54.7171 55.5053 55.1621L57.0298 55.5537C57.5971 55.7139 57.9516 55.9809 57.9516 56.4792C57.9516 57.1734 57.2957 57.4938 56.498 57.4938C55.5407 57.4938 54.9911 57.0488 54.9911 56.2835H53.0234Z" fill="#FCFCFC"/>
<path d="M64.4762 59.1493C65.6639 59.1493 66.7985 58.5975 67.3125 57.7787L67.4544 58.9179H69.4753V50.1252H67.3125V54.7351C67.3125 56.3192 66.7098 57.2092 65.2917 57.2092C64.1926 57.2092 63.4303 56.6752 63.4303 54.8597V50.1252H61.2676V55.6251C61.2676 57.7253 62.4021 59.1493 64.4762 59.1493Z" fill="#FCFCFC"/>
<path d="M73.5455 58.9177V53.8628C73.5455 52.4389 74.3786 51.7625 75.4069 51.7625C76.435 51.7625 77.1086 52.4211 77.1086 53.667V58.9177H79.2182V53.8806C79.2182 52.4389 80.0336 51.7625 81.0618 51.7625C82.1077 51.7625 82.7814 52.4211 82.7814 53.667V58.9177H84.8731V53.1686C84.8731 51.1396 83.7563 49.858 81.6291 49.858C80.2995 49.858 79.2536 50.4988 78.8282 51.5312C78.3496 50.4988 77.3923 49.858 75.9387 49.858C74.9105 49.858 73.9887 50.3386 73.4746 51.1218L73.3682 50.1251H71.3828V58.9177H73.5455Z" fill="#FCFCFC"/>
<path d="M39.8011 33.6876C36.952 38.8347 31.1508 41.2836 25.285 41.2836H1.75C26.25 38.2092 43.3125 25.9119 45.5 8.78357C47.6875 25.9119 64.75 38.2092 89.25 41.2836H65.715C59.8492 41.2836 54.0481 38.8347 51.1989 33.6876C48.115 28.1167 46.1503 21.8129 45.5 14.9322C44.8497 21.8129 42.885 28.1167 39.8011 33.6876Z" fill="#FCFCFC"/>
<path d="M26.342 31.8688C24.9676 32.6455 23.5219 33.3751 22.0082 34.0547C21.1483 31.073 20.8319 27.9446 21.0843 24.8283C21.4181 20.7057 22.737 16.7311 24.9241 13.2568C27.1113 9.78258 30.0992 6.91572 33.6232 4.91028C37.1472 2.90486 41.0985 1.82272 45.1271 1.75975C49.1557 1.69677 53.1372 2.6549 56.719 4.54925C60.3008 6.4436 63.3723 9.21568 65.6614 12.62C67.9506 16.0243 69.3867 19.9558 69.8427 24.0661C70.2155 27.4281 69.9233 30.8249 68.9918 34.0547C67.4781 33.3751 66.0324 32.6455 64.658 31.8687C65.2374 29.5075 65.3998 27.051 65.1299 24.6172C64.7622 21.3026 63.6041 18.1323 61.7582 15.3871C59.9122 12.6419 57.4353 10.4064 54.547 8.87882C51.6586 7.3512 48.4479 6.57858 45.1993 6.62936C41.9506 6.68014 38.7642 7.55277 35.9226 9.16991C33.0809 10.7871 30.6714 13.0989 28.9076 15.9006C27.1439 18.7023 26.0803 21.9073 25.8112 25.2319C25.6302 27.4664 25.8119 29.7088 26.342 31.8688Z" fill="#FCFCFC"/>
</svg>
