<svg width="106" height="51" viewBox="0 0 106 51" fill="none" xmlns="http://www.w3.org/2000/svg">
<path d="M93.8732 4.46148C94.8159 5.86197 95.7208 7.58964 95.2758 9.44111C93.7402 8.56741 92.505 7.14093 91.5255 5.73269C90.5392 4.31499 89.515 2.80745 89.1641 1.06006C91.1012 1.55254 92.8353 2.91963 93.8732 4.46148Z" fill="#FCFCFC"/>
<path d="M10.6161 9.43864C10.1722 7.58682 11.0789 5.85983 12.0234 4.46014C13.0631 2.9192 14.7977 1.55337 16.7351 1.06226C16.3831 2.80931 15.3573 4.31627 14.37 5.73307C13.3892 7.14062 12.1523 8.56619 10.6161 9.43864Z" fill="#FCFCFC"/>
<path d="M9.264 12.9908C9.61047 11.5243 9.60279 9.9188 9.27294 8.54328C8.98289 7.33442 8.56084 5.62556 7.17172 5.04895C6.162 6.65886 5.75611 8.8512 6.34458 10.4939C6.77008 11.6822 7.53528 13.2532 9.12224 13.4964C10.5784 13.83 12.0509 13.0579 13.2139 12.4204C14.507 11.7117 15.7736 10.5841 16.5432 9.24358C15.1315 8.5353 13.5238 9.11009 12.3143 9.66094C11.0105 10.2548 9.81278 11.5288 9.264 12.9908Z" fill="#FCFCFC"/>
<path d="M37.523 14.3987V7.03589H34.9941V9.71842H31.2008V7.03589H28.6719V14.3987H31.2008V11.7256H34.9941V14.3987H37.523Z" fill="#FCFCFC"/>
<path d="M45.9095 7.03589H48.7025L44.7394 11.9695V14.3987H42.2011V11.9788L38.2852 7.03589H41.1631L43.5033 9.98097L45.9095 7.03589Z" fill="#FCFCFC"/>
<path fill-rule="evenodd" clip-rule="evenodd" d="M57.5109 7.66425C58.0111 8.05824 58.2941 8.72423 58.2941 9.69026C58.2941 10.4781 58.0959 11.069 57.7185 11.4818C57.2089 12.0633 56.3692 12.3258 55.2746 12.3353C54.9349 12.3446 52.0285 12.3353 52.0285 12.3353V14.3987H49.4902V7.03589H55.2369C56.2559 7.03589 57.0297 7.24223 57.5109 7.66425ZM55.6331 10.2624C55.7087 10.1311 55.7464 9.96227 55.7464 9.72777C55.7464 9.48392 55.6992 9.27758 55.6143 9.16507C55.4538 8.93057 55.1519 8.81793 54.6612 8.81793H52.0097V10.6188H54.6423C55.1708 10.6188 55.4822 10.4969 55.6331 10.2624Z" fill="#FCFCFC"/>
<path d="M67.108 12.5697V14.3987H59.3047V7.03589H67.0427V8.87425H61.7957V9.82159H66.8913V11.613H61.7957V12.5697H67.108Z" fill="#FCFCFC"/>
<path fill-rule="evenodd" clip-rule="evenodd" d="M76.5834 7.78624C76.9241 8.13325 77.0835 8.6116 77.0835 9.27758C77.0835 9.84975 76.9424 10.3374 76.7061 10.6658C76.4424 11.0221 76.0364 11.3223 75.5363 11.3973L77.7728 14.3987H74.9606L73.121 11.8006H70.8283V14.3987H68.3086V7.03589H74.2059C75.3758 7.03589 76.1407 7.31724 76.5834 7.78624ZM74.5454 9.8966C74.6119 9.78409 74.6303 9.63395 74.6303 9.51208C74.6303 9.37141 74.6119 9.22127 74.5454 9.12744C74.4135 8.8836 74.1497 8.81793 73.7529 8.81793H70.8375V10.1593H73.7999C74.2059 10.1593 74.4514 10.0842 74.5454 9.8966Z" fill="#FCFCFC"/>
<path d="M65.7571 23.6343C65.7571 21.9513 64.6814 21.0668 62.1725 20.7965C61.7647 20.7474 60.5658 20.6245 59.8118 20.563C57.8714 20.3542 57.2906 20.2437 57.2906 19.7523C57.2906 19.3101 57.7479 19.1012 59.4905 19.1012C60.7265 19.1012 61.4186 19.3346 61.6905 19.6908C61.8265 19.8628 61.8759 19.9979 61.8883 20.1331H65.4478C65.4106 19.8382 65.2871 19.4205 65.0893 19.0521C64.4467 17.8235 62.9017 16.8407 59.5771 16.8407C55.8321 16.8407 53.7806 18.1552 53.7806 19.8752C53.7806 21.5336 54.9423 22.5041 58.0815 22.7867C58.4365 22.8169 59.1988 22.8885 59.823 22.9471L59.8615 22.9508L59.8685 22.9514L59.8713 22.9517L60.2074 22.9832C61.8511 23.1553 62.2961 23.2657 62.2961 23.7818C62.2961 24.2608 61.8635 24.5188 60.0467 24.5188C58.6378 24.5188 57.8097 24.31 57.513 23.9537C57.3895 23.8063 57.3029 23.5852 57.2782 23.4378H53.7188C53.7558 23.6834 53.8176 24.0766 53.9535 24.396C54.5592 25.7474 56.1412 26.7793 59.8118 26.7793C63.7545 26.7793 65.7571 25.6736 65.7571 23.6343Z" fill="#FCFCFC"/>
<path fill-rule="evenodd" clip-rule="evenodd" d="M40.5201 25.6491C40.8909 25.2191 41.0763 24.5679 41.0763 23.9045C41.0763 23.3394 40.928 22.7988 40.619 22.4426C40.2482 21.9635 39.5931 21.6195 38.9011 21.5336C39.3707 21.4721 39.8156 21.2264 40.0751 20.907C40.3965 20.5261 40.5448 20.0102 40.5448 19.3836C40.5448 18.7571 40.3595 18.2043 39.9392 17.7866C39.4696 17.3075 38.6167 16.988 37.282 16.988H28.9023V26.6319H37.5168C38.8887 26.6319 39.9516 26.3369 40.5201 25.6491ZM37.1089 19.961C37.1089 20.1945 37.0347 20.391 36.9112 20.5261C36.7381 20.6859 36.4168 20.7473 35.9966 20.7473H32.1405V19.1748H35.9101C36.3797 19.1748 36.7011 19.2362 36.874 19.3959C37.0347 19.531 37.1089 19.7276 37.1089 19.961ZM37.4797 24.1871C37.282 24.3714 36.9359 24.4451 36.355 24.4451H32.1405V22.8358H36.3921C36.9359 22.8358 37.2572 22.9094 37.4426 23.0691C37.591 23.2165 37.6527 23.4009 37.6527 23.6465C37.6527 23.88 37.6032 24.0642 37.4797 24.1871Z" fill="#FCFCFC"/>
<path d="M52.7172 24.2363V26.6319H42.4961V16.988H52.6307V19.3959H45.7589V20.6367H52.433V22.9832H45.7589V24.2363H52.7172Z" fill="#FCFCFC"/>
<path d="M77.7813 19.4083V16.988H66.2012V19.4083H70.2921V26.6319H73.6778V19.4083H77.7813Z" fill="#FCFCFC"/>
<path d="M77.4877 35.1639H76.9429L76.9039 34.6425C76.7376 34.9064 76.3855 35.2232 75.6424 35.2232C74.3865 35.2232 73.8027 34.4708 73.8027 32.5498C73.8027 31.0646 74.1743 29.8699 75.7077 29.8699C77.037 29.8699 77.4418 30.7347 77.4613 31.6654H76.7973C76.7778 31.0581 76.5048 30.497 75.7215 30.497C74.7787 30.497 74.5058 31.0581 74.5058 32.5697C74.5058 34.1474 74.8453 34.6425 75.7353 34.6425C76.3592 34.6425 76.7239 34.2992 76.8443 33.89V32.9064H75.5024V32.3056H77.4808V33.824C77.4808 34.2776 77.4854 34.7617 77.4866 35.0051L77.4877 35.1209V35.1639Z" fill="#FCFCFC"/>
<path fill-rule="evenodd" clip-rule="evenodd" d="M29.0294 33.8514H30.8889L31.274 35.1651H31.978L30.4373 29.9371H29.5806L27.9336 35.1651H28.6309L29.0294 33.8514ZM30.7228 33.264H29.2087C29.2087 33.264 29.8661 31.1517 29.8794 31.1055C29.8861 31.0725 29.9924 30.6038 29.9924 30.6038L30.0659 30.9505L30.0986 31.1055C30.1052 31.1385 30.7228 33.264 30.7228 33.264Z" fill="#FCFCFC"/>
<path d="M37.0166 29.9371H37.6542L36.4123 35.1651H35.622C35.622 35.1651 34.7388 31.0989 34.7388 30.9272C34.7321 31.0989 33.8289 35.1651 33.8289 35.1651H33.0387L31.7969 29.9371H32.514C32.514 29.9371 33.477 34.0759 33.477 34.241C33.477 34.0759 34.3603 29.9371 34.3603 29.9371H35.1505C35.1505 29.9371 36.0337 34.0825 36.0337 34.241C36.0337 34.0825 37.0166 29.9371 37.0166 29.9371Z" fill="#FCFCFC"/>
<path fill-rule="evenodd" clip-rule="evenodd" d="M40.381 33.8514H38.5215L38.1231 35.1651H37.4258L39.0727 29.9371H39.9294L41.4702 35.1651H40.7662L40.381 33.8514ZM38.7009 33.264H40.215C40.215 33.264 39.5974 31.1385 39.5908 31.1055L39.5405 30.8676L39.4845 30.6038C39.4845 30.6038 39.3783 31.0725 39.3716 31.1055C39.3583 31.1517 38.7009 33.264 38.7009 33.264Z" fill="#FCFCFC"/>
<path fill-rule="evenodd" clip-rule="evenodd" d="M44.0302 29.9371C44.8403 29.9371 45.2787 30.3133 45.2787 31.4091C45.2787 32.3399 44.9267 32.6501 44.5614 32.7557L45.5709 35.1651H44.8403L43.904 32.8878H42.629V35.1651H41.9648V29.9371H44.0302ZM43.9306 32.2936C44.4552 32.2936 44.5814 32.023 44.5814 31.4289C44.5814 30.7557 44.3822 30.551 43.8974 30.551H42.6355V32.2936H43.9306Z" fill="#FCFCFC"/>
<path fill-rule="evenodd" clip-rule="evenodd" d="M49.702 32.4653C49.702 33.6997 49.6091 34.2013 49.3435 34.5776C49.0779 34.9407 48.6595 35.1651 47.982 35.1651H46.1758V29.9371H47.9356C48.5997 29.9371 49.1177 30.1352 49.3568 30.4916C49.6224 30.8744 49.702 31.3497 49.702 32.4653ZM47.8427 34.5446C48.2478 34.5446 48.5864 34.439 48.759 34.2079C48.9451 33.9571 48.9982 33.4488 48.9982 32.4653C48.9982 31.6402 48.9516 31.1979 48.759 30.914C48.5798 30.6698 48.2345 30.5641 47.8294 30.5641H46.8465V34.5446H47.8427Z" fill="#FCFCFC"/>
<path d="M56.708 29.9371H57.3456L56.1037 35.1651H55.3134C55.3134 35.1651 54.4302 31.0989 54.4302 30.9272C54.4235 31.0989 53.5204 35.1651 53.5204 35.1651H52.7301L51.4883 29.9371H52.2054C52.2054 29.9371 53.1684 34.0759 53.1684 34.241C53.1684 34.0759 54.0516 29.9371 54.0516 29.9371H54.8419C54.8419 29.9371 55.7251 34.0825 55.7251 34.241C55.7251 34.0825 56.708 29.9371 56.708 29.9371Z" fill="#FCFCFC"/>
<path d="M58.5188 29.9371V35.1651H57.8281V29.9371H58.5188Z" fill="#FCFCFC"/>
<path d="M62.8436 29.9371V35.1651H62.0799L60.1208 31.112V35.1651H59.4766V29.9371H60.2802L62.1927 33.9307V29.9371H62.8436Z" fill="#FCFCFC"/>
<path d="M67.1481 29.9371V35.1651H66.3842L64.4255 31.112V35.1651H63.7812V29.9371H64.5849L66.4978 33.9307V29.9371H67.1481Z" fill="#FCFCFC"/>
<path d="M68.7783 29.9371V35.1651H68.0879V29.9371H68.7783Z" fill="#FCFCFC"/>
<path d="M73.1056 29.9371V35.1651H72.3417L70.3828 31.112V35.1651H69.7383V29.9371H70.5423L72.4553 33.9307V29.9371H73.1056Z" fill="#FCFCFC"/>
<path d="M36.5061 45.4689L35.7452 43.1407L34.9841 45.4689H32.5215L34.5138 46.9078L33.7528 49.2359L35.7452 47.797L37.7375 49.2359L36.9765 46.9078L38.9689 45.4689H36.5061Z" fill="#FCFCFC"/>
<path d="M45.3083 45.4689L44.5317 43.1407L43.7551 45.4689H41.2422L43.2753 46.9076L42.4987 49.2358L44.5317 47.797L46.5648 49.2358L45.7882 46.9076L47.8212 45.4689H45.3083Z" fill="#FCFCFC"/>
<path d="M54.0231 45.4689L53.2466 43.1407L52.47 45.4689H49.957L51.99 46.9076L51.2135 49.2358L53.2466 47.797L55.2795 49.2358L54.503 46.9076L56.5361 45.4689H54.0231Z" fill="#FCFCFC"/>
<path d="M62.7379 45.4689L61.9614 43.1407L61.1848 45.4689H58.6719L60.7049 46.9076L59.9283 49.2358L61.9614 47.797L63.9944 49.2358L63.2178 46.9076L65.2509 45.4689H62.7379Z" fill="#FCFCFC"/>
<path d="M71.5116 45.4689L70.7513 43.1407L69.9897 45.4689H67.5273L69.5195 46.9076L68.7591 49.2358L70.7513 47.797L72.7434 49.2358L71.9819 46.9076L73.9752 45.4689H71.5116Z" fill="#FCFCFC"/>
<path d="M4.77789 16.947C5.49401 18.033 6.60214 19.3932 8.21788 19.3545C9.68717 19.4274 10.9565 18.4307 11.9562 17.5989C13.0328 16.7029 14.0045 15.3927 14.4148 13.9763C12.912 13.5417 11.4732 14.3468 10.4003 15.1061C9.27991 15.8992 8.41824 17.3507 8.23314 18.841C8.21926 17.348 7.81269 15.8059 7.15724 14.5636C6.55799 13.4279 5.72293 11.8928 4.23312 11.5859C3.64614 13.3531 3.83343 15.5152 4.77789 16.947Z" fill="#FCFCFC"/>
<path d="M8.69856 25.2036C7.199 25.4534 5.73625 24.5401 4.78628 23.4659C3.56323 22.0829 2.83553 20.2275 2.98394 18.3701C4.52444 18.409 5.69118 19.7326 6.55352 20.7336C7.48228 21.8115 8.24324 23.2298 8.6083 24.6929C8.44773 23.2348 8.94021 21.6604 9.8544 20.6875C10.7368 19.7484 11.9729 18.7249 13.5109 18.8892C13.4778 20.3676 12.7322 21.7762 11.9632 22.8312C11.2464 23.8143 10.1422 25.0303 8.69856 25.2036Z" fill="#FCFCFC"/>
<path d="M5.92745 30.1163C7.30854 31.0101 8.98358 31.8947 10.7439 31.2252C12.1881 30.7173 13.1063 29.2724 13.671 27.9461C14.2693 26.5408 14.6688 24.9204 14.3922 23.3823C12.8053 23.5223 11.4893 24.6509 10.7904 26.0286C10.0597 27.4689 9.91955 29.1832 10.4808 30.6933C9.65153 29.1398 8.43869 27.8828 7.15394 26.7214C5.98606 25.6656 4.30379 24.5534 2.60938 24.7626C2.93177 26.8448 4.21009 29.005 5.92745 30.1163Z" fill="#FCFCFC"/>
<path d="M14.301 36.8545C15.6601 36.0469 16.207 34.3476 16.4305 32.8915C16.6715 31.3211 16.6612 29.5892 16.005 28.0995C14.4283 28.5372 13.346 29.9479 12.9886 31.4929C12.611 33.1253 12.9297 34.865 13.8481 36.2549C12.6272 34.8626 11.0038 33.7131 9.44803 32.907C7.94526 32.1284 6.10163 31.1892 4.29688 31.7564C5.16714 33.8675 7.02877 35.8331 9.09203 36.6462C10.6899 37.2757 12.6338 37.8982 14.301 36.8545Z" fill="#FCFCFC"/>
<path d="M20.7434 37.4011C20.9428 38.9169 20.9372 40.8394 19.7533 42.006C18.2738 43.5113 15.9841 43.2208 14.2181 42.8897C11.8473 42.4447 9.17845 40.8374 7.74805 38.6973C9.49499 37.7412 11.6315 38.3528 13.3611 38.8479L13.4598 38.8761C15.3904 39.4282 17.4477 40.3174 19.1682 41.5324C17.7952 40.2991 16.7947 38.489 16.7458 36.6646C16.7017 35.0328 17.4143 33.287 18.9477 32.5092C20.0182 33.9058 20.5195 35.6989 20.7434 37.4011Z" fill="#FCFCFC"/>
<path d="M27.6137 46.2977C28.4855 44.648 27.6217 42.7118 26.9333 41.2807C26.1195 39.589 25.0076 37.8649 23.4163 36.6266C21.8883 37.9355 22.0336 39.8084 22.4878 41.4361C23.028 43.3715 24.9008 45.0213 26.8401 45.9615C24.5941 45.1289 22.1413 44.6293 19.8076 44.4818L19.5712 44.4666C17.6964 44.3452 15.2557 44.1872 13.7617 45.551C16.0205 47.4597 19.229 48.5609 22.0567 48.5037C23.9517 48.4654 26.5517 48.2425 27.6137 46.2977Z" fill="#FCFCFC"/>
<path d="M96.6235 12.9953C96.0765 11.5323 94.8791 10.2566 93.5763 9.66167C92.3663 9.10991 90.7595 8.5341 89.3477 9.24113C90.1161 10.5822 91.3811 11.7107 92.6736 12.4205C93.8354 13.0586 95.3069 13.8318 96.7635 13.4995C98.3508 13.2578 99.118 11.6871 99.5447 10.4989C100.135 8.85694 99.7316 6.66416 98.7235 5.05322C97.3335 5.62904 96.9091 7.33744 96.619 8.54618C96.2875 9.92205 96.2783 11.5281 96.6235 12.9953Z" fill="#FCFCFC"/>
<path d="M95.4856 15.1101C96.605 15.9035 97.464 17.3542 97.6487 18.8435C97.6647 17.3512 98.073 15.8106 98.7291 14.5696C99.3289 13.4343 100.166 11.8999 101.656 11.594C102.241 13.3617 102.052 15.5237 101.105 16.9547C100.39 18.0388 99.2818 19.3962 97.6693 19.3598C96.1979 19.4345 94.9271 18.4354 93.927 17.6018C92.8512 16.705 91.881 15.3941 91.4727 13.9774C92.9751 13.5437 94.4133 14.3499 95.4856 15.1101Z" fill="#FCFCFC"/>
<path d="M97.2672 24.7029C97.4312 23.2436 96.9403 21.6659 96.0251 20.6911C95.1443 19.7512 93.9091 18.7268 92.3711 18.89C92.4021 20.3684 93.1464 21.7777 93.9148 22.8332C94.6305 23.8165 95.7326 25.0325 97.1754 25.2077C98.6756 25.4602 100.14 24.5474 101.092 23.4733C102.316 22.0913 103.045 20.2365 102.9 18.3789C101.358 18.4168 100.191 19.7394 99.327 20.7396C98.3957 21.8183 97.633 23.2382 97.2672 24.7029Z" fill="#FCFCFC"/>
<path d="M95.0843 26.0313C95.8137 27.4724 95.9525 29.1871 95.3894 30.6967C96.2197 29.1434 97.4343 27.8873 98.7199 26.7266C99.8886 25.6717 101.572 24.561 103.266 24.7713C102.943 26.8534 101.662 29.0127 99.9437 30.1226C98.5628 31.0141 96.8895 31.8969 95.1313 31.2301C93.6851 30.7231 92.7664 29.2752 92.2021 27.9467C91.6046 26.5409 91.2066 24.9203 91.4853 23.3823C93.0715 23.5236 94.387 24.6532 95.0843 26.0313Z" fill="#FCFCFC"/>
<path d="M92.0167 36.2527C92.9342 34.8642 93.2542 33.1262 92.8792 31.4946C92.5236 29.9492 91.4421 28.5378 89.8651 28.0989C89.208 29.5879 89.1965 31.3197 89.435 32.8904C89.6575 34.3437 90.2012 36.0395 91.5522 36.8501C93.2209 37.9021 95.1695 37.2799 96.7694 36.6506C98.8338 35.839 100.698 33.8748 101.569 31.7641C99.7651 31.1958 97.9209 32.1336 96.4173 32.911C94.8621 33.7155 93.2381 34.8627 92.0167 36.2527Z" fill="#FCFCFC"/>
<path d="M85.1188 37.3962C84.9181 38.9116 84.9216 40.834 86.1052 42.0017C87.5824 43.5081 89.8727 43.2192 91.6389 42.8892C94.0107 42.4461 96.6807 40.8405 98.1131 38.7016C96.3676 37.7444 94.2297 38.3541 92.5002 38.8479L92.4005 38.8761C90.4702 39.4265 88.4127 40.3139 86.6912 41.5271C88.0652 40.2949 89.0664 38.4863 89.1169 36.6625C89.1628 35.0308 88.4517 33.2844 86.9195 32.5054C85.8471 33.9012 85.3448 35.6941 85.1188 37.3962Z" fill="#FCFCFC"/>
<path d="M83.7942 48.4979C81.8995 48.4581 79.2995 48.2334 78.2398 46.2876L78.2249 46.261C77.3785 44.6163 78.2386 42.694 78.9245 41.2714C79.7399 39.5802 80.8535 37.8569 82.4454 36.62C83.9731 37.93 83.8251 39.8028 83.3698 41.43C82.8273 43.365 80.9533 45.0137 79.0128 45.9523C81.2595 45.1214 83.7127 44.6236 86.0467 44.4777L86.2841 44.4626C88.1593 44.3427 90.5998 44.1867 92.0919 45.5513C89.8314 47.4581 86.6224 48.5572 83.7942 48.4979Z" fill="#FCFCFC"/>
</svg>
