<svg width="151" height="64" viewBox="0 0 151 64" fill="none" xmlns="http://www.w3.org/2000/svg">
<path d="M75.3661 20.9082C75.984 20.8995 76.5094 20.784 76.5008 20.1488V20.0535C76.5094 19.4212 75.984 19.3057 75.3661 19.2971C74.7454 19.3057 74.2199 19.4212 74.2286 20.0535V20.1488C74.2199 20.784 74.7454 20.8995 75.3661 20.9082Z" fill="#FCFCFC"/>
<path d="M52.7765 19.6318C52.7765 19.447 52.6294 19.2998 52.4445 19.2998H50.5996V19.961H52.4445C52.5369 19.961 52.6148 19.9292 52.6784 19.8657C52.7448 19.7992 52.7765 19.7214 52.7765 19.6318Z" fill="#FCFCFC"/>
<path d="M63.1633 19.2919L63.6949 20.4387H62.6289L63.1633 19.2919Z" fill="#FCFCFC"/>
<path d="M86.8664 19.2919L87.3981 20.4387H86.332L86.8664 19.2919Z" fill="#FCFCFC"/>
<path d="M49.1217 43.4283L48.3365 41.7339L47.5469 43.4283H49.1217Z" fill="#FCFCFC"/>
<path d="M67.6558 42.9416C67.6558 43.5178 67.3271 43.9916 66.7467 43.9916H64.2969V41.8917H66.7467C67.3271 41.8917 67.6558 42.3612 67.6558 42.9416Z" fill="#FCFCFC"/>
<path d="M73.8599 41.7339L74.6453 43.4283H73.0703L73.8599 41.7339Z" fill="#FCFCFC"/>
<path d="M83.405 41.7465C83.6781 41.7465 83.8958 41.9642 83.8958 42.2373C83.8958 42.3696 83.8488 42.4849 83.7507 42.583C83.6568 42.677 83.5416 42.7239 83.405 42.7239H80.6777V41.7465H83.405Z" fill="#FCFCFC"/>
<path d="M92.4263 42.9416C92.4263 43.5178 92.0972 43.9916 91.5166 43.9916H89.0664V41.8917H91.5166C92.0972 41.8917 92.4263 42.3612 92.4263 42.9416Z" fill="#FCFCFC"/>
<path d="M38.7533 32.2476L35.9069 25.6758H31.0234V36.6288H34.5813V30.7128L37.1487 36.6288H40.33L42.9252 30.7128V36.6288H46.4692V25.6758H41.7392L38.7533 32.2476Z" fill="#FCFCFC"/>
<path d="M60.9902 36.6288V33.9079H53.1347V32.4847H60.6693V29.8198H53.1347V28.4105H60.8925V25.6758H49.4512V36.6288H60.9902Z" fill="#FCFCFC"/>
<path d="M63.9934 34.6884C65.0818 36.0977 67.0211 36.7954 69.3513 36.7954C71.1012 36.7954 72.3838 36.4399 73.2774 35.8763C73.4311 35.7793 73.5734 35.6761 73.7046 35.5675L73.8023 36.6279H76.8021V30.1398H69.5187V32.4979H73.4116C73.3944 32.6095 73.3349 32.7847 73.2494 32.9517C73.196 33.0559 73.1325 33.1569 73.0627 33.2374C72.6582 33.7117 71.5837 34.1303 70.1885 34.1303C68.7374 34.1303 67.8025 33.7537 67.3002 33.1676C66.9653 32.7351 66.77 32.1211 66.77 31.2002C66.77 30.2376 66.9653 29.5817 67.3421 29.1492C67.8862 28.5353 68.8071 28.2702 70.1606 28.2702C71.3745 28.2702 72.2117 28.5492 72.6024 28.8981C72.8535 29.1073 73.0488 29.4004 73.0906 29.5957H76.7045C76.6994 29.4669 76.6808 29.3095 76.6498 29.142C76.5966 28.8557 76.5068 28.5393 76.3835 28.2842C75.5184 26.526 73.5092 25.4796 70.0909 25.4796C67.1189 25.4796 65.1236 26.3865 64.0213 27.754C63.2958 28.6887 62.9609 29.8608 62.9609 31.1723C62.9609 32.6234 63.3516 33.8653 63.9934 34.6884Z" fill="#FCFCFC"/>
<path d="M67.2227 31.2002C67.2227 30.2898 67.4088 29.7632 67.6819 29.4487C68.0927 28.9864 68.8423 28.7239 70.1595 28.7239C71.3307 28.7239 72.0315 28.9976 72.299 29.2365L72.3048 29.2416L72.3108 29.2466C72.4028 29.3233 72.4869 29.4177 72.5505 29.5098C72.6133 29.6008 72.6385 29.664 72.6447 29.6861H69.0639V32.9516H72.7089C72.5784 33.0991 72.2982 33.2832 71.853 33.4311C71.4099 33.5783 70.8413 33.6765 70.1874 33.6765C68.8087 33.6765 68.0332 33.3197 67.6511 32.8808C67.4012 32.5533 67.2227 32.051 67.2227 31.2002Z" fill="#FCFCFC"/>
<path d="M86.2817 29.7112L85.2422 31.6958H87.2639L86.2817 29.7112Z" fill="#FCFCFC"/>
<path fill-rule="evenodd" clip-rule="evenodd" d="M89.1801 34.6056L90.143 36.6288H94.1755L88.6496 25.6758H84.1431L78.2969 36.6288H82.2456L83.2641 34.6056H89.1801ZM84.4919 32.1499L85.8733 29.5128L86.2919 28.5082L86.6825 29.4988L87.9944 32.1499H84.4919Z" fill="#FCFCFC"/>
<path fill-rule="evenodd" clip-rule="evenodd" d="M118.294 55.5934H118.288C118.21 55.5934 118.132 55.593 118.055 55.5922V55.5934H32.7105C25.1795 55.5934 18.4619 52.1109 14.0801 46.6686H26.6543V45.0749H12.9019C10.8503 42.0451 9.47554 38.5197 8.99471 34.7157H26.6543V33.122H8.84701C8.8189 32.6474 8.80469 32.1691 8.80469 31.6876C8.80469 28.5325 9.41585 25.5203 10.5264 22.7627H26.6543V21.169H11.2372C12.9266 17.7265 15.4194 14.7497 18.4714 12.4832H104.054C105.121 11.6908 106.257 10.9852 107.449 10.3768C107.127 10.5408 106.811 10.7117 106.498 10.8895H20.9151C24.3955 8.91135 28.4211 7.78174 32.7104 7.78174H118.055V7.78286C118.134 7.78208 118.214 7.78174 118.294 7.78174C131.496 7.78174 142.2 18.4847 142.2 31.6876C142.2 44.8904 131.496 55.5934 118.294 55.5934ZM127.183 42.8997C128.253 39.6751 128.892 35.8451 128.892 31.6876C128.892 27.8118 128.336 24.2205 127.394 21.1391C127.279 20.7628 127.158 20.3942 127.032 20.0336C126.822 19.4329 126.596 18.8546 126.357 18.3004C126.034 17.5519 125.686 16.8474 125.317 16.1916C123.573 13.0972 121.584 11.4306 119.728 10.8695V18.3004H124.61C125.023 19.1816 125.4 20.1411 125.733 21.169H119.728V30.2531H127.272C127.289 30.7259 127.298 31.2042 127.298 31.6876C127.298 32.171 127.289 32.6492 127.272 33.1219H119.728V42.2061H125.732C125.4 43.234 125.023 44.1935 124.61 45.0748H119.728V52.5057C121.584 51.9447 123.573 50.2781 125.317 47.1835C125.686 46.5277 126.035 45.8232 126.357 45.0748C126.654 44.3858 126.93 43.6595 127.183 42.8997ZM130.39 21.169C131.156 23.9381 131.629 27.0085 131.736 30.2531H139.282C139.06 26.9597 138.08 23.874 136.516 21.169H130.39ZM134.522 18.3004H129.453C128.533 15.8897 127.372 13.7928 126.031 12.119C129.363 13.4375 132.277 15.5822 134.522 18.3004ZM116.86 10.8692V18.3004H110.23C110.553 17.5519 110.9 16.8474 111.27 16.1916C113.013 13.0966 115.003 11.4299 116.86 10.8692ZM110.556 12.1189C109.215 13.7927 108.055 15.8896 107.135 18.3004H102.064C104.309 15.5821 107.225 13.4373 110.556 12.1189ZM106.196 21.169H97.017V22.7627H99.2382C98.1586 25.0627 97.4836 27.5899 97.3043 30.2531H104.85C104.958 27.0085 105.431 23.9381 106.196 21.169ZM116.86 21.169H109.184C108.364 23.8596 107.84 26.9374 107.721 30.2531H116.86V21.169ZM131.736 33.1219C131.629 36.3665 131.156 39.4369 130.39 42.2061H136.516C138.08 39.5011 139.06 36.4154 139.282 33.1219H131.736ZM109.184 42.2061C108.364 39.5155 107.84 36.4376 107.721 33.1219H116.86V42.2061H109.184ZM106.196 42.2061C105.431 39.4369 104.958 36.3665 104.85 33.1219H97.3043C97.5261 36.4154 98.506 39.5011 100.071 42.2061H106.196ZM129.453 45.0748C128.533 47.4855 127.372 49.5823 126.032 51.256C129.363 49.9375 132.277 47.7928 134.522 45.0748H129.453ZM110.23 45.0748H116.86V52.506C115.003 51.9453 113.013 50.2786 111.27 47.1835C110.9 46.5277 110.553 45.8232 110.23 45.0748ZM107.135 45.0748L97.017 45.0749V46.6685H103.524C105.52 48.6358 107.905 50.2074 110.556 51.2562C109.215 49.5825 108.055 47.4856 107.135 45.0748ZM75.366 18.067C73.9051 18.0699 72.7098 18.4914 72.7156 19.961V20.2439C72.7098 21.7107 73.9051 22.1351 75.366 22.1379C76.8241 22.1351 78.0194 21.7107 78.0136 20.2439V19.961C78.0136 18.4943 76.827 18.067 75.366 18.067ZM29.9792 18.1623V22.0427H31.4921V18.1623H29.9792ZM36.0799 20.218L34.3764 18.1623H32.2947V22.0427H33.8077V19.6723L35.8922 22.0427H37.5956V18.1623H36.0799V20.218ZM41.4327 19.398V22.0485H39.9199V19.398H38.1212V18.1681H43.2314V19.398H41.4327ZM43.7397 22.0485H48.2812V21.0524H45.2525V20.5558H48.2812V19.6578H45.2525V19.1612H48.2812V18.1681H43.7397V22.0485ZM49.0867 22.0455V18.1651H52.8256C53.6254 18.1565 54.3039 18.8292 54.2924 19.6319C54.2924 19.9235 54.2144 20.1891 54.0585 20.4259C53.9055 20.6597 53.7005 20.8387 53.4464 20.9571L54.2924 22.0455H52.6813L51.9509 21.0986H50.5996V22.0455H49.0867ZM58.5481 20.218L56.8446 18.1623H54.763V22.0427H56.2759V19.6723L58.3604 22.0427H60.0639V18.1623H58.5481V20.218ZM61.8829 22.0485H60.1794L62.2611 18.1681H64.0598L66.1415 22.0485H64.438L64.132 21.3844H62.1889L61.8829 22.0485ZM68.4512 22.0485V19.398H70.2499V18.1681H65.1396V19.398H66.9384V22.0485H68.4512ZM70.7581 22.0427V18.1623H72.271V22.0427H70.7581ZM80.5486 18.1623L82.2521 20.218V18.1623H83.7679V22.0427H82.0644L79.9799 19.6723V22.0427H78.4669V18.1623H80.5486ZM83.8834 22.0485H85.5867L85.8929 21.3844H87.8357L88.1424 22.0485H89.8453L87.7642 18.1681H85.965L83.8834 22.0485ZM89.9639 22.0427V18.1623H91.4767V20.8127H94.5055V22.0427H89.9639ZM33.8992 41.3962C33.2035 41.3962 32.3499 41.4988 32.3499 41.9554C32.3499 42.2072 33.0456 42.2414 33.9462 42.284L33.9561 42.2845C35.556 42.3656 37.7959 42.479 37.7917 43.9144C37.7917 45.5533 35.9138 45.9418 33.8992 45.9418C31.889 45.9375 30.2202 45.6942 30.0068 43.9144H32.3499C32.606 44.3583 33.1993 44.4735 33.8992 44.4735C34.5949 44.4735 35.4486 44.3583 35.4486 43.9144C35.4486 43.6626 34.7529 43.6242 33.8523 43.5816L33.8423 43.581C32.2424 43.5 30.0025 43.3865 30.0068 41.9554C30.0068 40.3165 31.8847 39.9238 33.8992 39.9238C35.9095 39.9366 37.5783 40.1628 37.7917 41.9554H35.4486C35.1924 41.5029 34.5992 41.3962 33.8992 41.3962ZM42.7554 41.8914V45.8094H40.519V41.8914H37.86V40.0732H45.4144V41.8914H42.7554ZM43.9291 45.8094H46.4472L46.8996 44.8278H49.7721L50.2245 45.8094H52.7426L49.6654 40.0732H47.0064L43.9291 45.8094ZM55.9949 40.0646L58.5131 43.1035V40.0646H60.7538V45.8009H58.2356L55.1541 42.2969V45.8009H52.9176V40.0646H55.9949ZM62.0597 40.0732V45.8094H67.1644C68.7393 45.8308 69.9087 44.4992 69.8959 42.9413C69.9087 41.375 68.7393 40.0519 67.1644 40.0732H62.0597ZM71.9702 45.8094H69.452L72.5293 40.0732H75.1883L78.2655 45.8094H75.7473L75.2949 44.8278H72.4226L71.9702 45.8094ZM78.4405 40.0689V45.8052H80.677V44.4052H82.6744L83.7542 45.8052H86.1357L84.8852 44.1961C85.2609 44.0211 85.5638 43.7566 85.79 43.4108C86.0205 43.0609 86.1357 42.6681 86.1357 42.2371C86.1528 41.0505 85.1499 40.0562 83.9676 40.0689H78.4405ZM86.8314 45.8094V40.0732H91.9357C93.5109 40.0519 94.6803 41.375 94.668 42.9413C94.6803 44.4992 93.5109 45.8308 91.9357 45.8094H86.8314ZM46.9234 37.0818H42.4719V32.876L40.6268 37.0818H36.8514L35.0355 32.8975V37.0818H30.5701V25.2213H36.2053L38.7636 31.1281L41.4473 25.2213H46.9234V37.0818ZM61.4447 37.0818H48.9982V25.2213H61.347V28.8636H53.5892V29.3654H61.1238V32.9378H53.5892V33.4535H61.4447V37.0818ZM77.2547 37.0818H73.3872L73.3223 36.3776C72.3528 36.9283 71.0403 37.2493 69.3501 37.2493C66.9457 37.2493 64.8417 36.5301 63.6338 34.9669C62.9152 34.0448 62.506 32.6969 62.506 31.1725C62.506 29.7836 62.8613 28.507 63.6617 27.4759L63.6642 27.4725L63.6669 27.4693C64.8827 25.961 67.0311 25.026 70.0897 25.026C73.5854 25.026 75.8135 26.1003 76.7894 28.084L76.7903 28.0855L76.791 28.087C77.0179 28.557 77.1407 29.178 77.1566 29.5777L77.161 29.6862H77.2547V37.0818ZM83.5424 35.0586L82.5239 37.0818H77.5391L83.8697 25.2213H88.9285L94.9113 37.0818H89.8545L88.8927 35.0586H83.5424ZM29.9215 51.6888H94.8653V50.095H29.9215V51.6888Z" fill="#FCFCFC"/>
<path fill-rule="evenodd" clip-rule="evenodd" d="M32.7097 2.04431H118.293C134.664 2.04431 147.936 15.316 147.936 31.6876C147.936 48.0591 134.664 61.3308 118.293 61.3308H32.7097C16.3381 61.3308 3.06641 48.0591 3.06641 31.6876C3.06641 15.316 16.3381 2.04431 32.7097 2.04431ZM32.7097 4.91306C17.9225 4.91306 5.93516 16.9004 5.93516 31.6876C5.93516 46.4747 17.9225 58.4622 32.7097 58.4622H118.293C133.08 58.4622 145.067 46.4747 145.067 31.6876C145.067 16.9004 133.08 4.91306 118.293 4.91306H32.7097Z" fill="#FCFCFC"/>
</svg>
