<svg width="165" height="31" viewBox="0 0 165 31" fill="none" xmlns="http://www.w3.org/2000/svg">
<g clip-path="url(#clip0_37_413)">
<path d="M40.3281 1.3031H44.4114V23.5754H51.1302V27.2876H40.3281V1.3031Z" fill="#FCFCFC"/>
<path d="M58.8456 27.658C56.8411 27.658 55.3068 27.0889 54.2426 25.9505C53.1785 24.8121 52.6465 23.2036 52.6465 21.1247V7.46439C52.6465 5.38563 53.1785 3.77707 54.2426 2.63871C55.3068 1.50033 56.8411 0.931152 58.8456 0.931152C60.8501 0.931152 62.3844 1.50033 63.4486 2.63871C64.5127 3.77707 65.0447 5.38563 65.0447 7.46439V21.1247C65.0447 23.2036 64.5127 24.8121 63.4486 25.9505C62.3844 27.0889 60.8501 27.658 58.8456 27.658ZM58.8456 23.946C60.2562 23.946 60.9615 23.0921 60.9615 21.3846V7.20454C60.9615 5.49699 60.2562 4.64321 58.8456 4.64321C57.435 4.64321 56.7297 5.49699 56.7297 7.20454V21.3846C56.7297 23.0921 57.435 23.946 58.8456 23.946Z" fill="#FCFCFC"/>
<path d="M73.5956 27.658C71.6159 27.658 70.1063 27.1012 69.0668 25.9876C68.0275 24.8493 67.5078 23.2283 67.5078 21.1247V7.46439C67.5078 5.36089 68.0275 3.75232 69.0668 2.63871C70.1063 1.50033 71.6159 0.931152 73.5956 0.931152C75.5754 0.931152 77.0849 1.50033 78.1243 2.63871C79.1637 3.75232 79.6834 5.36089 79.6834 7.46439V9.69162H75.8228V7.20454C75.8228 5.49699 75.1175 4.64321 73.7069 4.64321C72.2964 4.64321 71.5911 5.49699 71.5911 7.20454V21.4218C71.5911 23.1046 72.2964 23.946 73.7069 23.946C75.1175 23.946 75.8228 23.1046 75.8228 21.4218V16.3362H73.7812V12.6242H79.6834V21.1247C79.6834 23.2283 79.1637 24.8493 78.1243 25.9876C77.0849 27.1012 75.5754 27.658 73.5956 27.658Z" fill="#FCFCFC"/>
<path d="M88.205 27.658C86.2005 27.658 84.6662 27.0889 83.6021 25.9505C82.5379 24.8121 82.0059 23.2036 82.0059 21.1247V7.46439C82.0059 5.38563 82.5379 3.77707 83.6021 2.63871C84.6662 1.50033 86.2005 0.931152 88.205 0.931152C90.2096 0.931152 91.7439 1.50033 92.808 2.63871C93.8722 3.77707 94.4042 5.38563 94.4042 7.46439V21.1247C94.4042 23.2036 93.8722 24.8121 92.808 25.9505C91.7439 27.0889 90.2096 27.658 88.205 27.658ZM88.205 23.946C89.6156 23.946 90.3209 23.0921 90.3209 21.3846V7.20454C90.3209 5.49699 89.6156 4.64321 88.205 4.64321C86.7945 4.64321 86.0892 5.49699 86.0892 7.20454V21.3846C86.0892 23.0921 86.7945 23.946 88.205 23.946Z" fill="#FCFCFC"/>
<path d="M97.1758 1.3031H101.259V27.2876H97.1758V1.3031Z" fill="#FCFCFC"/>
<path d="M104.316 1.3031H110.33C112.359 1.3031 113.881 1.84753 114.896 2.93641C115.911 4.02528 116.418 5.62147 116.418 7.72497V10.2863C116.418 12.3898 115.911 13.986 114.896 15.0749C113.881 16.1637 112.359 16.7081 110.33 16.7081H108.4V27.2876H104.316V1.3031ZM110.33 12.9961C110.998 12.9961 111.493 12.8105 111.815 12.4393C112.162 12.068 112.334 11.4371 112.334 10.5461V7.46513C112.334 6.57423 112.162 5.94318 111.815 5.57197C111.493 5.20077 110.998 5.01517 110.33 5.01517H108.4V12.9961H110.33Z" fill="#FCFCFC"/>
<path d="M124.09 27.658C122.111 27.658 120.613 27.1012 119.598 25.9876C118.584 24.8493 118.076 23.2283 118.076 21.1247V19.6399H121.937V21.4218C121.937 23.1046 122.642 23.946 124.053 23.946C124.746 23.946 125.265 23.748 125.612 23.3521C125.983 22.9313 126.169 22.2631 126.169 21.3475C126.169 20.2586 125.921 19.3059 125.427 18.4893C124.932 17.6478 124.016 16.6455 122.679 15.4824C120.997 13.9976 119.821 12.6613 119.153 11.4734C118.485 10.2608 118.151 8.89972 118.151 7.39015C118.151 5.33614 118.67 3.75232 119.71 2.63871C120.749 1.50033 122.259 0.931152 124.239 0.931152C126.193 0.931152 127.666 1.50033 128.656 2.63871C129.671 3.75232 130.178 5.36089 130.178 7.46439V8.54089H126.317V7.20454C126.317 6.31365 126.144 5.67022 125.798 5.27427C125.451 4.85357 124.944 4.64321 124.276 4.64321C122.914 4.64321 122.234 5.47224 122.234 7.1303C122.234 8.07069 122.482 8.94921 122.977 9.76586C123.496 10.5825 124.424 11.5724 125.761 12.7355C127.468 14.2203 128.643 15.5691 129.287 16.7817C129.93 17.9943 130.252 19.4172 130.252 21.0505C130.252 23.1788 129.72 24.8121 128.656 25.9505C127.616 27.0889 126.094 27.658 124.09 27.658Z" fill="#FCFCFC"/>
<path d="M138.531 27.6587C136.551 27.6587 135.042 27.102 134.002 25.9883C132.963 24.85 132.443 23.229 132.443 21.1255V1.3031H136.527V21.4225C136.527 22.3134 136.7 22.9568 137.046 23.3528C137.417 23.7487 137.938 23.9467 138.605 23.9467C139.274 23.9467 139.781 23.7487 140.127 23.3528C140.498 22.9568 140.684 22.3134 140.684 21.4225V1.3031H144.619V21.1255C144.619 23.229 144.099 24.85 143.06 25.9883C142.02 27.102 140.51 27.6587 138.531 27.6587Z" fill="#FCFCFC"/>
<path d="M147.527 1.3031H153.356L155.954 19.9005H156.028L158.627 1.3031H164.455V27.2876H160.594V7.61361H160.52L157.55 27.2876H154.135L151.165 7.61361H151.092V27.2876H147.527V1.3031Z" fill="#FCFCFC"/>
<path d="M0.90625 27.2877C5.92974 27.2877 10.002 23.2153 10.002 18.1919C10.002 13.1684 5.92974 9.09607 0.90625 9.09607V15.4631C2.41328 15.4631 3.63497 16.6848 3.63497 18.1919C3.63497 19.6989 2.41328 20.9206 0.90625 20.9206V27.2877Z" fill="#FCFCFC"/>
<path d="M31.2235 12.1272C29.6692 11.6348 28.0139 11.3691 26.2966 11.3691C17.2962 11.3691 10 18.6655 10 27.6658C10 28.5692 10.0735 29.4554 10.2148 30.3187H20.3404C19.979 29.5084 19.778 28.6106 19.778 27.6658C19.778 24.0656 22.6965 21.1471 26.2966 21.1471C28.2643 21.1471 30.0283 22.0189 31.2235 23.3973V12.1272Z" fill="#FCFCFC"/>
<path d="M2.50391 0.000244141C3.25801 6.82201 9.04156 12.128 16.0644 12.128C23.087 12.128 28.8706 6.82201 29.6247 0.000244141H19.8675C19.2651 1.51031 17.7893 2.57738 16.0644 2.57738C14.3393 2.57738 12.8636 1.51031 12.2611 0.000244141H2.50391Z" fill="#FCFCFC"/>
</g>
<defs>
<clipPath id="clip0_37_413">
<rect width="163.549" height="30.6654" fill="white" transform="translate(0.90625)"/>
</clipPath>
</defs>
</svg>
