<svg width="74" height="74" viewBox="0 0 74 74" fill="none" xmlns="http://www.w3.org/2000/svg">
<path d="M40.7467 59.4063C40.8132 52.6141 39.0912 47.0907 36.9008 47.0693C34.7102 47.048 32.8807 52.5367 32.8144 59.3287C32.7479 66.1209 34.4699 71.6444 36.6603 71.6657C38.8508 71.6872 40.6804 66.1984 40.7467 59.4063Z" fill="#FCFCFC"/>
<path d="M28.0411 57.864C31.7694 52.1862 33.3073 46.6086 31.4762 45.4063C29.645 44.2039 25.1382 47.832 21.4101 53.5099C17.6819 59.1877 16.144 64.7651 17.975 65.9676C19.8063 67.17 24.3129 63.5419 28.0411 57.864Z" fill="#FCFCFC"/>
<path d="M18.1747 49.7179C24.381 46.9574 28.6903 43.097 27.7999 41.0954C26.9097 39.0939 21.1569 39.7093 14.9507 42.4699C8.74454 45.2304 4.43518 49.0908 5.32547 51.0924C6.21575 53.0939 11.9686 52.4786 18.1747 49.7179Z" fill="#FCFCFC"/>
<path d="M27.055 35.4829C27.3883 33.3178 22.2161 30.725 15.5029 29.6917C8.78941 28.6583 3.07699 29.5759 2.74376 31.741C2.41052 33.9061 7.58264 36.4988 14.296 37.5321C21.0094 38.5655 26.7219 37.6479 27.055 35.4829Z" fill="#FCFCFC"/>
<path d="M29.4645 30.3241C30.9152 28.6828 27.9653 23.7057 22.8757 19.2076C17.7861 14.7094 12.4842 12.3936 11.0336 14.035C9.58288 15.6764 12.5328 20.6535 17.6225 25.1517C22.712 29.6499 28.014 31.9656 29.4645 30.3241Z" fill="#FCFCFC"/>
<path d="M34.266 27.3097C36.3738 26.7132 36.5832 20.9313 34.7338 14.3955C32.8844 7.85971 29.6764 3.04492 27.5686 3.64137C25.4608 4.23783 25.2513 10.0197 27.1007 16.5555C28.9501 23.0912 32.1582 27.9061 34.266 27.3097Z" fill="#FCFCFC"/>
<path d="M47.2993 16.7599C49.2773 10.2618 49.182 4.47693 47.0863 3.83903C44.9907 3.20112 41.6883 7.95172 39.7103 14.4498C37.7324 20.9478 37.8278 26.7327 39.9234 27.3706C42.0191 28.0085 45.3214 23.258 47.2993 16.7599Z" fill="#FCFCFC"/>
<path d="M56.613 25.5389C61.7896 21.1411 64.8364 16.2226 63.4179 14.5532C61.9996 12.8838 56.6534 15.0956 51.477 19.4932C46.3004 23.8911 43.2538 28.8095 44.6721 30.479C46.0904 32.1484 51.4366 29.9367 56.613 25.5389Z" fill="#FCFCFC"/>
<path d="M59.6906 37.9652C66.4231 37.0645 71.6453 34.5742 71.3548 32.4029C71.0644 30.2317 65.3711 29.2018 58.6386 30.1024C51.9062 31.0031 46.6839 33.4934 46.9744 35.6647C47.265 37.8358 52.9581 38.8659 59.6906 37.9652Z" fill="#FCFCFC"/>
<path d="M68.3776 51.7138C69.3071 49.7303 65.0748 45.7856 58.9242 42.9032C52.7738 40.0207 47.0342 39.2921 46.1046 41.2756C45.175 43.2593 49.4074 47.2039 55.5579 50.0864C61.7084 52.9687 67.448 53.6974 68.3776 51.7138Z" fill="#FCFCFC"/>
<path d="M55.4406 66.348C57.295 65.182 55.8674 59.5752 52.2519 53.8249C48.6364 48.0747 44.202 44.3586 42.3476 45.5245C40.4932 46.6905 41.9208 52.2973 45.5363 58.0475C49.1518 63.7978 53.5861 67.514 55.4406 66.348Z" fill="#FCFCFC"/>
</svg>
