<svg width="123" height="31" viewBox="0 0 123 31" fill="none" xmlns="http://www.w3.org/2000/svg">
<path d="M3.49805 28.4417H29.717V2.22278H3.49805V28.4417ZM24.6705 12.8095H19.1303V7.26929H24.6705V12.8095ZM8.54353 7.26929H14.0868V17.855H24.6705V23.3952H8.54353V7.26929ZM46.7905 2.22278C44.1976 2.22278 41.663 2.99164 39.5072 4.43213C37.3514 5.87262 35.6711 7.92004 34.6789 10.3155C33.6866 12.711 33.4271 15.3468 33.9329 17.8897C34.4388 20.4327 35.6873 22.7686 37.5206 24.602C39.354 26.4355 41.6899 27.684 44.2329 28.1899C46.776 28.6956 49.4118 28.4361 51.8073 27.4439C54.2027 26.4516 56.2501 24.7714 57.6906 22.6155C59.1311 20.4596 59.9 17.925 59.9 15.3322C59.8959 11.8566 58.5134 8.52456 56.0557 6.06694C53.5981 3.60932 50.2661 2.22684 46.7905 2.22278ZM46.7905 23.3952C45.1958 23.3952 43.6369 22.9223 42.3109 22.0363C40.985 21.1504 39.9515 19.8912 39.3412 18.4178C38.731 16.9445 38.5713 15.3234 38.8824 13.7592C39.1935 12.1952 39.9615 10.7585 41.0891 9.63087C42.2167 8.50325 43.6534 7.73533 45.2175 7.42422C46.7815 7.11311 48.4027 7.27278 49.876 7.88304C51.3493 8.49331 52.6086 9.52676 53.4946 10.8527C54.3806 12.1786 54.8535 13.7375 54.8535 15.3322C54.8502 17.4697 53.9996 19.5187 52.4882 21.0301C50.9768 22.5415 48.9279 23.3919 46.7905 23.3952ZM106.812 2.22278C104.219 2.22258 101.684 2.99126 99.5284 4.43163C97.3724 5.87199 95.692 7.91934 94.6996 10.3148C93.7073 12.7101 93.4474 15.3461 93.9532 17.8891C94.4589 20.4322 95.7074 22.7682 97.5407 24.6017C99.374 26.4352 101.71 27.6839 104.253 28.1897C106.796 28.6956 109.432 28.4361 111.828 27.444C114.223 26.4517 116.27 24.7715 117.71 22.6156C119.152 20.4597 119.92 17.9251 119.92 15.3322C119.916 11.8568 118.534 8.52489 116.077 6.0673C113.62 3.6097 110.287 2.22711 106.812 2.22278ZM106.812 23.3952C105.217 23.3954 103.659 22.9227 102.332 22.0368C101.006 21.151 99.9724 19.8918 99.362 18.4185C98.7515 16.9452 98.5918 15.324 98.9027 13.7598C99.2137 12.1958 99.9816 10.759 101.109 9.63124C102.237 8.50351 103.674 7.73548 105.238 7.42429C106.802 7.1131 108.423 7.27271 109.896 7.88295C111.37 8.49318 112.629 9.52663 113.515 10.8526C114.401 12.1786 114.874 13.7375 114.874 15.3322C114.871 17.4695 114.02 19.5183 112.509 21.0297C110.998 22.5411 108.949 23.3917 106.812 23.3952ZM76.8007 2.22278C74.2078 2.22278 71.6732 2.99164 69.5175 4.43213C67.3616 5.87262 65.6813 7.92004 64.6891 10.3155C63.6968 12.711 63.4373 15.3468 63.9431 17.8897C64.449 20.4327 65.6975 22.7686 67.5308 24.602C69.3642 26.4355 71.7001 27.684 74.2431 28.1899C76.7861 28.6956 79.422 28.4361 81.8175 27.4439C84.2129 26.4516 86.2603 24.7714 87.7008 22.6155C89.1413 20.4596 89.9102 17.925 89.9102 15.3322C89.9061 11.8566 88.5236 8.52456 86.0659 6.06694C83.6083 3.60932 80.2763 2.22684 76.8007 2.22278ZM76.8007 23.3952C75.3149 23.3959 73.8578 22.9861 72.5902 22.211C71.3227 21.4359 70.2939 20.3257 69.6175 19.0028C68.9413 17.6799 68.6435 16.1958 68.7574 14.7144C68.8712 13.233 69.3921 11.8119 70.2627 10.6078C71.1333 9.40386 72.3197 8.46382 73.6907 7.8915C75.0619 7.31917 76.5645 7.13683 78.0326 7.36459C79.5009 7.59237 80.8776 8.22138 82.0109 9.18222C83.1441 10.143 83.9899 11.3984 84.4548 12.8095H76.8007V17.855H84.4548C83.9223 19.4652 82.8965 20.8671 81.5226 21.8614C80.1488 22.8559 78.4967 23.3925 76.8007 23.3952Z" fill="#FCFCFC"/>
</svg>
