<svg width="100" height="52" viewBox="0 0 100 52" fill="none" xmlns="http://www.w3.org/2000/svg">
<path d="M25.5801 25.1215L25.7831 25.0786H42.6677L49.0122 31.4232H31.8819L25.5801 25.1215Z" fill="#FCFCFC"/>
<path d="M20.148 25.0786L3.01758 25.0787L9.36213 31.4233H20.1478L20.148 25.0786Z" fill="#FCFCFC"/>
<path d="M54.9102 6.85437H57.5414V15.0303H62.0605V17.2452H54.9102V6.85437Z" fill="#FCFCFC"/>
<path d="M66.8379 17.4677C65.9558 17.4677 65.1832 17.3092 64.5187 16.992C63.8548 16.665 63.3395 16.2191 62.9727 15.6542C62.6159 15.0794 62.4375 14.4204 62.4375 13.6771C62.4375 12.9339 62.6159 12.2798 62.9727 11.7149C63.3395 11.1401 63.8548 10.6942 64.5187 10.3771C65.1832 10.05 65.9558 9.88647 66.8379 9.88647C67.7199 9.88647 68.4932 10.05 69.1571 10.3771C69.8209 10.6942 70.3313 11.1401 70.688 11.7149C71.0548 12.2798 71.2382 12.9339 71.2382 13.6771C71.2382 14.4204 71.0548 15.0794 70.688 15.6542C70.3313 16.2191 69.8209 16.665 69.1571 16.992C68.4932 17.3092 67.7199 17.4677 66.8379 17.4677ZM66.8379 15.4312C67.3631 15.4312 67.7796 15.2776 68.0867 14.9704C68.4037 14.6533 68.5622 14.2222 68.5622 13.6771C68.5622 13.1321 68.4037 12.7059 68.0867 12.3986C67.7796 12.0816 67.3631 11.923 66.8379 11.923C66.3126 11.923 65.8919 12.0816 65.5742 12.3986C65.2671 12.7059 65.1136 13.1321 65.1136 13.6771C65.1136 14.2222 65.2671 14.6533 65.5742 14.9704C65.8919 15.2776 66.3126 15.4312 66.8379 15.4312Z" fill="#FCFCFC"/>
<path d="M76.1518 20.6638C75.6762 20.6638 75.1957 20.6192 74.7096 20.53C74.234 20.4408 73.8232 20.3219 73.4764 20.1732V18.3597C74.259 18.6966 75.1509 18.8652 76.1518 18.8652C76.8753 18.8652 77.3955 18.7164 77.7125 18.4191C78.0395 18.1218 78.203 17.6859 78.203 17.111V16.6798C77.9158 16.9276 77.5591 17.1209 77.1332 17.2596C76.7168 17.3984 76.2704 17.4677 75.7949 17.4677C75.0422 17.4677 74.3777 17.3092 73.8034 16.992C73.2283 16.675 72.7777 16.229 72.45 15.6542C72.1331 15.0794 71.9746 14.4204 71.9746 13.6771C71.9746 12.9239 72.1331 12.2599 72.45 11.6852C72.7678 11.1104 73.2134 10.6694 73.7885 10.3621C74.3627 10.045 75.0223 9.88647 75.7651 9.88647C76.7864 9.88647 77.6287 10.1986 78.2925 10.8229V10.1094H80.8193V16.7543C80.8193 17.993 80.4384 18.9543 79.675 19.6381C78.9216 20.3219 77.7474 20.6638 76.1518 20.6638ZM76.4488 15.4461C76.8554 15.4461 77.2172 15.342 77.5342 15.1339C77.8511 14.9258 78.0744 14.6484 78.203 14.3014V13.0528C78.0644 12.7059 77.8362 12.4334 77.5192 12.2352C77.2022 12.0271 76.8454 11.923 76.4488 11.923C75.9143 11.923 75.4829 12.0816 75.1559 12.3986C74.829 12.7059 74.6655 13.1271 74.6655 13.6623C74.6655 14.2073 74.829 14.6433 75.1559 14.9704C75.4829 15.2875 75.9143 15.4461 76.4488 15.4461Z" fill="#FCFCFC"/>
<path d="M85.8847 17.4677C85.0026 17.4677 84.2293 17.3092 83.5654 16.992C82.9016 16.665 82.3863 16.2191 82.0196 15.6542C81.6627 15.0794 81.4844 14.4204 81.4844 13.6771C81.4844 12.9339 81.6627 12.2798 82.0196 11.7149C82.3863 11.1401 82.9016 10.6942 83.5654 10.3771C84.2293 10.05 85.0026 9.88647 85.8847 9.88647C86.7667 9.88647 87.5394 10.05 88.2039 10.3771C88.8678 10.6942 89.3781 11.1401 89.7349 11.7149C90.1017 12.2798 90.285 12.9339 90.285 13.6771C90.285 14.4204 90.1017 15.0794 89.7349 15.6542C89.3781 16.2191 88.8678 16.665 88.2039 16.992C87.5394 17.3092 86.7667 17.4677 85.8847 17.4677ZM85.8847 15.4312C86.41 15.4312 86.8258 15.2776 87.1335 14.9704C87.4505 14.6533 87.609 14.2222 87.609 13.6771C87.609 13.1321 87.4505 12.7059 87.1335 12.3986C86.8258 12.0816 86.41 11.923 85.8847 11.923C85.3595 11.923 84.9379 12.0816 84.6209 12.3986C84.3139 12.7059 84.1603 13.1321 84.1603 13.6771C84.1603 14.2222 84.3139 14.6533 84.6209 14.9704C84.9379 15.2776 85.3595 15.4312 85.8847 15.4312Z" fill="#FCFCFC"/>
<path d="M54.9102 21.0686H57.5414V31.4595H54.9102V21.0686Z" fill="#FCFCFC"/>
<path d="M58.873 24.3244H61.3999V25.0379C62.0638 24.4136 62.9068 24.1014 63.9274 24.1014C64.6701 24.1014 65.3298 24.26 65.904 24.5772C66.479 24.8843 66.9247 25.3253 67.2424 25.9001C67.5594 26.4649 67.7179 27.124 67.7179 27.8772C67.7179 28.6204 67.5594 29.2844 67.2424 29.8691C66.9247 30.4439 66.479 30.8899 65.904 31.2069C65.3397 31.5241 64.6801 31.6826 63.9274 31.6826C63.4512 31.6826 62.9956 31.6083 62.5598 31.4597C62.1334 31.321 61.7767 31.1277 61.4895 30.8799V34.7153H58.873V24.3244ZM63.2437 29.6462C63.7788 29.6462 64.2095 29.4876 64.5365 29.1704C64.8634 28.8534 65.027 28.4222 65.027 27.8772C65.027 27.3321 64.8634 26.906 64.5365 26.5987C64.2095 26.2816 63.7788 26.1231 63.2437 26.1231C62.8471 26.1231 62.4902 26.2272 62.1733 26.4353C61.8562 26.6334 61.628 26.906 61.4895 27.2528V28.5163C61.628 28.8633 61.8562 29.1407 62.1733 29.3488C62.4902 29.5471 62.8471 29.6462 63.2437 29.6462Z" fill="#FCFCFC"/>
<path d="M71.6189 31.6826C71.0438 31.6826 70.444 31.6232 69.8199 31.5043C69.1959 31.3953 68.6997 31.2368 68.3337 31.0287V29.111C68.7395 29.3488 69.225 29.5471 69.7901 29.7056C70.3651 29.8543 70.8903 29.9286 71.3658 29.9286C71.7127 29.9286 71.9657 29.9037 72.1242 29.8543C72.2827 29.8047 72.3616 29.7056 72.3616 29.5569C72.3616 29.438 72.3076 29.3439 72.1981 29.2746C72.0993 29.1953 71.911 29.116 71.6338 29.0366C71.3658 28.9475 71.0538 28.8534 70.697 28.7542C70.0921 28.5758 69.6166 28.3925 69.2698 28.2042C68.9229 28.0159 68.6656 27.7781 68.4971 27.4907C68.3287 27.2033 68.2441 26.8415 68.2441 26.4054C68.2441 25.6326 68.5462 25.0577 69.151 24.6812C69.7652 24.2946 70.6031 24.1014 71.6629 24.1014C72.1782 24.1014 72.7184 24.1559 73.2835 24.2649C73.8585 24.374 74.2892 24.5177 74.5771 24.696V26.5839C74.2792 26.3857 73.8833 26.2222 73.388 26.0934C72.9018 25.9646 72.4461 25.9001 72.0197 25.9001C71.6829 25.9001 71.4206 25.9347 71.2322 26.0041C71.0438 26.0636 70.9501 26.1727 70.9501 26.3312C70.9501 26.4799 71.0438 26.5938 71.2322 26.673C71.4206 26.7524 71.7575 26.8515 72.2429 26.9704C72.5599 27.0496 72.6942 27.0844 72.6444 27.0745C73.2785 27.2429 73.7689 27.4312 74.1158 27.6393C74.4626 27.8475 74.7057 28.0952 74.8443 28.3826C74.9929 28.6601 75.0675 29.0168 75.0675 29.4529C75.0675 30.1367 74.7704 30.6818 74.1755 31.088C73.5905 31.4844 72.7383 31.6826 71.6189 31.6826Z" fill="#FCFCFC"/>
<path d="M78.9745 31.6825C77.9936 31.6825 77.2552 31.41 76.7598 30.8649C76.2743 30.3198 76.0312 29.6014 76.0312 28.7095V24.3242H78.6476V28.4121C78.6476 29.2347 79.0193 29.646 79.7621 29.646C80.0996 29.646 80.4067 29.5667 80.6839 29.4081C80.9618 29.2496 81.1893 29.0166 81.3677 28.7095V24.3242H83.984V31.4595H81.4572V30.6865C81.1501 31.0136 80.7785 31.2614 80.342 31.4298C79.9063 31.5983 79.45 31.6825 78.9745 31.6825Z" fill="#FCFCFC"/>
<path d="M85.3242 24.3244H87.7472V25.0974C88.0442 24.7803 88.3862 24.5375 88.7729 24.3689C89.1594 24.1906 89.571 24.1014 90.0067 24.1014C90.5418 24.1014 90.9684 24.1807 91.2854 24.3392C91.6123 24.4978 91.8746 24.7356 92.0729 25.0528C92.37 24.7554 92.7318 24.5226 93.1582 24.3541C93.584 24.1857 94.0154 24.1014 94.4511 24.1014C95.3929 24.1014 96.0617 24.3442 96.4583 24.8297C96.8549 25.3055 97.0532 25.9942 97.0532 26.8961V31.4597H94.5555V27.2677C94.5555 26.8713 94.4809 26.5839 94.3324 26.4054C94.1839 26.2272 93.9358 26.1379 93.589 26.1379C93.1433 26.1379 92.7815 26.2966 92.5043 26.6136C92.5142 26.7821 92.5192 27.0398 92.5192 27.3866V31.4597H90.0216V27.1637C90.0216 26.7969 89.9569 26.5343 89.8282 26.3758C89.6997 26.2173 89.4715 26.1379 89.1445 26.1379C88.6391 26.1379 88.2028 26.4204 87.8367 26.9852V31.4597H85.3242V24.3244Z" fill="#FCFCFC"/>
<path d="M25.7836 25.0789L25.5805 25.1219L31.882 31.4235V48.5538H26.4891L20.1445 42.2092H25.5375V25.0788H20.1445V19.6861H25.5375V2.55566L31.882 8.90023V19.686L25.5375 19.6861V25.0788L25.7836 25.0789Z" fill="#FCFCFC"/>
<path d="M42.668 25.079L49.0125 31.4235V26.0306L42.668 19.686V25.079Z" fill="#FCFCFC"/>
<path d="M55.2812 36.3375H59.1313C60.2212 36.3375 61.0684 36.5952 61.6734 37.1106C62.2874 37.6259 62.5952 38.3889 62.5952 39.3998C62.5952 40.4205 62.2924 41.1837 61.6883 41.6892C61.0834 42.1945 60.2312 42.4472 59.1313 42.4472H56.4407V46.7284H55.2812V36.3375ZM59.0422 41.4661C59.7855 41.4661 60.3705 41.3175 60.7962 41.0201C61.2227 40.713 61.4352 40.1728 61.4352 39.3998C61.4352 38.6169 61.2227 38.0768 60.7962 37.7795C60.3705 37.4722 59.7855 37.3187 59.0422 37.3187H56.4407V41.4661H59.0422Z" fill="#FCFCFC"/>
<path d="M64.0781 35.7421H65.2225V46.7275H64.0781V35.7421Z" fill="#FCFCFC"/>
<path d="M70.1848 46.9515C69.2331 46.9515 68.4996 46.6938 67.9842 46.1784C67.4788 45.6632 67.2266 44.9744 67.2266 44.1122V39.5931H68.3709V44.1717C68.3709 45.4204 69.0198 46.0447 70.3183 46.0447C70.8636 46.0447 71.339 45.9258 71.7456 45.688C72.1614 45.45 72.5331 45.0735 72.8601 44.5582V39.5931H74.0052V46.7285H72.89V45.6582C72.246 46.5204 71.344 46.9515 70.1848 46.9515Z" fill="#FCFCFC"/>
<path d="M78.5688 46.9509C78.1026 46.9509 77.6022 46.8815 77.067 46.7428C76.5318 46.6139 76.116 46.4505 75.8182 46.2522V45.286C76.1949 45.514 76.6263 45.6972 77.1118 45.8359C77.6071 45.9748 78.0826 46.0441 78.5389 46.0441C79.1531 46.0441 79.5944 45.9598 79.8617 45.7914C80.1396 45.613 80.2782 45.3504 80.2782 45.0036C80.2782 44.736 80.2185 44.5279 80.0998 44.3792C79.9804 44.2206 79.7828 44.0819 79.5049 43.963C79.2277 43.844 78.7963 43.7053 78.212 43.5468C77.6371 43.3882 77.1765 43.2247 76.8295 43.0562C76.4927 42.8778 76.2346 42.6548 76.0563 42.3872C75.8779 42.1197 75.7891 41.7778 75.7891 41.3616C75.7891 40.7174 76.0463 40.2268 76.5616 39.8899C77.0869 39.543 77.7806 39.3696 78.6428 39.3696C79.1083 39.3696 79.5447 39.4142 79.9513 39.5033C80.3671 39.5826 80.7139 39.6966 80.9919 39.8454V40.8115C80.7039 40.653 80.3571 40.5291 79.9513 40.4399C79.5447 40.3408 79.1232 40.2912 78.6876 40.2912C78.1125 40.2912 77.6768 40.3755 77.379 40.5439C77.0819 40.7125 76.9334 40.985 76.9334 41.3616C76.9334 41.6192 76.9831 41.8174 77.0819 41.9562C77.1914 42.0949 77.384 42.2238 77.6619 42.3426C77.949 42.4517 78.4053 42.5904 79.0294 42.7589C79.9214 43.0067 80.5405 43.299 80.8873 43.636C81.2441 43.963 81.4225 44.4189 81.4225 45.0036C81.4225 45.608 81.1851 46.0837 80.7089 46.4306C80.2434 46.7775 79.5297 46.9509 78.5688 46.9509Z" fill="#FCFCFC"/>
</svg>
