<svg width="30" height="30" viewBox="0 0 30 30" fill="none" xmlns="http://www.w3.org/2000/svg">
<path d="M13.0156 3C7.49271 3 3 7.49271 3 13.0156C3 18.5385 7.49271 23.0312 13.0156 23.0312C14.7612 23.0312 16.4209 22.5733 17.8517 21.7721C17.9276 21.9027 18.0137 22.0271 18.1092 22.1441L20.9708 25.0915C21.2351 25.3889 21.5573 25.629 21.9177 25.7973C22.2781 25.9656 22.6691 26.0585 23.0667 26.0702C23.4643 26.0819 23.8601 26.0122 24.2298 25.8654C24.5995 25.7186 24.9353 25.4978 25.2165 25.2165C25.4978 24.9353 25.7186 24.5995 25.8654 24.2298C26.0122 23.8601 26.0819 23.4643 26.0702 23.0667C26.0585 22.6691 25.9656 22.2781 25.7973 21.9177C25.629 21.5573 25.3889 21.2351 25.0915 20.9708L22.1441 18.1092C22.0271 18.0137 21.9027 17.9276 21.7721 17.8517C22.5447 16.4209 23.0312 14.7612 23.0312 13.0156C23.0312 7.49271 18.5385 3 13.0156 3ZM13.0156 5.8616C16.9932 5.8616 20.1696 9.03797 20.1696 13.0156C20.1696 14.7039 19.5973 16.2778 18.6529 17.4797L18.5671 17.5655C18.5089 17.5922 18.352 17.8212 18.2957 17.8517C18.0461 17.9872 17.9328 18.24 17.68 18.4526C16.4209 19.5114 14.7898 20.141 13.0156 20.141C9.03797 20.141 5.8616 16.9646 5.8616 12.987C5.8616 9.00936 9.03797 5.83298 13.0156 5.83298V5.8616Z" fill="#263961"/>
</svg>
