<svg width="30" height="30" viewBox="0 0 30 30" fill="none" xmlns="http://www.w3.org/2000/svg">
<path d="M22.3915 6.28691L15.0003 13.6782L7.60901 6.28691C7.43124 6.12423 7.19756 6.03642 6.95665 6.04176C6.71574 6.04709 6.48618 6.14517 6.31579 6.31557C6.1454 6.48596 6.04732 6.71552 6.04198 6.95643C6.03665 7.19734 6.12446 7.43102 6.28714 7.60879L13.6746 15L6.28526 22.3894C6.19499 22.4754 6.12282 22.5787 6.07301 22.693C6.02319 22.8073 5.99673 22.9304 5.99519 23.0551C5.99364 23.1798 6.01704 23.3036 6.06401 23.4191C6.11098 23.5346 6.18057 23.6396 6.26869 23.7278C6.35681 23.8161 6.46168 23.8858 6.57713 23.933C6.69259 23.9801 6.8163 24.0037 6.941 24.0023C7.0657 24.0009 7.18887 23.9746 7.30327 23.925C7.41766 23.8753 7.52098 23.8033 7.60714 23.7132L15.0003 16.3238L22.3915 23.715C22.5693 23.8777 22.803 23.9655 23.0439 23.9602C23.2848 23.9549 23.5143 23.8568 23.6847 23.6864C23.8551 23.516 23.9532 23.2864 23.9585 23.0455C23.9639 22.8046 23.8761 22.5709 23.7134 22.3932L16.3221 15.0019L23.7134 7.60879C23.8037 7.52275 23.8758 7.41954 23.9256 7.30521C23.9755 7.19089 24.0019 7.06776 24.0035 6.94306C24.005 6.81836 23.9816 6.69462 23.9346 6.57909C23.8877 6.46357 23.8181 6.3586 23.73 6.27036C23.6418 6.18211 23.537 6.11238 23.4215 6.06524C23.3061 6.01811 23.1823 5.99454 23.0576 5.99591C22.9329 5.99727 22.8098 6.02356 22.6954 6.07321C22.581 6.12286 22.4777 6.19488 22.3915 6.28504V6.28691Z" fill="#263961"/>
</svg>
