<svg width="375" height="625" viewBox="0 0 375 625" fill="none" xmlns="http://www.w3.org/2000/svg">
<path fill-rule="evenodd" clip-rule="evenodd" d="M385.014 116.739L78.2489 608.181C60.5248 636.575 15.503 621.362 19.7104 588.399L78.0469 131.353L-180.512 588.462C-188.535 602.646 -206.864 607.82 -221.452 600.019C-236.039 592.218 -241.36 574.396 -233.337 560.212L47.2373 64.1818C52.8072 54.3347 63.4485 48.2174 75.0046 48.2174H113.543C132.593 48.2174 147.337 64.4435 144.991 82.8253L95.9818 466.794L377.483 15.8254C383.228 6.62044 393.499 1 404.573 1H442.791C464.236 1 479.487 21.2776 472.991 41.1474L472.991 41.1487L343.034 438.608L543.776 173.666C549.749 165.782 559.22 161.129 569.29 161.129H616.158C636.926 161.129 652.079 180.226 646.812 199.757L553.697 545.027H555.373L822.163 265.945C833.497 254.089 852.571 253.411 864.764 264.432C876.958 275.453 877.655 293.998 866.321 305.855L591.049 593.809C585.05 600.086 576.638 603.647 567.835 603.647H516.633C495.867 603.647 480.712 584.55 485.98 565.018L576.526 229.272L288.793 609.025C267.53 637.087 222.217 614.636 233.08 581.413L385.014 116.739Z" stroke="#D0F1F5" stroke-width="2" stroke-linecap="round"/>
</svg>
