<svg width="375" height="566" viewBox="0 0 375 566" fill="none" xmlns="http://www.w3.org/2000/svg">
<path fill-rule="evenodd" clip-rule="evenodd" d="M347.52 -236.025L-211.937 659.803L-258.932 632.082L-211.937 659.803C-244.261 711.561 -326.368 683.829 -318.695 623.742L-212.305 -209.386L-683.847 623.857C-698.478 649.712 -731.905 659.144 -758.509 644.924C-785.112 630.704 -794.817 598.217 -780.185 572.362L-268.493 -331.829C-268.493 -331.829 -268.493 -331.83 -268.493 -331.83C-258.335 -349.78 -238.929 -360.929 -217.853 -360.929H-147.571C-112.828 -360.929 -85.9388 -331.352 -90.2175 -297.844L-179.597 402.074L333.784 -419.976C344.263 -436.755 362.994 -447 383.189 -447H452.888C491.998 -447 519.812 -410.037 507.966 -373.817L507.965 -373.815L270.959 350.695L637.058 -132.256C647.951 -146.626 665.223 -155.109 683.588 -155.109H769.064C806.937 -155.109 834.573 -120.297 824.967 -84.6943L655.151 544.682H658.208L1144.76 35.9564C1165.43 14.3438 1200.22 13.1088 1222.45 33.198C1244.69 53.2872 1245.96 87.0932 1225.29 108.706L723.271 633.604C712.331 645.046 696.99 651.537 680.935 651.537H587.557C549.685 651.537 522.047 616.727 531.654 581.123L696.785 -30.8929L172.039 661.34L172.039 661.341C133.261 712.494 50.6215 671.569 70.4333 611.008L347.52 -236.025ZM-172.154 -280.336C-172.154 -280.335 -172.154 -280.335 -172.154 -280.335Z" stroke="#B06ECB" stroke-width="2" stroke-linecap="round"/>
</svg>
