<svg width="305" height="151" viewBox="0 0 305 151" fill="none" xmlns="http://www.w3.org/2000/svg">
<g clip-path="url(#clip0_291_2401)">
<path d="M433.464 103.616L316.715 209.062C316.527 209.231 316.258 209.277 316.025 209.178L308.079 205.816C307.723 205.666 307.576 205.24 307.763 204.902L378.737 76.5164C379.086 75.8859 378.304 75.24 377.751 75.7018L239.467 191.157C239.28 191.313 239.021 191.352 238.796 191.257L230.951 187.937C230.556 187.77 230.428 187.275 230.691 186.937L331.83 57.51C332.291 56.9202 331.555 56.1462 330.943 56.5766L221.441 133.541C221.257 133.67 221.019 133.695 220.813 133.607L211.054 129.478C210.67 129.316 210.536 128.84 210.777 128.501L275.488 37.6335C275.73 37.2943 275.595 36.8186 275.212 36.6564L264.489 32.1194C264.305 32.0416 264.096 32.0525 263.921 32.1487L171.662 82.9794" stroke="#B06ECB" stroke-width="29.9441" stroke-linecap="round"/>
</g>
<defs>
<clipPath id="clip0_291_2401">
<path d="M0 0H305V141C305 146.523 300.523 151 295 151H10C4.47716 151 0 146.523 0 141V0Z" fill="white"/>
</clipPath>
</defs>
</svg>
