<svg width="295" height="342" viewBox="0 0 295 342" fill="none" xmlns="http://www.w3.org/2000/svg">
<g clip-path="url(#clip0_287_1561)">
<path d="M366.214 70.8674L363.4 188.811L469.056 136.319L407.648 237.055L525.395 244.424L421.846 300.959L520.133 366.214L402.189 363.4L454.681 469.056L353.946 407.648L346.577 525.394L290.042 421.846L224.787 520.133L227.6 402.189L121.944 454.681L183.352 353.946L65.6057 346.577L169.154 290.042L70.8675 224.786L188.811 227.6L136.319 121.944L237.055 183.352L244.424 65.6057L300.959 169.154L366.214 70.8674Z" fill="#BE9ACD"/>
<path d="M335.828 167.394L334.223 234.656L394.478 204.721L359.457 262.169L426.607 266.372L367.554 298.613L423.607 335.828L356.344 334.223L386.28 394.478L328.831 359.457L324.629 426.607L292.387 367.554L255.173 423.606L256.778 356.344L196.523 386.28L231.543 328.831L164.394 324.629L223.447 292.387L167.394 255.173L234.656 256.777L204.721 196.523L262.169 231.543L266.372 164.393L298.613 223.446L335.828 167.394Z" fill="#F5DEEA"/>
<path d="M316.695 228.17L315.852 263.522L347.521 247.788L329.115 277.982L364.407 280.191L333.37 297.136L362.83 316.695L327.479 315.852L343.212 347.521L313.018 329.115L310.81 364.407L293.864 333.37L274.305 362.83L275.148 327.479L243.479 343.212L261.886 313.018L226.593 310.81L257.63 293.864L228.17 274.305L263.522 275.148L247.788 243.479L277.982 261.886L280.191 226.593L297.136 257.63L316.695 228.17Z" fill="#2467BC"/>
</g>
<defs>
<clipPath id="clip0_287_1561">
<rect width="295" height="342" fill="white"/>
</clipPath>
</defs>
</svg>
