<svg width="1260" height="371" viewBox="0 0 1260 371" fill="none" xmlns="http://www.w3.org/2000/svg">
<rect x="-10" y="10" width="133.042" height="424.143" rx="66.5211" transform="matrix(-1 0 0 1 129.117 146.672)" fill="#F5DEEA" stroke="#F9E8F1" stroke-width="20"/>
<rect x="10" y="-10" width="133.042" height="424.143" rx="66.5211" transform="matrix(1 0 0 -1 1192.88 220.865)" fill="#F5DEEA" stroke="#F9E8F1" stroke-width="20"/>
<rect x="-10" y="10" width="133" height="608" rx="66.5" transform="matrix(-1 0 0 1 642 37.5371)" fill="#F5DEEA" stroke="#F9E8F1" stroke-width="20"/>
<rect x="10" y="-10" width="133" height="608" rx="66.5" transform="matrix(1 0 0 -1 680 330)" fill="#F5DEEA" stroke="#F9E8F1" stroke-width="20"/>
<rect x="-10" y="10" width="133.042" height="424.143" rx="66.5211" transform="matrix(-1 0 0 1 301 35.5371)" fill="#F5DEEA" stroke="#F9E8F1" stroke-width="20"/>
<rect x="10" y="-10" width="133.042" height="424.143" rx="66.5211" transform="matrix(1 0 0 -1 1021 332)" fill="#F5DEEA" stroke="#F9E8F1" stroke-width="20"/>
<rect x="-10" y="10" width="133.042" height="424.143" rx="66.5211" transform="matrix(-1 0 0 1 471.043 -127.463)" fill="#F5DEEA" stroke="#F9E8F1" stroke-width="20"/>
<rect x="10" y="-10" width="133.042" height="424.143" rx="66.5211" transform="matrix(1 0 0 -1 850.957 495)" fill="#F5DEEA" stroke="#F9E8F1" stroke-width="20"/>
<path d="M120.117 -569.704C120.117 -643.272 63.0846 -703.52 -9.17915 -708.647V136.458C63.0846 131.332 120.117 71.0842 120.117 -2.48462V-569.704Z" fill="#F5DEEA" stroke="#F9E8F1" stroke-width="20"/>
</svg>
