<svg width="1440" height="768" viewBox="0 0 1440 768" fill="none" xmlns="http://www.w3.org/2000/svg">
<path d="M-73 666.196V594.244C-73 586.814 -63.7534 583.398 -58.9221 589.043L18.4477 679.442C23.279 685.087 32.5256 681.67 32.5256 674.24V592.976C32.5256 585.704 41.4432 582.204 46.3898 587.535L138.549 686.85C142.491 691.098 149.501 689.876 151.773 684.545L161.014 662.86C164.428 654.848 176.374 657.288 176.374 665.996V754.738C176.374 761.858 184.976 765.43 190.02 760.405L297.6 653.229C303.712 647.14 313.563 650.949 318.161 658.248C319.732 660.742 321.695 663.39 324.109 666.196C342.463 687.529 380.404 609.816 402.298 555.721C404.935 549.204 414.136 548.836 417.194 555.165L469.971 664.418C473.669 672.073 485.175 669.44 485.175 660.939V565.009C485.175 557.076 495.478 553.98 499.85 560.6L565.489 659.98C567.803 663.482 572.43 664.601 576.088 662.542L680.415 603.834C685.748 600.833 692.338 604.686 692.338 610.806V648.696C692.338 655.548 700.39 659.23 705.572 654.746L837.25 540.824C839.04 539.275 841.424 538.599 843.761 538.977L1029.92 569.075C1037.3 570.268 1042.14 561.586 1037.24 555.937L1003.09 516.551C997.482 510.084 1004.58 500.517 1012.39 504.004L1070.79 530.059C1077.44 533.024 1084.27 526.295 1081.41 519.604L1048.41 442.536C1044.89 434.31 1055.47 427.388 1061.6 433.91L1297.26 684.831C1303.58 691.557 1314.38 684.011 1310.24 675.764L1231.02 517.968C1227.28 510.522 1235.99 503.034 1242.79 507.85L1313.13 557.681C1320.88 563.166 1330.03 552.999 1323.77 545.872L1153.38 352.005C1147.84 345.708 1154.49 336.22 1162.3 339.273L1386.03 426.753C1394.49 430.06 1401.04 418.952 1394.05 413.149L1106.48 174.252C1100.72 169.467 1104.11 160.099 1111.6 160.099H1394.32C1403.92 160.099 1405.38 146.285 1395.99 144.276L1256.46 114.402C1247.88 112.565 1248.09 100.249 1256.73 98.704L1456.79 62.9297C1465.15 61.4353 1465.73 49.6672 1457.56 47.3566L1202.72 -24.7198C1195.2 -26.8483 1194.88 -37.399 1202.27 -39.9724L1414.97 -114.083C1421.54 -116.373 1422.25 -125.381 1416.13 -128.681L1267.9 -208.521C1261.5 -211.969 1262.64 -221.479 1269.68 -223.307L1341.45 -241.953C1343.98 -242.609 1346.67 -241.991 1348.66 -240.297L1432.13 -169.123" stroke="#B9E6EC" stroke-width="9"/>
</svg>
