<svg width="162" height="151" viewBox="0 0 162 151" fill="none" xmlns="http://www.w3.org/2000/svg">
<g clip-path="url(#clip0_291_2380)">
<path d="M134.837 7.35168C138.763 3.32281 145.237 3.32282 149.163 7.35168L228.77 89.0605C229.933 90.2545 230.779 91.7205 231.232 93.325L262.19 203.121C263.717 208.535 260.479 214.142 255.028 215.527L144.462 243.615C142.846 244.025 141.154 244.025 139.538 243.615L28.9724 215.527C23.5207 214.142 20.2834 208.535 21.8098 203.121L52.7682 93.325C53.2206 91.7205 54.067 90.2545 55.2303 89.0605L134.837 7.35168Z" fill="#B06ECB"/>
</g>
<defs>
<clipPath id="clip0_291_2380">
<path d="M0 0H162V141C162 146.523 157.523 151 152 151H0V0Z" fill="white"/>
</clipPath>
</defs>
</svg>
