<svg width="1280" height="231" viewBox="0 0 1280 231" fill="none" xmlns="http://www.w3.org/2000/svg">
<path fill-rule="evenodd" clip-rule="evenodd" d="M424.726 -116.386L1020.07 837.357L1070.08 807.844L1020.07 837.357C1054.46 892.461 1141.84 862.937 1133.67 798.965L1020.46 -88.0244L1522.24 799.087C1537.81 826.614 1573.39 836.655 1601.69 821.516C1630 806.377 1640.33 771.789 1624.76 744.263L1080.25 -218.383C1080.25 -218.383 1080.25 -218.384 1080.25 -218.384C1069.44 -237.494 1048.79 -249.365 1026.36 -249.365H951.572C914.601 -249.365 885.987 -217.875 890.54 -182.202L985.652 562.966L439.343 -312.228C428.192 -330.092 408.26 -341 386.769 -341H312.599C270.981 -341 241.383 -301.647 253.989 -263.086L253.99 -263.083L506.198 508.265L116.617 -5.90751C105.025 -21.2067 86.6453 -30.2381 67.1023 -30.2381H-23.8553C-64.1583 -30.2381 -93.5662 6.82442 -83.344 44.7285L97.3632 714.794H94.1108L-423.649 173.179C-445.645 150.169 -482.661 148.855 -506.325 170.243C-529.99 191.63 -531.342 227.622 -509.346 250.632L24.8743 809.464C36.5161 821.646 52.8412 828.557 69.9257 828.557H169.293C209.594 828.557 239.005 791.496 228.782 753.59L53.0592 102.008L611.462 838.994L611.463 838.995C652.728 893.455 740.667 849.884 719.585 785.407L424.726 -116.386ZM977.731 -163.561C977.732 -163.561 977.732 -163.56 977.732 -163.56Z" stroke="#2F72C6" stroke-width="9" stroke-linecap="round"/>
</svg>
