<svg width="558" height="274" viewBox="0 0 558 274" fill="none" xmlns="http://www.w3.org/2000/svg">
<g clip-path="url(#clip0_291_1798)">
<path fill-rule="evenodd" clip-rule="evenodd" d="M339.344 255.697L461.789 153.465C486.833 132.556 522.257 161.799 506.473 190.35L428.832 330.794L566.066 206.846C577.642 196.391 595.503 197.299 605.959 208.876C616.415 220.453 615.507 238.313 603.93 248.769L383.677 447.699C375.173 455.379 362.989 457.434 352.436 452.969L337.446 446.627C321.333 439.809 314.672 420.536 323.137 405.223L387.208 289.326L237.116 414.641C228.637 421.719 216.913 423.464 206.741 419.16L191.94 412.898C174.078 405.34 168.259 382.888 180.201 367.606L258.978 266.795L201.247 307.371C192.927 313.219 182.18 314.365 172.814 310.402L154.404 302.612C137.04 295.265 130.944 273.729 141.881 258.371L218.325 151.028L104.726 213.616C91.0634 221.144 73.8849 216.17 66.3572 202.507C58.8295 188.844 63.8031 171.665 77.4662 164.138L251.517 68.2431C259.43 63.8835 268.905 63.3937 277.225 66.9141L297.454 75.4733C314.818 82.8202 320.914 104.356 309.977 119.714L249.825 204.18L375.344 115.958C403.073 96.4685 436.385 131.513 415.516 158.219L339.344 255.697Z" stroke="#DCF2F4" stroke-width="2" stroke-linecap="round"/>
</g>
<defs>
<clipPath id="clip0_291_1798">
<rect width="558" height="274" fill="white"/>
</clipPath>
</defs>
</svg>
