<svg width="1440" height="860" viewBox="0 0 1440 860" fill="none" xmlns="http://www.w3.org/2000/svg">
<g clip-path="url(#clip0_291_3104)">
<path d="M-73 746.196V674.244C-73 666.814 -63.7534 663.398 -58.9221 669.043L18.4477 759.442C23.279 765.087 32.5256 761.67 32.5256 754.24V672.976C32.5256 665.704 41.4432 662.204 46.3898 667.535L138.549 766.85C142.491 771.098 149.501 769.876 151.773 764.545L161.014 742.86C164.428 734.848 176.374 737.288 176.374 745.996V834.738C176.374 841.858 184.976 845.43 190.02 840.405L297.6 733.229C303.712 727.14 313.563 730.949 318.161 738.248C319.732 740.742 321.695 743.39 324.109 746.196C342.463 767.529 380.404 689.816 402.298 635.721C404.935 629.204 414.136 628.836 417.194 635.165L469.971 744.418C473.669 752.073 485.175 749.44 485.175 740.939V645.009C485.175 637.076 495.478 633.98 499.85 640.6L565.489 739.98C567.803 743.482 572.43 744.601 576.088 742.542L680.415 683.834C685.748 680.833 692.338 684.686 692.338 690.806V728.696C692.338 735.548 700.39 739.23 705.572 734.746L837.25 620.824C839.04 619.275 841.424 618.599 843.761 618.977L1029.92 649.075C1037.3 650.268 1042.14 641.586 1037.24 635.937L1003.09 596.551C997.482 590.084 1004.58 580.517 1012.39 584.004L1070.79 610.059C1077.44 613.024 1084.27 606.295 1081.41 599.604L1048.41 522.536C1044.89 514.31 1055.47 507.388 1061.6 513.91L1297.26 764.831C1303.58 771.557 1314.38 764.011 1310.24 755.764L1231.02 597.968C1227.28 590.522 1235.99 583.034 1242.79 587.85L1313.13 637.681C1320.88 643.166 1330.03 632.999 1323.77 625.872L1153.38 432.005C1147.84 425.708 1154.49 416.22 1162.3 419.273L1386.03 506.753C1394.49 510.06 1401.04 498.952 1394.05 493.149L1106.48 254.252C1100.72 249.467 1104.11 240.099 1111.6 240.099H1394.32C1403.92 240.099 1405.38 226.285 1395.99 224.276L1256.46 194.402C1247.88 192.565 1248.09 180.249 1256.73 178.704L1456.79 142.93C1465.15 141.435 1465.73 129.667 1457.56 127.357L1202.72 55.2802C1195.2 53.1517 1194.88 42.601 1202.27 40.0276L1414.97 -34.0828C1421.54 -36.3725 1422.25 -45.3807 1416.13 -48.6807L1267.9 -128.521C1261.5 -131.969 1262.64 -141.479 1269.68 -143.307L1341.45 -161.953C1343.98 -162.609 1346.67 -161.991 1348.66 -160.297L1432.13 -89.1231" stroke="#FCFCFC" stroke-width="9"/>
<path d="M1260.9 308.892L1105.49 443.425C1105.31 443.582 1105.06 443.622 1104.84 443.528L1093.57 438.763C1093.23 438.617 1093.09 438.204 1093.27 437.877L1186.76 271.038C1187.1 270.436 1186.36 269.809 1185.82 270.239L1000.49 418.091C1000.31 418.234 1000.06 418.268 999.849 418.178L988.689 413.456C988.305 413.294 988.183 412.809 988.444 412.484L1123.17 244.928C1123.62 244.368 1122.93 243.613 1122.33 244.012L974.606 342.512C974.43 342.63 974.207 342.651 974.013 342.568L960.268 336.752C959.895 336.595 959.766 336.13 960.005 335.803L1045.55 218.613C1045.79 218.286 1045.66 217.821 1045.29 217.663L1030.24 211.298C1030.07 211.225 1029.88 211.233 1029.71 211.319L906.048 275.253" stroke="#BE9ACD" stroke-width="30" stroke-linecap="round"/>
<rect x="1222.75" y="565.62" width="99.8712" height="99.8712" rx="10" transform="rotate(-45 1222.75 565.62)" fill="#2467BC"/>
</g>
<defs>
<clipPath id="clip0_291_3104">
<rect width="1440" height="860" fill="white"/>
</clipPath>
</defs>
</svg>
