<svg width="630" height="381" viewBox="0 0 630 381" fill="none" xmlns="http://www.w3.org/2000/svg">
<g clip-path="url(#clip0_291_1878)">
<rect x="-0.5" y="0.5" width="152.042" height="443.143" rx="76.0211" transform="matrix(-1 0 0 1 142.117 261.138)" fill="#B9E6EC" stroke="white"/>
<rect x="-0.5" y="0.5" width="152" height="627" rx="76" transform="matrix(-1 0 0 1 629 154.003)" fill="#B9E6EC" stroke="white"/>
<rect x="-0.5" y="0.5" width="152.042" height="443.143" rx="76.0211" transform="matrix(-1 0 0 1 304 92.0029)" fill="#B9E6EC" stroke="white"/>
<rect x="-0.5" y="0.5" width="152.042" height="443.143" rx="76.0211" transform="matrix(-1 0 0 1 466.043 -100.997)" fill="#B9E6EC" stroke="white"/>
<path d="M142.617 -453.237C142.617 -535.249 76.2688 -601.763 -5.67915 -602.033V262.777C76.2688 262.508 142.617 195.993 142.617 113.982V-453.237Z" fill="#B9E6EC" stroke="white"/>
</g>
<defs>
<clipPath id="clip0_291_1878">
<rect width="630" height="380" rx="10" transform="matrix(-1 0 0 1 630 0.00292969)" fill="white"/>
</clipPath>
</defs>
</svg>
