<svg width="531" height="422" viewBox="0 0 531 422" fill="none" xmlns="http://www.w3.org/2000/svg">
<g clip-path="url(#clip0_291_2143)">
<path d="M16 467.069L225.005 86.8401C225.532 85.8811 226.539 85.2852 227.634 85.2852H253.233C255.036 85.2852 256.432 86.8648 256.21 88.6545L208.649 472.095C208.251 475.305 212.514 476.786 214.192 474.02L471.134 50.4441C471.678 49.5475 472.65 49 473.699 49H498.678C500.708 49 502.152 50.9739 501.537 52.9085L369.431 468.67C368.403 471.905 372.693 474.091 374.706 471.358L594.186 173.275C594.752 172.508 595.648 172.054 596.602 172.054H628.278C630.244 172.054 631.679 173.913 631.18 175.815L555.835 463.308C555.336 465.21 556.771 467.069 558.737 467.069H593.778C594.612 467.069 595.408 466.721 595.976 466.11L801 245.413" stroke="#B06ECB" stroke-width="67" stroke-linecap="round"/>
</g>
<defs>
<clipPath id="clip0_291_2143">
<rect width="531" height="422" fill="white"/>
</clipPath>
</defs>
</svg>
