<svg width="303" height="151" viewBox="0 0 303 151" fill="none" xmlns="http://www.w3.org/2000/svg">
<g clip-path="url(#clip0_291_1836)">
<path d="M280.224 6.76712C281.242 4.28504 284.758 4.28504 285.776 6.76712L302.207 46.8275C302.994 48.7475 305.447 49.3072 306.989 47.919L339.175 18.9551C341.169 17.1605 344.336 18.6857 344.176 21.3637L341.598 64.586C341.475 66.6576 343.442 68.2259 345.434 67.6445L386.999 55.5136C389.574 54.762 391.766 57.5102 390.46 59.8537L369.384 97.6773C368.374 99.4902 369.465 101.756 371.512 102.097L414.225 109.202C416.871 109.642 417.653 113.069 415.46 114.614L380.06 139.547C378.364 140.742 378.364 143.258 380.06 144.453L415.46 169.386C417.653 170.931 416.871 174.358 414.225 174.798L371.512 181.903C369.465 182.244 368.374 184.51 369.384 186.323L390.46 224.146C391.766 226.49 389.574 229.238 386.999 228.486L345.434 216.356C343.442 215.774 341.475 217.342 341.598 219.414L344.176 262.636C344.336 265.314 341.169 266.839 339.175 265.045L306.989 236.081C305.447 234.693 302.994 235.253 302.207 237.173L285.776 277.233C284.758 279.715 281.242 279.715 280.224 277.233L263.793 237.173C263.006 235.253 260.553 234.693 259.011 236.081L226.825 265.045C224.831 266.839 221.664 265.314 221.824 262.636L224.402 219.414C224.525 217.342 222.558 215.774 220.566 216.356L179.001 228.486C176.426 229.238 174.234 226.49 175.54 224.146L196.616 186.323C197.626 184.51 196.535 182.244 194.488 181.903L151.775 174.798C149.129 174.358 148.347 170.931 150.54 169.386L185.94 144.453C187.636 143.258 187.636 140.742 185.94 139.547L150.54 114.614C148.347 113.069 149.129 109.642 151.775 109.202L194.488 102.097C196.535 101.756 197.626 99.4902 196.616 97.6773L175.54 59.8537C174.234 57.5102 176.426 54.762 179.001 55.5136L220.566 67.6445C222.558 68.2259 224.525 66.6576 224.402 64.586L221.824 21.3637C221.664 18.6857 224.831 17.1605 226.825 18.9551L259.011 47.919C260.553 49.3072 263.006 48.7475 263.793 46.8275L280.224 6.76712Z" fill="#DCF2F4"/>
</g>
<defs>
<clipPath id="clip0_291_1836">
<path d="M0 0H303V141C303 146.523 298.523 151 293 151H10C4.47716 151 0 146.523 0 141V0Z" fill="white"/>
</clipPath>
</defs>
</svg>
