<svg width="633" height="800" viewBox="0 0 633 800" fill="none" xmlns="http://www.w3.org/2000/svg">
<g clip-path="url(#clip0_291_2122)">
<rect x="-1" y="1" width="151.042" height="442.143" rx="75.5211" transform="matrix(-1 0 0 1 144.117 208.932)" fill="#F5DEEA" stroke="white" stroke-width="2"/>
<rect x="-1" y="1" width="151" height="626" rx="75.5" transform="matrix(-1 0 0 1 631 101.797)" fill="#F5DEEA" stroke="white" stroke-width="2"/>
<rect x="-1" y="1" width="151.042" height="442.143" rx="75.5211" transform="matrix(-1 0 0 1 306 498.963)" fill="#F5DEEA" stroke="white" stroke-width="2"/>
<rect x="-1" y="1" width="151.042" height="442.143" rx="75.5211" transform="matrix(-1 0 0 1 306 39.7971)" fill="#F5DEEA" stroke="white" stroke-width="2"/>
<rect x="-1" y="1" width="151.042" height="442.143" rx="75.5211" transform="matrix(-1 0 0 1 468.043 -153.203)" fill="#F5DEEA" stroke="white" stroke-width="2"/>
<path d="M145.117 -505.443C145.117 -587.011 79.2624 -653.198 -2.17915 -653.736V210.069C79.2624 209.531 145.117 143.344 145.117 61.7759V-505.443Z" fill="#F5DEEA" stroke="white" stroke-width="2"/>
</g>
<defs>
<clipPath id="clip0_291_2122">
<rect width="633" height="799" fill="white" transform="matrix(-1 0 0 1 633 0.797119)"/>
</clipPath>
</defs>
</svg>
