<svg width="1440" height="563" viewBox="0 0 1440 563" fill="none" xmlns="http://www.w3.org/2000/svg">
<path fill-rule="evenodd" clip-rule="evenodd" d="M888.287 -224.386L292.948 729.357L242.938 699.844L292.948 729.357C258.55 784.461 171.177 754.937 179.342 690.965L292.556 -196.024L-209.23 691.087C-224.8 718.614 -260.372 728.655 -288.681 713.516C-316.991 698.377 -327.318 663.789 -311.748 636.263L232.763 -326.383C232.764 -326.383 232.764 -326.384 232.764 -326.384C243.574 -345.494 264.225 -357.365 286.652 -357.365H361.442C398.413 -357.365 427.027 -325.875 422.474 -290.202L327.362 454.966L873.671 -420.228C884.822 -438.092 904.754 -449 926.245 -449H1000.41C1042.03 -449 1071.63 -409.647 1059.02 -371.086L1059.02 -371.083L806.816 400.265L1196.4 -113.908C1207.99 -129.207 1226.37 -138.238 1245.91 -138.238H1336.87C1377.17 -138.238 1406.58 -101.176 1396.36 -63.2715L1215.65 606.794H1218.9L1736.66 65.1792C1758.66 42.1694 1795.67 40.8546 1819.34 62.2425C1843 83.6304 1844.36 119.622 1822.36 142.632L1288.14 701.464C1276.5 713.646 1260.17 720.557 1243.09 720.557H1143.72C1103.42 720.557 1074.01 683.496 1084.23 645.59L1259.95 -5.99188L701.552 730.994L701.551 730.995C660.286 785.455 572.346 741.884 593.429 677.407L888.287 -224.386ZM335.282 -271.561C335.282 -271.561 335.282 -271.56 335.282 -271.56Z" stroke="#B06ECB" stroke-width="2" stroke-linecap="round"/>
</svg>
