<svg width="1440" height="694" viewBox="0 0 1440 694" fill="none" xmlns="http://www.w3.org/2000/svg">
<path opacity="0.2" fill-rule="evenodd" clip-rule="evenodd" d="M1104.29 -57.7782L508.948 863.8L458.938 835.282L508.948 863.801C474.55 917.046 387.177 888.518 395.342 826.703L508.556 -30.3731L6.76966 826.821C-8.80033 853.419 -44.3717 863.122 -72.6811 848.494C-100.991 833.865 -111.318 800.444 -95.7479 773.846L448.763 -156.336C448.764 -156.336 448.764 -156.336 448.764 -156.337C459.574 -174.802 480.225 -186.273 502.652 -186.273H577.442C614.413 -186.273 643.027 -155.845 638.474 -121.374L543.362 598.663L1089.67 -247.016C1100.82 -264.278 1120.75 -274.817 1142.24 -274.817H1216.41C1258.03 -274.817 1287.63 -236.792 1275.02 -199.531L1275.02 -199.528L1022.82 545.807L1412.4 48.9745C1423.99 34.1912 1442.37 25.4644 1461.91 25.4644H1552.87C1593.17 25.4644 1622.58 61.277 1612.36 97.9028L1431.65 745.37H1434.9L1952.66 222.022C1974.66 199.788 2011.67 198.517 2035.34 219.184C2059 239.851 2060.36 274.628 2038.36 296.862L1504.14 836.849C1492.5 848.619 1476.17 855.297 1459.09 855.297H1359.72C1319.42 855.297 1290.01 819.486 1300.23 782.859L1475.95 153.251L917.552 865.382L917.551 865.383C876.286 918.006 788.346 875.904 809.429 813.602L1104.29 -57.7782ZM551.282 -103.362C551.282 -103.362 551.282 -103.362 551.282 -103.361Z" stroke="white" stroke-width="2" stroke-linecap="round"/>
</svg>
