<svg width="303" height="151" viewBox="0 0 303 151" fill="none" xmlns="http://www.w3.org/2000/svg">
<g clip-path="url(#clip0_291_1829)">
<path d="M275.837 7.35168C279.763 3.32281 286.237 3.32282 290.163 7.35168L369.77 89.0605C370.933 90.2545 371.779 91.7205 372.232 93.325L403.19 203.121C404.717 208.535 401.479 214.142 396.028 215.527L285.462 243.615C283.846 244.025 282.154 244.025 280.538 243.615L169.972 215.527C164.521 214.142 161.283 208.535 162.81 203.121L193.768 93.325C194.221 91.7205 195.067 90.2545 196.23 89.0605L275.837 7.35168Z" fill="#7197D1"/>
</g>
<defs>
<clipPath id="clip0_291_1829">
<path d="M0 0H303V141C303 146.523 298.523 151 293 151H10C4.47716 151 0 146.523 0 141V0Z" fill="white"/>
</clipPath>
</defs>
</svg>
