<svg width="162" height="151" viewBox="0 0 162 151" fill="none" xmlns="http://www.w3.org/2000/svg">
<g clip-path="url(#clip0_291_2387)">
<path d="M139.224 6.76712C140.242 4.28504 143.758 4.28504 144.776 6.76712L161.207 46.8275C161.994 48.7475 164.447 49.3072 165.989 47.919L198.175 18.9551C200.169 17.1605 203.336 18.6857 203.176 21.3637L200.598 64.586C200.475 66.6576 202.442 68.2259 204.434 67.6445L245.999 55.5136C248.574 54.762 250.766 57.5102 249.46 59.8537L228.384 97.6773C227.374 99.4902 228.465 101.756 230.512 102.097L273.225 109.202C275.871 109.642 276.653 113.069 274.46 114.614L239.06 139.547C237.364 140.742 237.364 143.258 239.06 144.453L274.46 169.386C276.653 170.931 275.871 174.358 273.225 174.798L230.512 181.903C228.465 182.244 227.374 184.51 228.384 186.323L249.46 224.146C250.766 226.49 248.574 229.238 245.999 228.486L204.434 216.356C202.442 215.774 200.475 217.342 200.598 219.414L203.176 262.636C203.336 265.314 200.169 266.839 198.175 265.045L165.989 236.081C164.447 234.693 161.994 235.253 161.207 237.173L144.776 277.233C143.758 279.715 140.242 279.715 139.224 277.233L122.793 237.173C122.006 235.253 119.553 234.693 118.011 236.081L85.8254 265.045C83.8312 266.839 80.6642 265.314 80.8239 262.636L83.4015 219.414C83.5251 217.342 81.5585 215.774 79.5663 216.356L38.0012 228.486C35.4259 229.238 33.2343 226.49 34.5401 224.146L55.6159 186.323C56.626 184.51 55.5347 182.244 53.4876 181.903L10.7753 174.798C8.12894 174.358 7.34676 170.931 9.54007 169.386L44.9398 144.453C46.6364 143.258 46.6364 140.742 44.9398 139.547L9.54007 114.614C7.34675 113.069 8.12894 109.642 10.7753 109.202L53.4876 102.097C55.5347 101.756 56.626 99.4902 55.6159 97.6773L34.5401 59.8537C33.2343 57.5102 35.4259 54.762 38.0012 55.5136L79.5663 67.6445C81.5585 68.2259 83.5251 66.6576 83.4015 64.586L80.8239 21.3637C80.6642 18.6857 83.8312 17.1605 85.8254 18.9551L118.011 47.919C119.553 49.3072 122.006 48.7475 122.793 46.8275L139.224 6.76712Z" fill="#B06ECB"/>
</g>
<defs>
<clipPath id="clip0_291_2387">
<path d="M0 0H162V141C162 146.523 157.523 151 152 151H0V0Z" fill="white"/>
</clipPath>
</defs>
</svg>
