<svg width="1280" height="701" viewBox="0 0 1280 701" fill="none" xmlns="http://www.w3.org/2000/svg">
<path fill-rule="evenodd" clip-rule="evenodd" d="M424.724 -66.386L1020.06 887.357L1070.07 857.844L1020.06 887.357C1054.46 942.461 1141.83 912.937 1133.67 848.965L1020.46 -38.0244L1522.24 849.087C1537.81 876.614 1573.38 886.655 1601.69 871.516C1630 856.377 1640.33 821.789 1624.76 794.263L1080.25 -168.383C1080.25 -168.383 1080.25 -168.384 1080.25 -168.384C1069.44 -187.494 1048.79 -199.365 1026.36 -199.365H951.57C914.599 -199.365 885.985 -167.875 890.538 -132.202L985.65 612.966L439.341 -262.228C428.19 -280.092 408.258 -291 386.767 -291H312.598C270.979 -291 241.381 -251.647 253.987 -213.086L253.988 -213.083L506.196 558.265L116.615 44.0925C105.023 28.7933 86.6433 19.7619 67.1003 19.7619H-23.8573C-64.1603 19.7619 -93.5681 56.8244 -83.3459 94.7285L97.3612 764.794H94.1089L-423.651 223.179C-445.647 200.169 -482.663 198.855 -506.327 220.243C-529.992 241.63 -531.344 277.622 -509.348 300.632L24.8723 859.464C36.5142 871.646 52.8392 878.557 69.9237 878.557H169.291C209.592 878.557 239.003 841.496 228.78 803.59L53.0573 152.008L611.46 888.994L611.461 888.995C652.726 943.455 740.665 899.884 719.583 835.407L424.724 -66.386ZM977.729 -113.561C977.73 -113.561 977.73 -113.56 977.73 -113.56Z" stroke="#3A7CCF" stroke-width="2" stroke-linecap="round"/>
</svg>
