<svg width="594" height="762" viewBox="0 0 594 762" fill="none" xmlns="http://www.w3.org/2000/svg">
<path d="M152.25 523.875V702.602L132.451 821.932H688.968L660.072 90.969L377.533 107.022C357.377 201.024 301.547 395.127 239.474 419.528C177.401 443.929 155.461 499.26 152.25 523.875Z" fill="#F5DEEA"/>
<rect x="443.887" y="261.135" width="153.042" height="444.143" rx="76.5211" fill="#2467BC"/>
<rect x="-0.255859" y="406.685" width="153.042" height="444.143" rx="76.5211" fill="#BE9ACD"/>
<rect x="290.844" y="551.166" width="153.042" height="444.143" rx="76.5211" fill="#2467BC"/>
<path fill-rule="evenodd" clip-rule="evenodd" d="M295.589 -436.652C213.135 -436.652 146.293 -369.81 146.293 -287.356V279.864C146.293 362.318 213.135 429.16 295.589 429.16V-436.652Z" fill="#F5DEEA"/>
<path fill-rule="evenodd" clip-rule="evenodd" d="M594.183 -602.537C511.729 -602.537 444.887 -535.694 444.887 -453.24V113.979C444.887 196.433 511.729 263.275 594.183 263.275V-602.537Z" fill="#BE9ACD"/>
<path fill-rule="evenodd" clip-rule="evenodd" d="M295.59 429.16C378.044 429.16 444.887 362.318 444.887 279.864L444.887 -287.355C444.887 -369.809 378.044 -436.652 295.59 -436.652L295.59 429.16Z" fill="#BE9ACD"/>
</svg>
