<svg width="1440" height="682" viewBox="0 0 1440 682" fill="none" xmlns="http://www.w3.org/2000/svg">
<path fill-rule="evenodd" clip-rule="evenodd" d="M1104.29 -59.7947L508.948 893.948L458.938 864.435L508.948 893.949C474.55 949.052 387.177 919.528 395.342 855.556L508.556 -31.4331L6.76966 855.679C-8.80033 883.205 -44.3717 893.247 -72.6811 878.107C-100.991 862.968 -111.318 828.381 -95.7479 800.854L448.763 -161.792C448.764 -161.792 448.764 -161.793 448.764 -161.793C459.574 -180.903 480.225 -192.774 502.652 -192.774H577.442C614.413 -192.774 643.027 -161.284 638.474 -125.61L543.362 619.558L1089.67 -255.637C1100.82 -273.501 1120.75 -284.409 1142.24 -284.409H1216.41C1258.03 -284.409 1287.63 -245.056 1275.02 -206.495L1275.02 -206.492L1022.82 564.857L1412.4 50.6838C1423.99 35.3846 1442.37 26.3532 1461.91 26.3532H1552.87C1593.17 26.3532 1622.58 63.4157 1612.36 101.32L1431.65 771.385H1434.9L1952.66 229.771C1974.66 206.761 2011.67 205.446 2035.34 226.834C2059 248.222 2060.36 284.213 2038.36 307.223L1504.14 866.056C1492.5 878.238 1476.17 885.148 1459.09 885.148H1359.72C1319.42 885.148 1290.01 848.087 1300.23 810.182L1475.95 158.599L917.552 895.585L917.551 895.586C876.286 950.046 788.346 906.475 809.429 841.998L1104.29 -59.7947ZM551.282 -106.97C551.282 -106.969 551.282 -106.969 551.282 -106.969Z" stroke="#D0F1F5" stroke-width="2" stroke-linecap="round"/>
</svg>
