<svg width="630" height="381" viewBox="0 0 630 381" fill="none" xmlns="http://www.w3.org/2000/svg">
<g clip-path="url(#clip0_291_1890)">
<circle cx="534" cy="86.9995" r="71" fill="#2467BC"/>
<circle cx="534" cy="86.9995" r="70.5" stroke="#E0D6E4" stroke-opacity="0.41"/>
<circle cx="625" cy="219" r="71" fill="#2467BC"/>
<circle cx="625" cy="219" r="70.5" stroke="#E0D6E4" stroke-opacity="0.41"/>
<circle cx="545" cy="354" r="71" fill="#2467BC"/>
<circle cx="545" cy="354" r="70.5" stroke="#E0D6E4" stroke-opacity="0.41"/>
<circle cx="370" cy="86.9995" r="71" fill="#2467BC"/>
<circle cx="370" cy="86.9995" r="70.5" stroke="#E0D6E4" stroke-opacity="0.41"/>
<circle cx="461" cy="219" r="71" fill="#2467BC"/>
<circle cx="461" cy="219" r="70.5" stroke="#E0D6E4" stroke-opacity="0.41"/>
<circle cx="381" cy="354" r="71" fill="#2467BC"/>
<circle cx="381" cy="354" r="70.5" stroke="#E0D6E4" stroke-opacity="0.41"/>
<circle cx="206" cy="86.9995" r="71" fill="#2467BC"/>
<circle cx="206" cy="86.9995" r="70.5" stroke="#E0D6E4" stroke-opacity="0.41"/>
<circle cx="297" cy="219" r="71" fill="#2467BC"/>
<circle cx="297" cy="219" r="70.5" stroke="#E0D6E4" stroke-opacity="0.41"/>
<circle cx="217" cy="354" r="71" fill="#2467BC"/>
<circle cx="217" cy="354" r="70.5" stroke="#E0D6E4" stroke-opacity="0.41"/>
<circle cx="42" cy="86.9995" r="71" fill="#2467BC"/>
<circle cx="42" cy="86.9995" r="70.5" stroke="#E0D6E4" stroke-opacity="0.41"/>
<circle cx="133" cy="219" r="71" fill="#2467BC"/>
<circle cx="133" cy="219" r="70.5" stroke="#E0D6E4" stroke-opacity="0.41"/>
<circle cx="53" cy="354" r="71" fill="#2467BC"/>
<circle cx="53" cy="354" r="70.5" stroke="#E0D6E4" stroke-opacity="0.41"/>
</g>
<defs>
<clipPath id="clip0_291_1890">
<rect width="630" height="381" rx="10" fill="white"/>
</clipPath>
</defs>
</svg>
