<svg width="20" height="16" viewBox="0 0 20 16" xmlns="http://www.w3.org/2000/svg">
  <path d="M17.9525 3.98316C17.9647 4.15675 17.9647 4.33034 17.9647 4.50553C17.9647 9.84359 13.8371 16 6.28966 16V15.9968C4.06013 16 1.8769 15.3712 0 14.1857C0.324193 14.2241 0.65001 14.2433 0.97664 14.2441C2.82429 14.2457 4.61913 13.6353 6.07272 12.5114C4.31688 12.4786 2.77717 11.3515 2.23928 9.706C2.85436 9.82279 3.48812 9.79879 4.09181 9.6364C2.17753 9.25563 0.800325 7.59973 0.800325 5.67665C0.800325 5.65905 0.800325 5.64225 0.800325 5.62545C1.37071 5.93824 2.00934 6.11182 2.6626 6.13102C0.859638 4.9447 0.30388 2.58325 1.39265 0.736963C3.47593 3.2608 6.54966 4.79511 9.84928 4.9575C9.51859 3.55439 9.97034 2.08408 11.0364 1.09774C12.689 -0.431763 15.2882 -0.353368 16.8418 1.27293C17.7607 1.09454 18.6415 0.762562 19.4475 0.292192C19.1412 1.22733 18.5001 2.02168 17.6437 2.52645C18.457 2.43206 19.2517 2.21767 20 1.89049C19.4491 2.70324 18.7552 3.41119 17.9525 3.98316Z" fill="currentColor" />
</svg>