<svg width="395.99999999999994" height="252.0548793900085" viewBox="0 0 200 127.30044413636794" class="css-1j8o68f"><defs id="SvgjsDefs4847"></defs><g id="SvgjsG4848" featurekey="nameFeature-0" transform="matrix(3.8022789973560394,0,0,3.8022789973560394,0.9125438227579621,-53.23180443118149)" fill="#263961"><path d="M12.4 38.04 l-0.32 -0.04 l-0.72 -0.04 c-0.6 -0.04 -1 -0.2 -1 -0.36 c0 -0.2 -1.52 -3.2 -1.8 -3.52 c-0.08 -0.08 -0.28 -0.48 -0.48 -0.84 c-0.48 -0.92 -1.04 -1.88 -1.16 -1.88 c-0.04 0 -0.04 0 -0.04 0.04 l0.04 0.08 c-0.08 0.12 -0.16 0.24 -0.16 0.36 c0 0.24 0 0.36 -0.08 0.36 c0 -0.12 -0.08 -0.16 -0.08 -0.2 l0.04 -0.08 c0 -0.04 -0.04 -0.08 -0.08 -0.08 s-0.12 0.08 -0.2 0.16 c-0.08 0.12 0.08 -0.08 -0.32 0.32 c-0.12 0.12 -0.28 0.2 -0.36 0.2 c-0.12 0 -0.2 0.04 -0.2 0.08 s0 0.2 -0.04 0.28 l0 0.08 l0.04 0.04 c0.04 0 0.2 -0.08 0.4 -0.28 c0.16 -0.16 0.28 -0.24 0.32 -0.24 l0.04 0.04 l-0.12 0.24 l0.04 0.08 c0 0.08 -0.08 0.2 -0.2 0.32 l-0.16 0.08 l0.12 -0.28 l-0.52 0.52 l0.16 -0.08 l0.04 0.04 c0 0.04 -0.08 0.16 -0.2 0.24 c-0.08 0.12 -0.2 0.16 -0.24 0.16 l-0.12 0 l0.04 0.04 c0 0.2 -0.72 0.88 -0.92 0.88 l-0.08 -0.04 c-0.08 0.08 -0.12 0 -0.12 0.12 c0.12 0 0.04 0 0.16 -0.04 c0 0.04 -0.2 0.32 -0.6 0.72 c-0.4 0.48 -0.68 0.68 -0.8 0.68 c-0.04 0 -0.08 -0.04 -0.08 -0.08 l-0.12 -0.04 l-0.44 0.12 c-0.08 0 -0.12 -0.04 -0.2 -0.12 s-0.48 -0.28 -0.88 -0.48 c-0.36 -0.2 -0.68 -0.4 -0.68 -0.44 c0 -0.08 -0.04 -0.12 -0.12 -0.12 c-0.12 0 -0.44 -0.48 -0.44 -0.64 c0 -0.08 0.2 -0.36 0.48 -0.56 c0.24 -0.24 0.44 -0.44 0.44 -0.56 l-0.04 -0.08 l0.04 0.04 c0.08 0 0.28 -0.12 0.48 -0.28 s0.44 -0.36 0.48 -0.36 s0.08 -0.04 0.08 -0.16 l0 -0.08 l0.08 0.08 c0.16 0 0.6 -0.4 2.12 -1.88 c0.6 -0.6 1.12 -1.04 1.16 -1.04 c0.08 0 0.16 -0.12 0.2 -0.28 l0.04 -0.2 c0 -0.32 -0.2 -0.8 -0.4 -0.8 c-0.04 0 -0.12 -0.04 -0.12 -0.16 c-0.04 -0.12 -0.16 -0.36 -0.36 -0.64 c-0.12 -0.2 -0.4 -0.64 -0.52 -0.96 l-0.96 -1.6 c-0.08 -0.12 -0.28 -0.44 -0.52 -0.64 c-0.2 -0.24 -0.32 -0.48 -0.32 -0.56 c0 -0.28 0.08 -0.48 0.2 -0.48 c0.04 0 0.28 -0.08 0.4 -0.16 c0.24 -0.16 0.52 -0.2 0.8 -0.2 c0.92 0 1.96 0.6 2.52 1.56 c0.32 0.52 0.56 0.88 0.68 0.88 l0 -0.04 c0 0.2 0.44 1.32 0.72 1.6 c0.08 0 0.52 -0.36 1 -0.84 s1.04 -1 1.24 -1.08 s0.4 -0.24 0.44 -0.28 l0 -0.08 c-0.12 0.12 -0.16 0.16 -0.24 0.16 c-0.04 0 -0.08 0 -0.12 -0.04 l-0.08 -0.12 l0.08 0.04 c0.12 0 1 -0.76 1.8 -1.56 c0.24 -0.24 0.56 -0.48 0.84 -0.64 c0.2 -0.08 0.36 -0.2 0.36 -0.28 l-0.04 -0.08 c0 -0.08 0.04 -0.12 0.12 -0.16 c0.12 0 0.16 0.04 0.16 0.04 l0.04 0.08 l0.12 -0.16 l-0.04 -0.04 c0 -0.04 0.12 -0.08 0.28 -0.12 s0.24 -0.04 0.24 -0.08 l-0.16 -0.08 c0 -0.16 0.44 -0.4 0.64 -0.4 l0.08 0 c0.04 0 0.08 -0.12 0.08 -0.24 c0.08 -0.12 0.16 -0.2 0.24 -0.2 c0.04 0 0.16 -0.12 0.24 -0.28 c0.08 -0.08 0.12 -0.12 0.16 -0.12 l0.2 0.16 c0.04 0 0.12 -0.04 0.24 -0.16 c0.08 -0.12 0.2 -0.2 0.28 -0.2 c0.04 0 0.28 -0.08 0.44 -0.28 c0.16 -0.12 0.36 -0.2 0.44 -0.2 s0.12 0 0.12 0.08 l0 0.16 c0.04 0.2 0 0.12 0.16 0.24 c0 0.04 -0.04 0.08 -0.12 0.12 s-0.16 0.16 -0.2 0.28 l-0.04 0.04 c0 0.04 0.04 0.08 0.08 0.08 c0.12 0 0.32 -0.12 0.48 -0.32 c0.12 -0.12 0.24 -0.2 0.32 -0.2 c0.04 0 0.08 0.04 0.08 0.08 c0 0.08 -0.12 0.12 -0.2 0.12 s-0.12 0 -0.12 0.04 l0 0.12 c0 0.16 -0.08 0.28 -0.36 0.56 c-0.16 0.16 -0.32 0.32 -0.32 0.36 c0 0.08 -0.36 0.44 -0.44 0.44 l-0.04 -0.04 l0.04 -0.08 c0 -0.04 -0.04 -0.04 -0.04 -0.04 c-0.04 0 -0.12 0.04 -0.12 0.12 s-0.04 0.16 -0.08 0.16 c-0.08 0 -0.12 0.04 -0.12 0.16 c0 0.08 -0.04 0.12 -0.12 0.12 s-0.2 0.08 -0.24 0.16 s-0.08 0.16 -0.16 0.16 s-0.12 0 -0.12 0.04 l0.04 0.08 c0 0.08 -0.04 0.16 -0.16 0.2 c-0.16 0.04 -0.24 0.2 -0.24 0.28 s-0.08 0.12 -0.2 0.12 c-0.16 0 -0.28 0.04 -0.32 0.08 l0 0.04 l0.16 -0.08 c0 0.12 -0.08 0.2 -0.24 0.2 c-0.08 0 -0.12 0.08 -0.12 0.16 s-0.12 0.16 -0.24 0.2 c-0.16 0.08 -0.32 0.32 -0.32 0.44 c0 0.04 0.04 0.08 0.08 0.08 s0.08 0.04 0.08 0.08 c0 0.08 -0.04 0.16 -0.12 0.28 l-0.16 0.08 l-0.08 -0.04 c0 -0.08 0.04 -0.12 0.04 -0.12 c0.04 0 0.16 -0.04 0.16 -0.08 c0 -0.08 -0.04 -0.12 -0.12 -0.12 c-0.12 0 -0.32 0.12 -0.56 0.36 c-0.2 0.2 -0.36 0.36 -0.36 0.4 l0 0.04 c0 0.08 -0.04 0.12 -0.12 0.16 c-0.04 0 -0.08 0.04 -0.08 0.12 l0.04 0.12 c0 0.04 -0.04 0.08 -0.08 0.08 c-0.08 0 -0.12 0.08 -0.12 0.12 c0 0.2 -0.32 0.56 -0.44 0.56 c-0.08 0 -0.16 0.08 -0.16 0.2 c-0.08 0.16 -0.28 0.28 -0.44 0.28 l-0.16 -0.04 l-0.12 0.04 c0 0.12 0.16 0 0.16 0.28 l-0.08 0.08 l-0.08 -0.04 l-0.12 0.08 l0 0.08 l0.12 -0.08 c0.08 0 0.12 0.08 0.12 0.12 c0 0.08 -0.04 0.12 -0.12 0.16 c-0.08 0.08 -0.16 0.2 -0.16 0.28 s-0.04 0.12 -0.08 0.12 l-0.4 -0.2 c-0.04 0 -0.08 0.04 -0.08 0.08 c0 0.08 0.08 0.12 0.16 0.12 c0.04 0 0.08 0.04 0.08 0.08 l-0.12 0.08 l-0.08 -0.04 c-0.08 0.2 -0.28 0.4 -0.32 0.4 c-0.2 0 -0.48 0.24 -0.48 0.52 c0 0.32 0.2 0.92 0.4 0.92 c0.04 0 0.04 0.04 0.04 0.12 s0.04 0.16 0.08 0.16 s0.2 0.16 0.28 0.36 c0.08 0.24 0.24 0.48 0.4 0.64 c0.68 1.04 1.04 1.72 1.16 1.72 c0.04 0 0.08 0 0.12 0.04 l0.04 0.04 l-0.08 0 l-0.04 0.04 c0 0.08 0.08 0.24 0.16 0.44 c0.2 0.2 0.32 0.52 0.4 0.6 l0.16 0.32 c0.12 0.08 0.2 0.24 0.24 0.4 c0 0.12 0.12 0.24 0.16 0.28 c0.16 0.12 0.76 1.28 0.8 1.44 c0 0.2 0.24 0.8 0.32 0.8 s0.12 0.04 0.12 0.12 c0 0.16 -0.12 0.4 -0.24 0.48 c-0.16 0.04 -0.8 0.12 -1.24 0.12 z M21.2 36.56 l0 -0.04 c0 -0.04 -0.08 -0.08 -0.12 -0.12 l-0.08 -0.04 l-0.04 0.04 l0.04 0.08 c-0.04 0 -0.08 0 -0.12 -0.04 l-0.16 -0.08 c-0.04 0 -0.08 -0.04 -0.08 -0.08 l-0.04 -0.04 l0 0.08 l-0.08 -0.04 c-0.08 -0.08 -0.16 -0.08 -0.44 -0.12 l-0.08 0 l0 -0.04 c0 -0.04 -0.12 -0.08 -0.24 -0.08 l-0.08 0 c-0.04 0 -0.16 -0.12 -0.28 -0.28 l-0.48 -0.56 c-0.12 -0.12 -0.24 -0.24 -0.24 -0.32 l-0.04 -0.08 c-0.08 -0.04 -0.2 -0.44 -0.24 -0.68 l-0.08 -0.4 c-0.04 -0.2 -0.08 -0.76 -0.08 -1.08 l0 -0.2 l0.04 -0.08 l-0.04 -0.08 c-0.04 -0.08 -0.04 -0.24 -0.04 -0.4 s0 -0.32 0.04 -0.32 s0.08 -0.04 0.08 -0.08 s0 -0.04 -0.04 -0.04 l-0.04 0 c-0.08 0 -0.08 0 -0.08 -0.04 s0 -0.2 -0.04 -0.32 c0 -0.12 0 -0.28 0.04 -0.36 l0 -0.16 c-0.04 -0.04 -0.08 -0.92 -0.08 -2.28 c0 -0.24 0.04 -0.32 0.04 -0.32 l0.08 0 l-0.04 -0.08 c-0.04 -0.08 -0.04 -0.16 -0.04 -0.24 c0 -0.16 0.04 -0.28 0.08 -0.28 l0.08 0 l0.04 -0.08 c0 -0.08 0 -0.08 -0.04 -0.08 l-0.08 0.08 l-0.04 -0.08 c0 -0.08 0 -0.12 0.08 -0.16 l0.04 -0.08 l-0.04 -0.04 l0 -0.08 l-0.04 0.04 c-0.08 0 -0.12 0 -0.12 -0.04 s0.08 -0.04 0.2 -0.04 l0.04 -0.16 c0 -0.08 -0.04 -0.12 -0.04 -0.12 l-0.12 0 c0 -0.04 0.04 -0.12 0.12 -0.2 l0.12 -0.12 l-0.24 0.12 c-0.04 0 -0.04 -0.04 -0.04 -0.04 l0 -0.04 c0.04 -0.04 0.04 -0.08 0.04 -0.12 l0.08 -0.2 l0.04 -0.16 l-0.04 -0.08 l-0.04 0.04 c-0.04 0 -0.04 -0.04 -0.04 -0.08 c0 -0.08 0 -0.12 0.04 -0.16 l0.04 -0.04 l-0.04 -0.04 l-0.04 -0.16 c0 -0.24 0.08 -0.6 0.2 -0.6 l0.04 0 l0 -0.04 c0 -0.04 0 -0.04 -0.04 -0.04 l-0.16 0.08 l-0.04 0.04 l0.04 -0.2 l0 -0.12 l0.04 0.04 l0.08 0.04 c0.04 0 0.08 0 0.08 -0.04 c0 0 0 -0.04 -0.08 -0.08 c-0.04 0 -0.04 -0.08 -0.04 -0.12 c0.04 -0.04 0.04 -0.08 0.08 -0.08 l0.08 -0.04 l0 -0.12 l0.08 -0.16 l-0.04 -0.04 c-0.08 0 -0.08 0.08 -0.08 0.2 l0 0.04 l-0.04 0 c-0.04 0 -0.08 -0.08 -0.08 -0.12 c0.04 -0.08 0.04 -0.28 0.04 -0.4 l0.08 -0.64 c0 -0.56 0.04 -0.68 0.12 -0.76 s0.08 -0.12 0.08 -0.16 s0 -0.04 -0.04 -0.04 l-0.04 0.04 l0.04 0.04 l-0.04 0.08 l-0.04 0 c-0.04 0 -0.04 -0.04 -0.04 -0.08 l0.08 -0.28 l-0.04 -0.16 c0 -0.12 0.08 -0.28 0.16 -0.32 c0.04 0 0.08 -0.04 0.08 -0.08 l-0.04 0 c-0.04 0 -0.08 -0.04 -0.08 -0.08 l0 -0.08 c0 -0.16 0.08 -0.52 0.16 -0.52 c0 0 0.04 0 0.04 -0.08 c0 -0.04 -0.04 -0.04 -0.12 -0.04 l-0.04 0 l0 -0.16 c0.04 -0.12 0.04 -0.24 0.04 -0.32 c0 -0.04 0.04 -0.08 0.12 -0.08 s0.08 -0.04 0.08 -0.16 s0 -0.16 -0.08 -0.16 c-0.04 0 -0.08 -0.04 -0.08 -0.08 l0.04 -0.12 c0.04 -0.08 0.08 -0.44 0.08 -1.08 c0 -0.12 0 -0.24 0.04 -0.28 l0.04 -0.44 c0 -0.24 0.04 -0.56 0.08 -0.68 c0.04 -0.16 0.04 -0.4 0.04 -0.52 c0 -0.44 0.04 -0.72 0.08 -0.8 l0.04 -0.16 l-0.08 -0.76 l0 -0.32 c0.04 0 0.08 -0.04 0.08 -0.12 c0.04 -0.08 0.04 -0.08 0.16 -0.08 l0.2 0 c0.28 0 0.48 0.08 0.84 0.32 l0.16 0.12 c0.04 0 0.08 0 0.12 0.08 c0 0.04 0.12 0.08 0.2 0.08 c0.16 0.04 0.28 0.12 0.48 0.36 c0.16 0.12 0.28 0.28 0.28 0.32 s0.08 0.08 0.16 0.12 c0.12 0.08 0.16 0.08 0.2 0.48 c0 0.24 0 0.56 -0.04 0.68 c0 0.12 -0.08 0.52 -0.08 0.88 c-0.04 0.36 -0.08 0.76 -0.12 0.88 s-0.08 0.44 -0.08 0.64 c-0.04 0.24 -0.04 0.44 -0.08 0.44 l-0.04 0 l0.04 -0.04 c0 -0.04 0 -0.12 -0.04 -0.12 l-0.04 -0.04 c-0.04 0 -0.12 0.16 -0.12 0.24 l0 0.08 l0.08 -0.12 l0 0.08 c0 0.16 0 0.24 0.04 0.24 l0.04 -0.08 l0 0.16 c0 0.24 0 0.8 -0.04 0.96 c-0.04 0.04 -0.04 0.2 -0.04 0.32 s0 0.2 -0.04 0.2 l-0.04 -0.08 l-0.04 0.04 l0 0.12 c0.04 0 0.08 0.08 0.08 0.16 l0 0.08 l-0.12 -0.04 l-0.08 0.04 l-0.04 0.12 c0.04 0 0.08 0.12 0.08 0.24 s0 0.16 0.04 0.16 l0.04 -0.08 c0.04 0 0.04 0.04 0.04 0.12 s-0.04 0.2 -0.08 0.28 l-0.04 0.08 l0.08 0 c0.04 0 0.04 0 0.04 0.04 c0 0.08 -0.04 0.08 -0.08 0.08 l-0.08 0 c0 0.04 0 0.08 0.04 0.08 c0.04 0.04 0.04 0.12 0.04 0.2 c-0.04 0.08 -0.04 0.24 -0.04 0.32 l0 0.12 l-0.08 -0.04 c-0.04 -0.04 -0.08 -0.08 -0.12 -0.08 l0.04 0.08 c0.04 0.04 0.04 0.12 0.04 0.24 c0 0.2 -0.04 0.4 -0.08 0.4 l0.08 0.08 l0.12 0.04 c0.04 0 0.08 -0.04 0.16 -0.12 s0.2 -0.12 0.24 -0.12 s0.12 -0.04 0.2 -0.12 s0.08 -0.08 0.08 -0.12 l-0.16 0.08 l-0.04 -0.04 l0.12 -0.12 c0.08 -0.04 0.12 -0.08 0.12 -0.12 c0 -0.08 0.52 -0.44 0.6 -0.44 l0.2 -0.12 c0.08 -0.08 0.16 -0.16 0.2 -0.16 l0.16 -0.08 c0.04 -0.04 0.08 -0.04 0.12 -0.04 s0.04 0 0.04 -0.04 s0.04 -0.04 0.08 -0.04 l0.04 0 c0.08 0 0.2 -0.12 0.2 -0.2 l0.04 -0.04 l0.04 0 c0.08 0 0.12 0 0.16 -0.04 l0.04 -0.08 l0.16 0.08 c0.04 0 0.08 0 0.08 -0.04 c0.04 -0.04 0.08 -0.04 0.12 -0.04 l0.04 0 l0.16 -0.08 c0.08 -0.08 0.16 -0.08 0.24 -0.08 s0.12 0 0.2 0.04 l0.08 0.04 l0.04 -0.04 l0.12 0 c0.28 0 1.04 0.04 1.28 0.12 c0.32 0.12 2.08 1 2.08 1.08 c0 0.04 0.2 0.2 0.4 0.36 l0.2 0.24 l0.6 0.56 c0 0.04 0.08 0.2 0.2 0.32 c0.12 0.16 0.2 0.32 0.2 0.36 l0.08 0.04 l0.04 0 l-0.04 0.04 c-0.04 0.04 -0.04 0.12 -0.04 0.16 l0 0.04 c0 0.04 -0.04 0.08 -0.08 0.08 l-0.08 -0.08 l-0.04 0.04 c0 0.04 0 0.08 0.04 0.08 l0.04 0.24 l0 0.2 c0 0.12 0.04 0.16 0.12 0.2 s0.16 0.08 0.16 0.2 l-0.04 0.12 l0 0.44 c0 0.12 -0.04 0.12 -0.12 0.2 l-0.24 0.04 l0 0.04 l0.08 0.2 c0.04 0.04 0.08 0.12 0.08 0.2 c0 0.12 -0.04 0.24 -0.12 0.28 l-0.04 0 l0.08 -0.08 c0 -0.04 -0.04 0 -0.08 0.04 s-0.12 0.04 -0.16 0.04 s-0.04 0.04 -0.08 0.08 l0 0.08 l0.04 -0.04 l0.2 -0.04 c0.04 0 0.08 0 0.08 0.04 c0 0.08 -0.16 0.32 -0.2 0.32 c0 0 -0.04 0.04 -0.04 0.12 c0 0.04 0 0.08 -0.04 0.08 s-0.04 0 -0.04 -0.08 c0 -0.04 -0.04 -0.08 -0.08 -0.08 s-0.04 0 -0.04 0.04 l0.08 0.16 c0.04 0.04 0.08 0.08 0.08 0.12 l-0.08 0 c-0.04 0 -0.08 0.08 -0.08 0.16 c0 0.16 -0.12 0.4 -0.2 0.4 s-0.36 0.36 -0.36 0.48 l0 0.04 c0 0.04 0 0.04 -0.04 0.04 l-0.08 0 l0 0.12 c0 0.12 -0.24 0.52 -0.36 0.56 c-0.04 0.04 -0.08 0.08 -0.08 0.12 l0 0.04 l-0.16 0.28 c0 0.08 -0.16 0.2 -0.24 0.2 c0 0 -0.04 0 -0.04 0.04 s-0.04 0.08 -0.16 0.12 c-0.08 0 -0.12 0 -0.12 -0.04 l0.04 -0.04 l0 -0.08 l-0.36 0.4 l0 -0.04 l-0.08 -0.08 c-0.04 0 -0.08 0.04 -0.08 0.08 l0.24 0.12 l0 0.04 l-0.16 0 l-0.08 -0.04 l-0.04 0.04 c0 0.04 0.04 0.08 0.08 0.08 s0.08 0.04 0.08 0.08 l-0.04 0.04 c-0.08 0 -0.12 0 -0.12 0.04 l0.04 0.04 l0 0.08 c0 0.12 -0.12 0.36 -0.2 0.36 c-0.04 0 -0.04 0.08 -0.04 0.12 l-0.08 0.16 l-0.04 -0.04 c0 -0.04 -0.04 -0.08 -0.08 -0.08 c-0.08 0 -0.16 0.16 -0.16 0.24 l0 0.08 s0 0.04 -0.04 0.04 c-0.04 0.04 -0.08 0.08 -0.08 0.16 l-0.04 0.08 c-0.04 0 -0.08 0.08 -0.12 0.16 s-0.16 0.16 -0.24 0.24 s-0.16 0.16 -0.16 0.2 c0 0.08 -0.08 0.2 -0.2 0.32 l-0.24 0.2 l0 -0.16 l-0.16 0.08 l-0.04 0.12 l0 0.08 c0 0.08 0 0.08 -0.08 0.08 l-0.04 0 c-0.08 0 -0.08 0.04 -0.16 0.12 c-0.04 0.08 -0.12 0.16 -0.16 0.16 l0 -0.12 l-0.08 0.04 c-0.04 0.04 -0.12 0.08 -0.12 0.12 l-0.08 0 c-0.04 0 -0.04 0.04 -0.04 0.04 c0 0.04 0 0.08 0.04 0.08 l0.04 0.04 l-0.16 0 c-0.04 0 -0.12 0.04 -0.2 0.12 l-0.16 0.12 c0 -0.04 -0.04 -0.08 -0.08 -0.08 s-0.08 0.04 -0.08 0.08 s-0.08 0.04 -0.12 0.04 l-0.08 0 l0.04 0.08 c0.04 0.04 0.08 0.08 0.08 0.16 s-0.08 0.2 -0.2 0.24 c-0.08 0.08 -0.16 0.12 -0.16 0.16 s-0.04 0.04 -0.12 0.04 l-0.12 -0.12 l-0.12 0.04 c-0.04 0.04 -0.12 0.08 -0.12 0.12 l-0.16 0.04 c-0.08 0 -0.2 0.04 -0.24 0.08 c-0.04 0.08 -0.12 0.12 -0.16 0.12 l0 -0.04 c0 -0.04 -0.08 -0.08 -0.2 -0.08 l-0.28 0.08 c-0.08 0 -0.12 0.04 -0.12 0.04 c0 0.04 -0.12 0.04 -0.24 0.04 c-0.16 0 -0.2 0.04 -0.2 0.08 l0 0.08 l-0.04 -0.04 c-0.04 -0.04 -0.08 -0.04 -0.12 -0.04 s-0.08 0 -0.08 -0.04 l-0.08 -0.04 l0.16 0.36 z M19.24 15.96 l0.04 -0.08 l-0.04 -0.04 l0 0.12 z M21.72 15.96 c0.04 0 0.04 0 0.04 -0.04 s0 -0.04 -0.04 -0.04 s-0.04 0 -0.04 0.04 s0 0.04 0.04 0.04 z M21.72 16.36 c0.04 0 0.04 -0.08 0.04 -0.2 l0 -0.12 l-0.04 0.04 c-0.04 0.04 -0.04 0.12 -0.04 0.2 c0 0.04 0 0.08 0.04 0.08 z M19.24 16.28 l0.04 -0.08 l0 -0.08 c-0.04 0 -0.08 0.04 -0.08 0.08 z M19.2 16.56 l0 -0.12 l-0.04 0 l0 0.08 z M21.759999999999998 16.72 l0 -0.08 c0 -0.04 0 -0.04 -0.04 -0.04 s-0.04 0.04 -0.04 0.08 z M21.68 17.56 c0.04 0 0.04 -0.04 0.04 -0.12 l0 -0.08 s-0.04 0 -0.04 0.04 l-0.04 0.12 c0 0.04 0 0.04 0.04 0.04 z M21.6 18.76 l0 -0.08 c0 -0.08 0 -0.2 -0.04 -0.24 l-0.04 0 l0 0.12 c0 0.04 0 0.08 -0.04 0.08 l0.04 0.08 z M18.96 18.6 l0.04 -0.08 s0 -0.04 -0.04 -0.04 l-0.04 0.04 c0 0.04 0 0.08 0.04 0.08 z M18.919999999999998 19.04 l0.04 -0.04 l0 -0.08 l-0.08 0.08 c0 0.04 0 0.04 0.04 0.04 z M21.52 19.04 c0.04 0 0.04 0 0.04 -0.04 c0 -0.08 -0.04 -0.08 -0.04 -0.08 l-0.04 0.08 z M18.84 19.68 l-0.04 0 l0 -0.12 l0.04 0.04 l0 0.08 z M18.8 20.08 l0.16 -0.2 l-0.08 0.04 c-0.04 0.04 -0.08 0.08 -0.08 0.12 l0 0.04 z M18.72 21 l0 -0.12 c0 -0.04 0 -0.12 -0.04 -0.12 l0 0.12 z M21.119999999999997 22.04 c0.04 0 0.04 -0.04 0.04 -0.12 l0 -0.08 l-0.08 0.16 z M18.52 22.72 l0.08 -0.08 l-0.08 -0.08 l-0.04 0 l0 0.16 l0.04 0 z M21.08 22.88 l0 -0.16 l-0.04 0 l0 0.16 l0.04 0 z M18.48 23.16 l0.04 -0.04 c0 -0.08 0 -0.16 -0.04 -0.16 l-0.04 -0.04 z M18.48 23.56 c0.04 -0.04 0.04 -0.08 0.04 -0.12 c0 0 0 -0.04 -0.04 -0.04 l-0.04 0.16 l0.04 0 z M21.28 33.6 l0 -0.04 l0.04 -0.08 c0.04 -0.04 0.12 -0.04 0.16 -0.04 c0.2 0 0.52 -0.2 0.52 -0.28 c0 -0.04 0 -0.08 0.04 -0.08 s0.04 0.04 0.04 0.08 l0.08 0.04 c0.12 0 0.4 -0.2 0.4 -0.28 l0 -0.04 c0 -0.2 0.4 -0.6 0.56 -0.6 c0.08 0 0.16 -0.04 0.28 -0.12 c0.08 -0.04 0.16 -0.12 0.2 -0.12 c0 0 0 -0.04 -0.04 -0.04 l-0.16 0.04 l-0.12 0.08 l-0.04 -0.04 l0.04 -0.12 l0 -0.16 l0.04 0.04 c0.04 0 0.12 0 0.16 -0.04 l0.08 -0.04 l0.04 0.08 c0 0.04 0 0.08 0.04 0.08 s0.16 -0.24 0.16 -0.36 l0 -0.04 l0.08 -0.08 c0.16 -0.04 0.28 -0.2 0.28 -0.28 l-0.04 -0.04 l-0.12 0.04 l-0.08 0.16 c0 0.04 -0.16 0.16 -0.2 0.16 s-0.08 0 -0.08 -0.04 l0.2 -0.24 c0.12 -0.12 0.16 -0.2 0.24 -0.2 l0.08 0.04 l0.16 0.04 c0.04 0 0.12 -0.04 0.12 -0.08 l0.08 -0.04 c0.04 0 0.08 -0.04 0.08 -0.12 l0 -0.08 l-0.08 0.08 l-0.08 0.04 l0 -0.04 c0 -0.16 0.08 -0.24 0.16 -0.24 s0.12 -0.04 0.12 -0.08 l0.04 -0.04 l0.12 0.08 c0.04 0 0.04 -0.04 0.04 -0.12 s0.04 -0.2 0.08 -0.24 s0.08 -0.08 0.08 -0.16 c0 -0.04 0.04 -0.08 0.08 -0.08 s0.04 0 0.04 -0.04 c0 -0.08 0.16 -0.16 0.32 -0.16 l0.08 0 c0.08 0 0.12 -0.08 0.2 -0.2 l0.12 -0.24 c-0.04 0 -0.08 0.04 -0.12 0.12 s-0.08 0.12 -0.12 0.12 s-0.04 0 -0.04 -0.04 l0 -0.08 c0.04 -0.04 0.04 -0.12 0.04 -0.16 s0.04 -0.04 0.12 -0.04 c0.2 -0.04 0.4 -0.12 0.56 -0.32 l0.08 -0.2 l0 -0.04 l-0.04 0 c-0.04 0 -0.16 0.08 -0.2 0.2 c0 0.08 -0.04 0.12 -0.08 0.12 l-0.08 0.04 l-0.04 0.04 l-0.12 -0.08 l0.12 -0.12 c0 -0.04 0.04 -0.12 0.12 -0.2 c0.08 -0.04 0.12 -0.12 0.12 -0.16 s0.04 -0.08 0.08 -0.08 l0.08 -0.08 c0.04 -0.12 0.12 -0.28 0.24 -0.4 l0.04 -0.04 l-0.04 -0.08 l0.16 0.04 l0.08 0.08 l-0.08 -0.16 l-0.08 -0.12 c0 -0.08 0.08 -0.16 0.2 -0.2 c0.08 -0.04 0.16 -0.08 0.16 -0.12 l-0.16 -0.08 c0 -0.04 0.04 -0.08 0.08 -0.08 s0.04 -0.04 0.04 -0.08 l0 -0.16 c0.04 0 0.2 -0.32 0.2 -0.36 c0 -0.08 0.16 -0.32 0.2 -0.32 s0.04 -0.04 0.04 -0.08 l0 -0.04 l-0.04 0.04 c-0.04 0 -0.04 -0.04 -0.04 -0.08 c0 -0.08 0 -0.12 0.04 -0.16 c0.04 0 0.04 -0.12 0.04 -0.2 c0 -0.12 0.04 -0.24 0.08 -0.28 l0.04 -0.08 l-0.04 -0.04 c-0.04 -0.04 -0.04 -0.12 -0.04 -0.16 c0.04 -0.04 0.04 -0.12 0.04 -0.2 c-0.04 -0.08 -0.04 -0.16 -0.04 -0.2 l-0.04 -0.28 c-0.04 -0.2 -0.08 -0.24 -0.2 -0.24 c-0.2 0 -0.4 -0.04 -0.56 -0.08 c-0.08 0 -0.2 0 -0.28 0.04 l-0.16 0.04 l-0.04 -0.08 l0.04 0 l0 -0.04 l-0.08 -0.04 l-0.12 0 l-0.08 0.04 l-0.2 0.04 c-0.08 0 -0.2 0.04 -0.24 0.08 s-0.16 0.08 -0.28 0.12 c-0.08 0.04 -0.12 0.04 -0.12 0.08 l0.04 0.12 l-0.16 0.08 l-0.04 0 c-0.04 0 -0.04 0 -0.04 -0.04 l0 -0.08 l-0.12 0.04 c-0.16 0.08 -0.24 0.12 -0.24 0.2 l0 0.04 l-0.16 0.08 c0 0.04 0 0.04 -0.04 0.04 s-0.04 0 -0.04 0.08 l0.04 0.04 l-0.04 0 s-0.12 0.04 -0.2 0.16 c-0.08 0.08 -0.16 0.12 -0.2 0.12 l-0.08 -0.08 l-0.16 0.12 l-0.12 0.2 l0.04 0 c0.04 0 0.04 0 0.04 0.04 s0 0.08 -0.08 0.12 c-0.04 0 -0.04 0.08 -0.04 0.12 l0.04 0.04 l-0.04 0 s-0.08 0 -0.12 0.08 l-0.08 0.04 l-0.04 -0.04 c0 -0.04 0 -0.08 -0.04 -0.08 c0 0 -0.04 0.08 -0.04 0.2 l0 0.12 c-0.04 0 -0.12 0.04 -0.2 0.12 l-0.04 0.12 c0 0.04 0 0.04 0.04 0.04 l0.08 -0.04 l-0.12 0.24 c-0.08 0.08 -0.16 0.12 -0.2 0.12 c-0.08 0 -0.48 0.68 -0.48 0.8 l-0.12 0.24 c0 0.04 0.04 0.04 0.08 0.08 l0.08 0.08 l-0.08 0.12 c-0.04 0.16 -0.08 0.2 -0.12 0.2 l0.04 -0.2 l-0.04 0 s-0.08 0.12 -0.12 0.28 c-0.08 0.2 -0.12 0.44 -0.12 0.56 l0.04 0.08 l0.08 -0.16 l0 0.08 c0 0.08 -0.04 0.16 -0.12 0.2 l-0.08 0.2 c0 0.08 -0.04 0.12 -0.08 0.12 s-0.08 0.12 -0.08 0.28 s0 0.32 -0.04 0.32 l-0.04 -0.04 c0 -0.04 -0.08 -0.08 -0.16 -0.08 l-0.12 0 c-0.04 0 -0.08 0.04 -0.08 0.08 s-0.04 0.08 -0.08 0.08 l-0.04 0 c-0.12 0 -0.16 0.08 -0.16 0.24 l-0.04 0.16 l0.08 0 l-0.08 0.44 c0 0.16 0.04 0.32 0.08 0.36 l-0.04 0.32 s0.04 0.32 0.04 0.72 c0 0.48 0 0.64 -0.04 0.64 l-0.08 -0.04 c-0.04 0 -0.08 0.04 -0.08 0.12 s0.04 0.08 0.12 0.08 l0.08 0 c0.04 0 0.08 0.04 0.08 0.28 c0 0.08 0 0.12 0.04 0.12 l0.04 0 l0.04 -0.08 l0.04 0.08 l0.04 0 z M21.36 24.32 l0.08 -0.04 l0.04 -0.08 c0 -0.04 -0.04 -0.04 -0.04 -0.04 c-0.04 0 -0.08 0.04 -0.08 0.12 l0 0.04 z M25.4 24.52 l-0.04 -0.04 l0.04 -0.04 c0.04 -0.04 0.56 -0.2 0.68 -0.2 c0 0.04 -0.32 0.16 -0.48 0.2 c-0.04 0 -0.12 0 -0.12 0.04 z M18.32 25.36 l0.04 -0.04 l-0.04 -0.08 l-0.04 0 l-0.04 0.04 c0 0.04 0.04 0.08 0.08 0.08 z M23.84 25.560000000000002 c-0.08 0 -0.08 0 -0.08 -0.08 c0 -0.04 0.04 -0.08 0.08 -0.12 l0.04 0 l0.04 0.08 z M18.36 25.6 l0 -0.08 l-0.04 -0.04 l0 0.12 l0.04 0 z M30.2 26 c-0.04 0 -0.04 -0.04 -0.04 -0.08 l0 -0.04 c0 -0.04 0 -0.04 -0.04 -0.04 s-0.04 -0.08 -0.04 -0.12 c0 -0.08 0 -0.12 0.04 -0.12 l0.04 0 l0.04 0.04 l-0.04 0.04 c0 0.08 0 0.12 0.04 0.12 s0.08 0.04 0.08 0.08 c0 0.08 -0.04 0.12 -0.08 0.12 z M22.64 26.04 c0.04 0 0.12 0 0.12 -0.04 s0 -0.04 -0.04 -0.04 c-0.08 0.04 -0.12 0.04 -0.12 0.08 l0.04 0 z M22.4 26.52 l0 -0.08 l0.08 -0.04 l-0.08 -0.04 c-0.04 0 -0.08 0.04 -0.08 0.08 z M29.96 27 l0.16 -0.32 l-0.04 -0.08 c0 -0.08 -0.04 -0.08 -0.08 -0.08 s-0.08 0.08 -0.08 0.24 c0 0.12 0 0.24 0.04 0.24 z M22 27.240000000000002 c0.04 0 0.12 -0.12 0.2 -0.24 l0 -0.12 l-0.08 0.04 c-0.04 0.04 -0.04 0.08 -0.04 0.12 c0 0 0 0.04 -0.04 0.04 c-0.04 0.04 -0.04 0.08 -0.04 0.12 l0 0.04 z M30.04 27.32 l0 -0.08 c0 -0.08 0.04 -0.16 0.08 -0.16 s0.04 0 0.04 0.04 l-0.04 0.16 z M22.24 27.32 c0 0 0.04 0 0.04 -0.04 l0 -0.04 c-0.04 0 -0.08 0 -0.08 0.04 s0 0.04 0.04 0.04 z M29.759999999999998 27.439999999999998 l0.12 -0.04 c0 -0.04 0 -0.08 -0.04 -0.08 s-0.08 0.04 -0.08 0.08 l0 0.04 z M22.4 27.8 c-0.04 0 -0.04 0 -0.04 -0.08 l0.04 -0.08 c0.04 0 0.08 -0.04 0.08 -0.08 s0 -0.08 0.04 -0.08 l0.04 0.04 l-0.04 0.12 c-0.04 0.12 -0.08 0.16 -0.12 0.16 z M29.759999999999998 27.72 l0.04 -0.08 l0 -0.04 l-0.08 0.04 c0 0.04 0 0.08 0.04 0.08 z M26.72 28.08 l0.08 -0.04 c0 -0.04 0 -0.08 -0.04 -0.08 l-0.04 0.08 l0 0.04 z M18.24 28.4 l0 -0.08 l0.12 -0.16 l-0.04 -0.04 c-0.08 0 -0.16 0.12 -0.16 0.2 l0 0.04 z M26.479999999999997 28.6 l0.08 -0.16 c0.08 -0.08 0.12 -0.2 0.16 -0.2 l0.04 -0.04 l-0.04 0 c-0.12 0 -0.24 0.24 -0.24 0.36 l0 0.04 z M22.119999999999997 28.6 c-0.04 0 -0.04 0 -0.04 -0.04 s0.04 -0.04 0.08 -0.08 l0.04 0 z M29.16 28.72 l0.08 -0.04 l-0.04 -0.08 c-0.04 0 -0.04 0.04 -0.04 0.08 l0 0.04 z M18.24 28.880000000000003 c0.04 0 0.08 -0.04 0.08 -0.08 l-0.08 -0.12 l-0.04 0.08 c0 0.08 0.04 0.12 0.04 0.12 z M22.04 28.880000000000003 c-0.04 0 -0.04 -0.04 -0.04 -0.04 c0 -0.04 0 -0.08 0.04 -0.08 l0.04 0 l0 0.04 c0 0.04 0 0.08 -0.04 0.08 z M18.24 29.36 c0.04 0 0.08 -0.04 0.08 -0.12 c0 -0.04 0 -0.08 -0.04 -0.08 l-0.08 0.16 z M18.24 29.72 c0.04 0 0.08 0 0.08 -0.04 l0.04 -0.04 l-0.04 0 c-0.04 0 -0.08 0 -0.08 0.04 l-0.04 0.04 l0.04 0 z M28.16 30.48 l0.08 -0.04 l0 -0.04 c0 -0.04 0 -0.04 -0.04 -0.04 s-0.08 0.04 -0.08 0.08 z M20.72 30.84 l0.04 -0.04 l0 -0.12 l-0.04 0 l0 0.16 z M24.16 30.92 l-0.04 -0.08 c0 -0.08 0.04 -0.12 0.12 -0.16 l0.04 0.04 c0 0.04 -0.04 0.2 -0.12 0.2 z M28.119999999999997 30.84 l-0.04 -0.04 c0 -0.04 -0.04 -0.04 -0.08 -0.04 l0 0.04 c0 0.04 0.04 0.04 0.08 0.04 l0.04 0 z M20.8 31.04 l0.08 -0.16 l-0.08 0 l-0.04 0.08 l0 0.04 c0 0.04 0 0.04 0.04 0.04 z M20.04 31.16 l0.04 -0.04 l-0.04 -0.08 l0 0.12 z M26.759999999999998 31.759999999999998 l0.04 -0.04 c0.04 -0.04 0.04 -0.12 0.04 -0.16 c-0.04 0 -0.04 0.04 -0.04 0.04 c-0.04 0.04 -0.04 0.12 -0.04 0.12 l0 0.04 z M23.799999999999997 31.880000000000003 c0.04 0 0.2 -0.04 0.24 -0.08 l0 -0.04 l-0.12 0 c-0.08 0.04 -0.16 0.08 -0.16 0.12 l0.04 0 z M20.88 32.36 l0.04 -0.04 l-0.04 0 c-0.04 0 -0.08 -0.08 -0.08 -0.16 l0 -0.12 l-0.04 0 l-0.04 0.08 c0 0.12 0.08 0.24 0.16 0.24 z M25.84 32.44 l0.08 -0.04 c0 -0.04 0 -0.04 -0.04 -0.04 s-0.04 0 -0.04 0.04 l0 0.04 z M20.8 32.8 l0 -0.2 l-0.04 0.08 c0 0.08 0.04 0.12 0.04 0.12 z M22.72 32.72 l0.08 -0.04 c0 -0.04 -0.04 -0.08 -0.08 -0.08 l-0.04 0.08 z M26.32 32.72 l0.08 -0.04 c0 -0.04 0 -0.08 -0.04 -0.08 l-0.04 0.08 l0 0.04 z M26.08 33.24 c0.04 0 0.08 0 0.08 -0.04 l-0.04 -0.04 l-0.12 0.04 c0 0.04 0.04 0.04 0.08 0.04 z M24.759999999999998 33.56 c0.04 0 0.04 0 0.04 -0.04 l0 -0.04 l-0.08 0.04 c0 0.04 0 0.04 0.04 0.04 z M25.64 33.84 c0.04 0 0.08 -0.04 0.12 -0.08 l0 -0.04 l-0.08 0 c-0.04 0 -0.08 0.04 -0.08 0.08 s0 0.04 0.04 0.04 z M25.119999999999997 34.08 l0.16 -0.12 l-0.08 -0.04 c-0.04 0 -0.08 0 -0.08 0.04 l-0.04 0.08 z M24.92 34.04 c0.04 0 0.08 0 0.08 -0.04 l0 -0.04 c-0.04 0 -0.08 0 -0.12 0.04 c0 0.04 0 0.04 0.04 0.04 z M24.759999999999998 34.16 c0.04 0 0.04 0 0.04 -0.04 s0 -0.04 -0.04 -0.04 c-0.08 0 -0.08 0 -0.08 0.04 z M25.04 34.6 l0.04 -0.08 c0 -0.04 0.04 -0.08 0.08 -0.08 l-0.04 0.08 c0 0.04 -0.04 0.08 -0.08 0.08 z M23.6 35.519999999999996 c0.08 0 0.12 -0.04 0.12 -0.12 c0 -0.04 0 -0.08 -0.08 -0.08 l-0.16 0.04 l0 0.04 c0 0.04 -0.04 0.04 -0.04 0.04 l-0.04 0 l0.04 0.04 z M23.119999999999997 35.92 l0 -0.04 c0 -0.04 0 -0.08 0.04 -0.08 l0.04 0 c0 0.04 0 0.08 -0.04 0.08 z M21.84 35.88 l0.04 -0.04 l-0.04 -0.04 l-0.08 0 c0 0.04 0.04 0.08 0.08 0.08 z M40.72 37.72 l-0.04 -0.08 c-0.04 -0.08 -0.04 -0.12 -0.12 -0.12 l-0.16 0.08 l-0.08 0.08 l-0.08 -0.08 l-0.08 0.08 l-0.08 -0.04 c0 -0.04 0 -0.08 0.04 -0.12 l0.04 -0.04 l-0.08 0 c-0.04 0 -0.08 0 -0.08 0.04 l0 0.16 l-0.2 -0.2 c-0.08 -0.12 -0.12 -0.16 -0.16 -0.16 l-0.04 0 s-0.04 -0.04 -0.04 -0.12 c-0.04 -0.24 -0.16 -0.44 -0.2 -0.44 s-0.04 0.04 -0.04 0.08 s0 0.08 -0.04 0.08 l-0.16 -0.08 c-0.08 -0.08 -0.12 -0.32 -0.32 -1.12 c-0.04 -0.16 -0.04 -0.8 -0.08 -1.64 c0 -0.76 0 -1.44 -0.04 -1.48 l0 -0.28 c0 -0.12 0 -0.4 -0.04 -0.6 c0 -0.24 0 -0.32 -0.04 -0.32 l-0.2 0.32 c-0.04 0.04 -0.04 0.08 -0.08 0.08 c0 -0.04 0 -0.04 -0.04 -0.04 c-0.04 0.04 -0.04 0.12 -0.04 0.2 s0 0.16 -0.08 0.24 l-0.12 0.24 c0 0.04 -0.04 0.08 -0.2 0.08 l-0.04 0 l0.04 0 l0.08 0.08 l-0.08 0.04 c-0.04 0 -0.12 0.12 -0.2 0.24 c-0.04 0.08 -0.12 0.2 -0.16 0.2 l-0.08 0.12 c0 0.12 -0.2 0.32 -0.28 0.32 l-0.04 0 c-0.04 0 -0.04 0 -0.04 0.04 l0 0.04 l-0.04 0.12 l-0.04 0.2 c0 0.12 -0.12 0.32 -0.28 0.48 c-0.12 0.08 -0.2 0.2 -0.2 0.24 c0 0.08 -0.04 0.08 -0.2 0.08 c-0.04 0 -0.04 0 -0.04 0.04 l0.04 0.08 c0 0.12 -0.28 0.48 -0.44 0.56 c-0.08 0 -0.08 0.04 -0.08 0.08 c0 0.12 -0.6 0.68 -0.72 0.68 l-0.24 0.12 c-0.08 0.08 -0.28 0.16 -0.44 0.2 l-0.52 0.04 c-0.12 0 -0.24 0 -0.24 -0.04 c0 0 0 -0.04 -0.08 -0.04 c-0.32 -0.04 -0.64 -0.08 -0.72 -0.16 c-0.04 -0.04 -0.12 -0.04 -0.12 -0.04 l-0.24 -0.08 c-0.08 -0.08 -0.24 -0.16 -0.32 -0.16 c-0.04 -0.04 -0.08 -0.04 -0.08 -0.08 l0.08 -0.04 l-0.12 -0.08 c-0.04 -0.04 -0.12 -0.04 -0.16 -0.04 l-0.04 0 l0 -0.04 c0 -0.04 -0.04 -0.08 -0.12 -0.08 s-0.2 -0.12 -0.32 -0.2 c-0.12 -0.12 -0.28 -0.24 -0.36 -0.28 c-0.12 -0.04 -0.2 -0.12 -0.24 -0.2 c0 -0.08 -0.08 -0.16 -0.12 -0.2 s-0.08 -0.08 -0.08 -0.12 s-0.04 -0.08 -0.08 -0.12 c-0.4 -0.44 -0.76 -0.92 -0.96 -1.36 c-0.04 -0.08 -0.12 -0.32 -0.24 -0.48 c-0.08 -0.28 -0.16 -0.48 -0.2 -0.92 l-0.04 -0.72 l0.04 -0.36 c0.04 0 0.04 -0.08 0.04 -0.2 c0 -0.16 0.04 -0.28 0.12 -0.36 c0.08 -0.04 0.16 -0.2 0.2 -0.32 c0.04 -0.16 0.08 -0.28 0.16 -0.36 c0.04 -0.04 0.08 -0.12 0.08 -0.2 c0 -0.04 0.04 -0.12 0.08 -0.12 c0.04 -0.04 0.48 -0.68 0.48 -0.72 s0 -0.08 0.04 -0.08 s0.04 0 0.04 -0.08 c0 -0.04 0.04 -0.08 0.08 -0.08 l0.32 -0.4 c0.08 -0.04 0.2 -0.2 0.2 -0.32 l-0.04 -0.08 c0 -0.04 0 -0.04 0.04 -0.04 l0.04 0 l0.08 -0.04 l0.04 -0.04 l-0.04 -0.04 s0 -0.04 0.04 -0.04 c0.08 -0.04 0.16 -0.16 0.24 -0.28 c0.12 -0.12 0.2 -0.28 0.24 -0.28 c0.12 -0.16 0.72 -0.88 0.72 -0.92 l0.12 -0.08 c0.04 0 0.12 -0.08 0.12 -0.16 c0.04 -0.12 0.76 -0.88 1.16 -1.16 l0.92 -0.76 l0.44 -0.24 c0.08 -0.04 0.12 -0.08 0.12 -0.12 l0 -0.08 l0.2 -0.08 c0.28 -0.12 1.08 -0.32 1.4 -0.36 l0.36 -0.04 l0.08 -0.04 c0.04 0 0.04 0.04 0.04 0.08 s0.08 0.12 0.16 0.2 l0.2 0.16 l0.12 0.04 c0.04 0 0.08 0.04 0.08 0.08 c0.04 0.08 0.08 0.16 0.16 0.2 c0.36 0.2 0.68 0.56 0.76 0.76 c0.04 0.16 0.08 0.2 0.16 0.2 c0.04 0 0.08 -0.08 0.08 -0.12 l0 -0.04 l0.04 0 l0 -0.24 l0.04 0 l0.08 -0.04 c0.04 -0.04 0.08 -0.64 0.08 -1 c0 -0.16 0.04 -0.32 0.08 -0.4 s0.08 -0.2 0.08 -0.28 s0 -0.16 0.04 -0.16 s0.08 0.04 0.08 0.08 c0 0.08 0.08 0.12 0.16 0.12 c0.12 0.04 0.24 0.08 0.28 0.12 c0 0.04 0.08 0.08 0.16 0.08 c0.04 0 0.16 0.04 0.28 0.12 c0.08 0.08 0.2 0.16 0.24 0.16 c0.08 0.04 0.12 0.12 0.16 0.2 c0 0.12 0.08 0.16 0.24 0.24 c0.12 0.08 0.24 0.16 0.24 0.24 c0.04 0.08 0.12 0.2 0.2 0.24 c0.08 0.08 0.12 0.16 0.12 0.24 s0.04 0.12 0.08 0.12 l0.08 -0.08 l0.04 0 s0.04 0.04 0.04 0.12 s0 0.2 0.04 0.2 l0.04 0.68 c0 0.56 -0.04 1.2 -0.08 1.28 c-0.04 0.16 -0.08 0.6 -0.08 0.88 c0 0.08 0 0.16 -0.04 0.2 c-0.04 0.12 -0.04 0.28 -0.04 0.76 c-0.04 0.2 -0.04 0.4 -0.08 0.4 s-0.04 0.08 -0.04 0.16 l-0.04 0.2 c-0.04 0 -0.04 0 -0.04 0.04 l0 0.04 c0 0.04 0 0.12 -0.04 0.2 l-0.04 0.12 l0.08 0.12 l-0.08 0.08 l0.08 0.08 l-0.08 0.2 c-0.04 0.08 -0.04 0.24 -0.04 0.32 c0 0.04 -0.04 0.12 -0.08 0.12 s-0.04 0.04 -0.04 0.08 l0.04 0.08 c0.04 0 0.08 0.04 0.08 0.08 l-0.04 0.16 l-0.04 0.24 l0.04 0.04 l-0.04 0.12 c-0.04 0.08 -0.04 0.24 -0.04 0.36 s0 0.2 -0.04 0.2 s-0.04 0 -0.04 0.04 l0 0.04 c0.04 0.04 0.04 0.44 0.04 0.84 l0.04 0.88 l0.08 -0.08 l0.04 0.04 l-0.08 0.12 c-0.08 0.04 -0.08 0.08 -0.08 0.16 c0.04 0.16 0.12 1.08 0.12 1.64 c0 0.2 0 0.36 -0.04 0.36 s-0.08 0.08 -0.08 0.16 l0.04 0.16 c0.08 0.08 0.12 0.24 0.12 0.32 l0 0.08 c-0.04 0 -0.04 0.04 -0.04 0.08 l-0.04 0.24 l-0.08 0.36 c0 0.08 0 0.16 -0.04 0.2 l-0.04 0.16 c0 0.12 0 0.12 -0.12 0.12 l-0.04 0 c-0.04 0 -0.04 0.04 -0.04 0.16 c0 0.08 0 0.12 -0.04 0.12 l-0.08 -0.08 z M36.879999999999995 22.48 l-0.12 0 c-0.04 0 -0.04 -0.04 -0.04 -0.08 c0 0 0 -0.04 0.08 -0.04 c0.04 0 0.08 0 0.08 0.08 l0 0.04 z M37.04 22.56 l-0.04 -0.04 l0.08 -0.08 l0.08 0.08 z M38.839999999999996 24.560000000000002 l0.04 -0.04 l0.04 -0.16 c-0.04 0 -0.04 0 -0.04 0.04 c-0.04 0.04 -0.08 0.08 -0.08 0.12 z M32.199999999999996 33.76 l0.28 -0.04 c0.12 0 0.28 -0.04 0.32 -0.08 l0.16 -0.08 c0.12 -0.04 0.48 -0.2 0.6 -0.32 l0.32 -0.24 l0.16 -0.16 c0.08 -0.16 0.2 -0.28 0.28 -0.28 s0.52 -0.56 0.52 -0.68 l0 -0.04 l0.08 -0.16 c-0.04 -0.12 -0.04 -0.12 -0.16 -0.12 l-0.2 -0.04 c-0.04 0 -0.04 0.04 -0.04 0.08 c-0.04 0 -0.04 -0.04 -0.04 -0.08 s0.04 -0.08 0.12 -0.12 l0.08 -0.04 l0 -0.16 l0.04 -0.04 c0.08 0 0.16 0.08 0.16 0.12 l-0.08 0 c-0.04 0 -0.08 0.04 -0.08 0.12 l0 0.12 c0.24 -0.2 0.48 -0.32 0.56 -0.68 c0.04 -0.12 0.12 -0.24 0.24 -0.24 c0.08 0 0.12 -0.04 0.12 -0.08 s0 -0.04 0.04 -0.04 l0.08 0 l0 -0.04 c0 -0.08 0.04 -0.12 0.08 -0.12 s0.08 -0.04 0.08 -0.08 l-0.04 -0.12 l0.08 0.04 s0.04 0 0.04 -0.04 s0.04 -0.04 0.08 -0.04 s0.08 -0.04 0.08 -0.08 c0 -0.08 0 -0.08 -0.04 -0.08 l-0.04 0.04 l0 -0.04 c0 -0.04 0 -0.16 0.08 -0.28 c0.04 -0.04 0.08 -0.12 0.08 -0.2 l0 -0.08 l0.2 0 c0.04 0 0.08 0 0.08 -0.04 l0 -0.08 c0 -0.12 0.04 -0.2 0.2 -0.32 c0.12 -0.12 0.16 -0.16 0.16 -0.28 l0 -0.08 c0 -0.2 0.08 -0.4 0.2 -0.4 c0.04 0 0.08 -0.04 0.08 -0.08 c0 -0.08 0.04 -0.12 0.08 -0.12 l0.04 0 s0.04 -0.04 0.04 -0.24 l0 -0.04 l0.04 0 l0.08 -0.12 c0 -0.08 0.04 -0.16 0.08 -0.16 s0.04 -0.04 0.04 -0.08 l-0.04 -0.08 l0.08 -0.04 c0.04 0 0.08 -0.04 0.08 -0.12 l0.04 -0.16 c0.04 0 0.08 -0.04 0.08 -0.08 s0.04 -0.04 0.08 -0.04 l0.04 0 c0.04 0 0.04 -0.04 0.04 -0.2 c0 -0.04 0.04 -0.08 0.12 -0.12 c0.08 0 0.08 -0.04 0.08 -0.12 l0 -0.12 c0.04 0 0.08 -0.08 0.08 -0.12 c0 -0.08 0.04 -0.2 0.12 -0.28 c0.12 -0.16 0.16 -0.28 0.16 -0.4 c0 -0.16 -0.08 -0.24 -0.28 -0.24 l-0.16 0 c-0.36 0.04 -0.92 0.24 -0.92 0.32 c0 0.04 -0.04 0.04 -0.08 0.04 l-0.04 0 c-0.08 0 -0.48 0.24 -0.48 0.28 c0 0.08 -0.12 0.2 -0.32 0.32 l-0.36 0.28 c-0.08 0.12 -0.16 0.16 -0.2 0.16 c0 -0.04 0.04 -0.12 0.12 -0.16 l0.04 -0.12 c-0.04 0 -0.16 0.12 -0.32 0.28 l-0.4 0.32 c-0.12 0.12 -0.52 0.56 -0.52 0.6 c0.04 0 0.24 -0.2 0.48 -0.44 s0.48 -0.4 0.48 -0.4 l0 0.04 c0 0.04 -0.08 0.12 -0.16 0.2 c-0.12 0.08 -0.2 0.2 -0.2 0.2 s-0.16 0.2 -0.36 0.36 l-0.36 0.36 c0 0.04 -0.12 0.16 -0.24 0.32 c-0.16 0.2 -0.28 0.32 -0.28 0.36 l-0.08 0.04 l-0.04 -0.04 c0 -0.08 0.2 -0.32 0.44 -0.6 c0.12 -0.12 0.2 -0.2 0.2 -0.24 c-0.08 0 -0.24 0.16 -0.68 0.68 l-0.16 0.24 l0.12 -0.04 c0 0.08 -0.08 0.16 -0.2 0.36 c-0.28 0.4 -0.4 0.56 -0.4 0.64 l0.04 0.08 l-0.08 -0.04 l-0.2 0.08 l0.04 -0.08 c0 -0.04 0 -0.08 -0.08 -0.08 c-0.04 0 -0.08 0.04 -0.08 0.08 s0 0.08 -0.04 0.08 s-0.16 0.24 -0.16 0.4 l0 0.04 c0 0.04 0 0.04 -0.04 0.04 l-0.08 0 c0 0.04 0 0.08 -0.04 0.08 s-0.04 0 -0.04 0.04 l-0.08 0.24 l-0.08 0.16 l0.08 0.08 l-0.04 0.04 c-0.04 0 -0.04 0.08 -0.04 0.12 s0 0.04 -0.04 0.04 s-0.12 0.08 -0.16 0.2 l-0.12 0.24 c-0.04 0 -0.04 0 -0.04 0.04 l0 0.04 l-0.12 0.32 c-0.12 0.28 -0.16 0.4 -0.16 0.48 l0.04 0.08 l0.04 0.04 l-0.08 0.08 c-0.04 0.04 -0.08 0.08 -0.08 0.12 l0.08 0.56 l0.04 0.12 c0.04 0.04 0.04 0.12 0.04 0.24 c0 0.16 0.04 0.16 0.16 0.16 l0.2 0 z M36.879999999999995 26 l-0.08 0 l-0.04 -0.04 l0 -0.04 z M37.839999999999996 26.48 l0.04 -0.2 l0.08 -0.04 l0 0.04 l-0.08 0.16 z M31.879999999999995 26.72 l0.08 -0.04 c0 -0.04 0 -0.08 -0.04 -0.08 l-0.04 0.08 l0 0.04 z M38.64 26.759999999999998 l0 -0.04 c0 -0.04 0 -0.04 -0.04 -0.04 s-0.04 0 -0.04 0.04 z M37.919999999999995 28.04 c0 0 0.08 -0.04 0.08 -0.08 s0 -0.04 -0.04 -0.04 s-0.08 0.04 -0.12 0.08 c0 0.04 0 0.04 0.04 0.04 l0.04 0 z M38.519999999999996 28.72 l0.04 -0.04 l0 -0.08 c-0.04 0 -0.08 0.04 -0.08 0.08 z M31.159999999999997 28.96 l0.04 -0.08 l-0.04 -0.04 l-0.08 0.08 c0 0.04 0.04 0.04 0.08 0.04 z M33.4 28.96 l0.08 -0.08 l-0.04 -0.04 l-0.08 0.08 c0 0.04 0.04 0.04 0.04 0.04 z M33.08 29.4 l0.08 -0.08 c0.04 -0.04 0.08 -0.08 0.08 -0.12 c-0.08 0 -0.2 0.12 -0.2 0.16 z M36.959999999999994 29.32 c0.04 0 0.08 -0.04 0.08 -0.08 l-0.04 0 c-0.04 0.04 -0.08 0.04 -0.08 0.08 l0.04 0 z M38.44 30 c0.08 0 0.2 -0.2 0.24 -0.32 l0 -0.12 l-0.04 0.08 c-0.04 0.08 -0.08 0.16 -0.12 0.16 c-0.04 0.04 -0.08 0.08 -0.08 0.16 l0 0.04 z M40.839999999999996 29.84 l0.04 -0.04 l0 -0.08 l-0.04 0 s-0.04 0 -0.04 0.04 c0 0.08 0 0.08 0.04 0.08 z M32.879999999999995 29.92 c-0.04 0 -0.04 -0.04 -0.04 -0.08 c0 0 0.04 0 0.04 -0.04 c0.04 0 0.04 0 0.04 0.04 l0.04 0.04 c0 0.04 0 0.04 -0.08 0.04 z M38.239999999999995 30.36 l0.08 -0.12 l-0.04 0 l-0.04 0.08 l0 0.04 z M38.44 30.72 l0.16 -0.32 c-0.04 0 -0.04 0.04 -0.12 0.08 l-0.08 0.2 z M32.08 30.8 l0.08 -0.04 c0 -0.04 -0.04 -0.04 -0.08 -0.08 l-0.08 0 l0 0.08 z M38.4 30.880000000000003 l0.04 -0.08 c-0.04 -0.04 -0.08 -0.08 -0.12 -0.08 l-0.04 0 z M34.839999999999996 31.08 c-0.04 0 -0.04 0 -0.04 -0.04 l0 -0.04 c0 -0.04 0.04 -0.08 0.08 -0.08 s0.04 0 0.04 0.04 s-0.04 0.08 -0.08 0.12 z M37.72 31.16 l0.08 -0.04 l0.08 -0.16 s0 -0.04 -0.04 -0.04 s-0.04 0.04 -0.04 0.04 l0 0.04 z M38.64 31.240000000000002 c0.04 0 0.08 -0.04 0.08 -0.12 s-0.04 -0.16 -0.08 -0.16 l-0.04 0 c-0.08 0 -0.16 0.04 -0.16 0.12 l0 0.04 l0.12 -0.04 c0.04 0 0.04 0 0.04 0.04 l0 0.08 c0 0.04 0.04 0.04 0.04 0.04 z M31.839999999999996 31.2 c0.04 0 0.08 -0.04 0.08 -0.08 l0 -0.08 s0 0.04 -0.04 0.04 c-0.04 0.04 -0.08 0.08 -0.08 0.12 l0.04 0 z M38.16 31.439999999999998 l-0.08 -0.12 c0 -0.08 -0.04 -0.08 -0.04 -0.08 l-0.04 0 c0 0.12 0.08 0.2 0.16 0.2 z M38.239999999999995 31.560000000000002 l0.08 -0.04 l0.04 -0.16 c0 -0.04 -0.04 -0.04 -0.04 -0.04 l-0.04 0.08 z M38 31.64 l0 -0.08 l-0.08 -0.12 c-0.04 0 -0.08 0 -0.08 0.04 c0 0.12 0.12 0.16 0.16 0.16 z M37.08 31.68 c0.04 0 0.08 -0.04 0.08 -0.08 l0.04 -0.08 l-0.04 0 c-0.04 0 -0.04 0.04 -0.08 0.08 l-0.04 0.04 z M37.36 31.72 c0.04 0 0.08 -0.04 0.12 -0.08 l0.04 -0.08 z M38 31.96 l0.12 -0.16 l0.04 -0.08 l-0.04 -0.04 l-0.12 0.16 l-0.04 0.08 z M37.72 31.880000000000003 c0.08 0 0.12 0 0.12 -0.04 l0 -0.04 c0 -0.08 0 -0.08 -0.04 -0.08 l-0.08 0.04 l-0.12 0.08 c0 0.04 0.04 0.04 0.12 0.04 z M34.44 31.84 c-0.04 0 -0.04 0 -0.04 -0.04 l0.08 -0.04 c0.04 0 0.04 0 0.04 0.04 z M37.64 32.16 l0.04 -0.04 c0.04 -0.04 0.04 -0.08 0.04 -0.12 l-0.04 0 c-0.04 0 -0.04 0 -0.04 0.08 l0 0.08 z M37.519999999999996 32.32 c0.04 0 0.04 0 0.04 -0.04 l-0.04 -0.08 c-0.04 0 -0.04 0 -0.04 0.04 s0 0.08 0.04 0.08 z M37.959999999999994 32.32 c0.04 0 0.04 -0.04 0.04 -0.08 s0 -0.04 -0.04 -0.04 l-0.08 0.08 c0 0.04 0.04 0.04 0.08 0.04 z M37.36 32.56 l0.04 -0.08 l-0.04 -0.04 c-0.04 0 -0.04 0.04 -0.04 0.04 c0 0.04 0 0.08 0.04 0.08 z M37.239999999999995 32.8 l0.04 -0.04 c0.04 -0.04 0.08 -0.08 0.08 -0.12 l-0.04 0 l-0.08 0.08 l0 -0.08 l-0.04 0 c-0.04 0 -0.04 0.04 -0.04 0.12 z M37.559999999999995 32.88 c0.04 0 0.04 -0.04 0.08 -0.08 l0 -0.04 c-0.04 0 -0.08 0.04 -0.08 0.08 l0 0.04 z M33.68 33 l-0.08 -0.08 c0 -0.04 0 -0.04 0.04 -0.04 l0.08 0.04 c0 0.04 0 0.08 -0.04 0.08 z M36.08 34.56 l0.12 -0.04 l0.04 -0.08 s0 -0.04 -0.04 -0.04 s-0.12 0.04 -0.12 0.12 l0 0.04 z M46.36 47.480000000000004 c-0.04 0 -0.08 -0.04 -0.12 -0.08 l0.04 0 l0 -0.04 c0 -0.04 0 -0.04 0.04 -0.04 l0.04 0 l0.16 -0.08 l0.04 -0.08 c0 -0.04 -0.04 -0.04 -0.12 -0.04 s-0.2 0.04 -0.24 0.08 c-0.08 0.08 -0.28 0.12 -0.44 0.12 l-0.12 -0.04 l0.04 -0.08 l-0.04 0 c-0.04 0 -0.08 0.04 -0.08 0.08 s-0.08 0.08 -0.16 0.08 c-0.04 0 -0.08 0 -0.08 -0.04 c-0.04 -0.04 -0.2 -0.12 -0.32 -0.12 c-0.04 0 -0.08 0 -0.08 0.04 s0.04 0.08 0.08 0.08 s0.04 0 0.04 0.04 s0 0.04 -0.04 0.04 l-0.04 0 l-0.08 -0.04 l0 -0.04 c0 -0.04 0 -0.04 -0.04 -0.04 l-0.08 0 l-0.08 -0.04 c-0.04 -0.08 -0.08 -0.08 -0.08 -0.08 c0 0.04 -0.08 0.04 -0.2 0.04 l-0.16 -0.04 l0 -0.04 l-0.08 -0.04 c-0.04 0 -0.08 0.04 -0.08 0.08 l-0.08 0 c-0.04 0 -0.08 0 -0.12 0.04 l-0.04 0.04 c-0.08 0 -0.16 -0.08 -0.16 -0.16 s0 -0.08 -0.08 -0.08 l-0.2 0.04 l-0.08 0.04 l-0.04 -0.08 c0 -0.04 -0.04 -0.08 -0.12 -0.12 l-0.08 -0.04 c-0.04 0 -0.04 0.04 -0.04 0.08 l0.04 0.04 l-0.24 -0.04 l0 -0.12 c0 -0.08 0 -0.12 -0.04 -0.12 l-0.04 0.04 c0 0.04 -0.08 0.04 -0.16 0.04 c-0.2 0 -0.56 -0.12 -0.64 -0.24 c-0.04 -0.04 -0.12 -0.04 -0.2 -0.04 l-0.04 0 c-0.04 0 -0.08 0 -0.08 -0.04 c0 -0.12 -0.28 -0.32 -0.44 -0.32 l-0.04 0 c-0.08 0 -0.48 -0.2 -0.48 -0.28 c0 -0.04 -0.04 -0.04 -0.12 -0.04 c-0.12 -0.04 -0.28 -0.12 -0.28 -0.2 l0.04 0 c0 -0.04 -0.08 -0.08 -0.16 -0.16 l-0.32 -0.16 c-0.08 0 -0.32 -0.52 -0.32 -0.64 l0.04 -0.04 c0.04 0 0.08 0.08 0.08 0.16 c0 0.04 0 0.04 0.04 0.04 l0.08 -0.16 l-0.08 -0.2 l0.04 0.04 l0.12 0 c0 -0.04 0 -0.08 0.04 -0.08 l0.16 -0.08 l0.08 -0.08 l0.16 0.04 c0.16 0.04 0.2 0.12 0.2 0.16 l0 0.04 l0.32 -0.04 l0 0.04 c0 0.04 0 0.04 0.04 0.04 s0.08 0.04 0.08 0.08 s0 0.08 0.04 0.08 s0.04 0 0.04 -0.04 s0.04 -0.08 0.08 -0.08 s0.08 0.04 0.12 0.12 c0.04 0.12 0.28 0.24 0.4 0.24 l0.04 0 c0.04 0 0.12 0.04 0.16 0.12 c0.16 0.16 1.12 0.28 1.8 0.28 c0.2 0 0.4 0 0.52 -0.04 l0.24 -0.04 c0.08 0 0.12 0 0.16 -0.04 c0 -0.04 0.08 -0.04 0.12 -0.04 c0.08 0 0.12 -0.04 0.12 -0.08 s0.04 -0.04 0.04 -0.04 l0.04 0 c0.12 0 0.32 -0.08 0.32 -0.12 c0 -0.12 0.16 -0.24 0.28 -0.24 c0.08 0 0.12 0 0.12 -0.04 l-0.04 -0.04 c0 -0.08 0 -0.12 0.04 -0.12 s0.12 -0.12 0.16 -0.24 c0.08 -0.16 0.16 -0.28 0.2 -0.28 c0.2 -0.12 0.28 -0.2 0.28 -0.28 l-0.04 -0.12 c0 -0.12 0.08 -0.24 0.16 -0.24 c0.04 0 0.12 -0.08 0.16 -0.16 l0.2 -0.52 l0.08 -0.36 l0 -0.16 l0.08 0.12 l0.08 -0.08 l-0.04 -0.04 l0.12 -0.28 l-0.08 -0.2 l0 -0.08 l0.12 0.12 c0.04 0 0.04 -0.04 0.04 -0.12 l0 -0.08 c0 -0.08 0.04 -0.16 0.08 -0.2 l0.08 -0.24 c0 -0.08 0.04 -0.16 0.08 -0.24 l0.16 -0.32 c0 -0.04 0 -0.04 -0.04 -0.04 l-0.04 0 l0.04 -0.12 c0.04 -0.08 0.08 -0.2 0.12 -0.2 l0 -0.08 c0 -0.04 0 -0.08 0.04 -0.12 c0.08 -0.04 0.12 -0.16 0.12 -0.24 c0.04 -0.12 0.04 -0.24 0.08 -0.28 l0.04 -0.08 l-0.04 -0.04 l-0.08 0.04 l0.08 -0.08 l0.16 -0.2 c0 -0.04 -0.04 -0.04 -0.12 -0.04 l-0.04 0 l0.04 -0.04 l0.04 -0.08 l-0.04 -0.08 l0.04 -0.04 c0.08 -0.08 0.12 -0.32 0.12 -0.72 l0.12 -0.24 c0.08 -0.08 0.08 -0.12 0.08 -0.32 l-0.04 -0.16 c0 -0.04 0 -0.04 0.04 -0.04 l0.04 0 l0.04 -0.08 c0.04 -0.56 0.12 -1.16 0.2 -1.28 l0 -0.28 l-0.04 -0.16 l0.04 -0.08 c0.08 -0.04 0.08 -0.12 0.08 -0.28 c0 -0.12 0 -0.28 0.04 -0.36 l0.08 -0.16 l-0.12 0 l0 -0.04 l0.04 -0.04 l0.04 0 c0.08 0 0.08 0 0.08 -0.08 c0 -0.04 0 -0.04 -0.04 -0.04 l-0.08 0 s-0.04 0 -0.04 -0.04 l0.04 -0.12 c0.04 -0.12 0.04 -0.28 0.04 -0.36 s0.04 -0.12 0.08 -0.12 l0.04 0 l0 -0.12 c0 -0.08 -0.04 -0.12 -0.08 -0.12 l-0.04 0 l0 -0.04 c0 -0.08 0 -0.08 0.08 -0.08 l0.04 0 c0.04 0 0.08 -0.08 0.08 -0.16 l-0.04 -0.12 c-0.04 -0.08 -0.04 -0.2 -0.04 -0.28 c0 -0.12 0 -0.2 0.04 -0.2 s0.04 -0.04 0.08 -0.08 l0 -0.04 l-0.04 0 l-0.08 -0.04 c0 -0.04 0 -0.04 0.04 -0.04 l0.08 -0.04 l-0.04 -0.24 c0 -0.04 0 -0.04 0.04 -0.04 l0.08 0.04 l-0.04 -0.08 c-0.04 -0.04 -0.04 -0.12 -0.04 -0.2 c0 -0.16 0.04 -0.32 0.08 -0.4 c0.04 -0.04 0.08 -0.24 0.08 -0.4 l0.04 -0.32 c0.04 -0.04 0.04 -0.24 0.04 -0.44 l0 -0.16 c0 -0.12 0 -0.16 0.04 -0.16 c0 0 0.04 -0.04 0.04 -0.12 s0 -0.12 -0.04 -0.12 l-0.08 0.08 l0 -0.04 l0.2 -0.4 l-0.2 0.12 c-0.04 0 -0.04 -0.04 -0.04 -0.08 l-0.04 -0.08 l-0.04 0.04 c-0.08 0.04 -0.12 0.12 -0.12 0.16 s-0.04 0.08 -0.08 0.12 c-0.04 0 -0.08 0.04 -0.08 0.12 c0 0.04 0 0.04 -0.04 0.04 l-0.08 -0.04 l0.04 0.12 c0 0.08 -0.16 0.2 -0.32 0.2 c-0.08 0 -0.12 0.04 -0.16 0.08 c0 0.04 0.04 0.04 0.12 0.04 l0.08 -0.04 l-0.04 0.12 c-0.04 0.04 -0.12 0.16 -0.2 0.2 c-0.12 0.08 -0.2 0.16 -0.2 0.24 c0 0.04 -0.08 0.12 -0.16 0.12 c-0.12 0 -0.12 0.04 -0.12 0.28 c0 0.08 -0.08 0.16 -0.16 0.16 l-0.12 0 l0 0.04 l-0.08 0.16 c-0.08 0.08 -0.12 0.12 -0.12 0.16 l0 0.04 c0 0.16 -0.04 0.28 -0.08 0.28 s-0.04 -0.08 -0.04 -0.12 l0.04 -0.08 l-0.04 0 s-0.08 0.08 -0.12 0.2 l-0.04 0.2 l0.08 0.12 c0 0.04 -0.04 0.04 -0.12 0.04 c-0.04 0 -0.08 0 -0.08 -0.04 l0 -0.04 c0 -0.04 0 -0.04 -0.04 -0.04 l-0.04 0.08 c0 0.04 -0.04 0.04 -0.08 0.04 l0.04 -0.12 c0.08 -0.04 0.08 -0.12 0.08 -0.12 l-0.04 0 c-0.04 0 -0.28 0.24 -0.28 0.36 c0 0.04 -0.04 0.04 -0.08 0.04 l-0.04 -0.04 l-0.08 0.04 l-0.04 0.4 c0.16 -0.2 0.2 -0.32 0.32 -0.32 c0.04 0 0.04 0 0.04 0.04 s-0.04 0.08 -0.08 0.08 c-0.08 0 -0.12 0 -0.12 0.04 s0.04 0.08 0.12 0.08 l0.08 0.04 l-0.08 0.08 c-0.08 0 -0.12 0 -0.12 -0.04 c-0.04 0 -0.04 0.08 -0.04 0.16 l0 0.12 l-0.04 0 l-0.04 -0.08 l0 -0.04 l-0.2 0.12 c0 0.04 0.04 0.08 0.08 0.12 c0.08 0.04 0.08 0.04 0.08 0.08 l-0.08 0.08 c-0.04 0.04 -0.08 0.08 -0.08 0.12 l0 0.04 c0 0.04 -0.08 0.12 -0.12 0.16 c-0.08 0.08 -0.16 0.16 -0.2 0.24 l-0.04 0.08 l-0.04 0 c-0.08 0 -0.16 0.08 -0.16 0.2 c0 0.04 -0.08 0.08 -0.12 0.08 c-0.08 0 -0.12 0.04 -0.12 0.08 l0.04 0.08 l-0.04 0.04 c-0.04 0 -0.12 0.08 -0.24 0.16 c-0.08 0.04 -0.12 0.12 -0.12 0.16 c0.04 0 0.08 0 0.12 0.04 c0 0.04 -0.08 0.04 -0.2 0.04 s-0.2 0.04 -0.24 0.08 s-0.12 0.08 -0.32 0.08 l-0.28 0 c-0.56 0 -0.76 -0.04 -1.08 -0.28 l-0.12 -0.04 l-0.08 0.04 l0.04 -0.04 c0 -0.04 -0.08 -0.12 -0.2 -0.16 c-0.2 -0.12 -0.4 -0.28 -0.4 -0.36 l-0.92 -1 c-0.04 -0.04 -0.08 -0.08 -0.12 -0.08 l0 -0.08 c0 -0.04 0 -0.04 -0.04 -0.04 l-0.04 0.04 l-0.04 -0.24 c-0.04 -0.08 -0.08 -0.2 -0.08 -0.28 c0 -0.04 -0.04 -0.12 -0.12 -0.16 c-0.04 -0.04 -0.04 -0.04 -0.04 -0.12 l0 -0.12 c0 -0.16 0 -0.2 -0.04 -0.2 c-0.08 0 -0.12 -0.08 -0.12 -0.16 l0.04 -0.16 l0.08 -0.08 l-0.04 0 c-0.04 0 -0.04 -0.08 -0.04 -0.24 l0.08 -0.56 c0 -0.16 -0.04 -0.24 -0.08 -0.24 s-0.08 0 -0.08 -0.04 l0.04 -0.08 c0.08 0 0.2 -0.32 0.2 -0.64 l0.04 -0.28 l0.04 -0.08 l0.08 -0.2 c0.04 -0.12 0.08 -0.28 0.08 -0.4 s0.04 -0.24 0.08 -0.24 c0.08 -0.08 0.32 -0.48 0.32 -0.6 l0 -0.04 l0.04 0 c0.08 0 0.08 -0.04 0.08 -0.04 c0 -0.04 0.04 -0.16 0.12 -0.28 l0.08 -0.16 l0 -0.04 c0 -0.04 0.04 -0.04 0.12 -0.08 c0.12 -0.04 0.16 -0.08 0.16 -0.12 l-0.04 -0.12 l0.08 -0.2 c0.08 -0.08 0.16 -0.28 0.2 -0.36 c0.04 -0.12 0.12 -0.2 0.16 -0.2 s0.04 -0.04 0.04 -0.08 l0 -0.04 c0 -0.08 0.08 -0.2 0.2 -0.24 l0.08 -0.04 l-0.08 -0.08 c0 -0.04 0.04 -0.04 0.08 -0.04 c0.08 0 0.12 -0.04 0.16 -0.12 c0 -0.08 0.04 -0.16 0.08 -0.16 s0.08 -0.04 0.08 -0.08 s0.08 -0.12 0.2 -0.2 c0.08 -0.08 0.2 -0.12 0.2 -0.16 c0 -0.08 0.28 -0.36 0.4 -0.36 l0.04 0 l-0.04 -0.08 l0.04 0 l0.08 0.04 c0.04 -0.04 0 -0.04 -0.04 -0.08 l-0.08 -0.08 c0 -0.04 0.04 -0.04 0.08 -0.08 c0.08 0 0.24 -0.12 0.36 -0.2 c0.08 -0.12 0.2 -0.2 0.24 -0.2 c0.08 0 0.12 -0.08 0.12 -0.2 c0 -0.04 0.08 -0.08 0.16 -0.12 c0.12 -0.04 0.2 -0.12 0.2 -0.12 c0 -0.04 0.04 -0.04 0.08 -0.04 s0.12 -0.04 0.12 -0.12 c0 -0.04 0.08 -0.08 0.12 -0.08 c0.08 0 0.08 -0.04 0.08 -0.08 l0 -0.04 l0.04 0 c0.04 0 0.08 0 0.12 -0.08 c0 -0.04 0.12 -0.12 0.24 -0.2 l0.28 -0.2 l0.16 -0.08 c0.04 0 0.12 -0.04 0.16 -0.12 l0.16 -0.08 c0.04 0 0.12 -0.04 0.2 -0.12 l0.16 -0.08 l0.04 0 l0.16 -0.12 l0.08 -0.08 l0 0.08 c0.04 0 0.08 0 0.12 -0.04 l0.24 -0.12 l0.16 -0.04 l0.04 0.04 l0.04 -0.04 l0.16 -0.04 c0.12 0 0.32 -0.04 0.44 -0.08 c0.08 -0.04 0.16 -0.04 0.2 -0.04 c0.08 0 0.12 0 0.16 0.04 l0.32 0.08 l0.04 0 c0.08 0 0.44 0.12 0.72 0.24 l0.2 0.04 l0.16 0 c0.16 0 0.4 0.08 0.56 0.16 c0.04 0.04 0.12 0.04 0.2 0.04 c0.04 0 0.16 0.04 0.24 0.12 s0.16 0.08 0.2 0.08 l0.04 -0.04 l-0.04 0.04 c0 0.04 0 0.08 0.08 0.12 c0.04 0.04 0.12 0.16 0.16 0.28 c0.04 0.16 0.12 0.24 0.24 0.32 c0.24 0.12 0.48 0.48 0.48 0.84 l-0.04 0.48 l-0.04 0.08 l0.12 0 l0.04 0.04 l-0.08 0.76 c0 0.2 0 0.36 -0.04 0.4 l-0.04 0.08 l0.04 0.08 c0 0.08 0 0.12 -0.04 0.16 l-0.04 0.2 l0.04 0.2 l-0.04 0.32 c-0.04 0.12 -0.04 0.24 -0.04 0.32 c0 0.12 0 0.16 0.04 0.24 l0 0.04 c0 0.04 -0.04 0.08 -0.08 0.12 l-0.04 0.12 l0.08 0.16 l-0.04 0.08 c-0.08 0.08 -0.08 0.16 -0.08 0.24 l0 0.08 c0 0.08 -0.04 0.16 -0.08 0.2 l-0.04 0.08 l0.08 0 l0.12 0.04 l0.08 0.12 c0 0.04 0 0.04 -0.04 0.04 l-0.08 0 c-0.04 0 -0.08 0.04 -0.08 0.24 c0 0.12 0.04 0.24 0.08 0.24 l0.04 0.12 l-0.04 0.08 c-0.04 0 -0.08 0 -0.08 0.04 l0 0.24 l0.04 0.2 c0 0.12 0 0.16 -0.04 0.2 c-0.08 0.04 -0.08 0.08 -0.08 0.12 l0.16 0 l-0.08 0.12 c-0.08 0.04 -0.12 0.16 -0.12 0.28 s0.04 0.12 0.12 0.12 l0.08 0 l-0.12 0.2 l0 -0.04 l-0.04 -0.08 c-0.04 0 -0.12 0.12 -0.12 0.2 l0.04 0.08 l0.04 0.04 l-0.04 0.04 l0 0.32 c0 0.16 -0.04 0.28 -0.04 0.28 c-0.04 0 -0.04 0.08 -0.04 0.16 s0 0.16 -0.04 0.16 l-0.12 0.16 l-0.04 0.08 l0.08 0 c0.08 0 0.12 0.08 0.12 0.16 c0 0.04 -0.04 0.12 -0.08 0.12 l-0.04 0.04 l0.08 0.08 l-0.08 0 c-0.04 0 -0.08 0 -0.08 -0.04 c-0.04 0 -0.12 0.12 -0.12 0.2 c0 0.04 0 0.08 0.04 0.08 s0.08 -0.04 0.08 -0.08 s0.04 -0.08 0.08 -0.08 l0.08 0.04 l-0.04 0.12 l-0.04 0.4 c-0.04 0.28 -0.08 0.36 -0.16 0.36 l-0.08 0 c-0.08 0 -0.12 0 -0.12 0.04 l0 0.04 l-0.04 0 c-0.04 0 -0.08 0.04 -0.08 0.08 l0.36 0 l0 0.32 c0 0.16 0 0.32 -0.04 0.32 l0 0.12 c0 0.08 0 0.2 -0.04 0.24 s-0.04 0.12 -0.04 0.2 l0 0.16 c0 0.2 0 0.44 -0.08 0.44 l-0.04 0.24 l0 0.2 l-0.04 -0.08 c-0.04 -0.08 -0.08 -0.12 -0.12 -0.12 l-0.04 0 c-0.08 0 -0.12 0.04 -0.12 0.04 c0 0.04 0.04 0.08 0.12 0.08 s0.12 0.04 0.12 0.08 l-0.04 0.04 c-0.04 0.04 -0.04 0.08 -0.04 0.12 c0 0 0 0.04 0.04 0.04 c0.08 0 0.08 0.04 0.08 0.08 c0 0.08 -0.08 0.16 -0.16 0.2 s-0.16 0.16 -0.16 0.24 c0 0 0 0.04 0.04 0.04 s0.04 -0.04 0.04 -0.12 l0 -0.04 c0 -0.04 0.04 -0.04 0.12 -0.08 c0.12 0 0.16 0 0.16 0.12 l-0.04 0.08 l-0.04 0 c-0.04 0 -0.04 0.04 -0.04 0.2 l0.04 0.16 c0 0.04 -0.04 0.12 -0.12 0.16 l-0.08 0.08 l0.08 0 c0.04 0 0.04 0 0.04 0.08 l0 0.12 c0 0.12 -0.04 0.24 -0.08 0.24 c-0.04 0.04 -0.08 0.08 -0.08 0.12 l0.04 0.04 l0.08 0 c0.04 0 0.04 0.04 0.04 0.08 l0 0.08 c-0.04 0.04 -0.12 0.24 -0.12 0.4 c-0.08 0.24 -0.12 0.36 -0.2 0.4 l-0.08 0.04 l0.04 0.04 c0.08 0.04 0.08 0.12 0.08 0.2 c0 0.04 0 0.12 -0.04 0.12 l-0.04 0.04 l0.04 0.12 c0 0.12 -0.04 0.24 -0.12 0.24 s-0.2 0.16 -0.2 0.24 l0.04 0.2 c0 0.12 -0.08 0.32 -0.12 0.32 s-0.04 0 -0.04 -0.04 l0 -0.04 c0 -0.04 0 -0.04 -0.04 -0.04 c0 -0.04 0 -0.04 0.04 -0.04 c0.08 0 0.08 -0.04 0.08 -0.04 l-0.04 -0.04 c-0.08 0 -0.16 0.12 -0.2 0.28 l0 0.12 c0 0.04 0 0.08 0.04 0.08 l0.16 -0.08 l0.08 0.2 l-0.04 0.04 c-0.04 0 -0.04 0 -0.04 -0.08 l0 -0.08 l-0.16 0.08 l-0.04 0 s-0.04 0 -0.04 0.08 l-0.04 0.04 l-0.08 -0.04 l-0.04 -0.08 l0.04 0.08 l0.04 0.32 c0 0.08 0 0.16 0.04 0.16 l0.08 0.04 l-0.12 0.08 c-0.08 0 -0.12 0.04 -0.12 0.08 s0.04 0.08 0.12 0.12 l0.08 0.04 l-0.04 0.04 c-0.04 0 -0.04 0 -0.04 0.04 l0.04 0.04 l-0.2 -0.08 c-0.08 0 -0.12 0.04 -0.12 0.08 l0.08 0.12 l0 -0.08 c0 -0.04 0 -0.04 0.04 -0.04 l0.04 0.16 c0 0.12 -0.04 0.2 -0.08 0.28 l-0.08 0.24 l0.08 0.2 l-0.04 0.08 l-0.08 0.04 l0.08 -0.16 l-0.08 0.04 c-0.04 0.08 -0.08 0.16 -0.08 0.24 c0 0.04 -0.04 0.12 -0.08 0.12 c-0.04 0.04 -0.04 0.08 -0.04 0.16 l0 0.04 s0 0.04 -0.04 0.04 s-0.04 0.04 -0.04 0.12 s-0.04 0.12 -0.08 0.12 s-0.04 0 -0.04 0.04 l0 0.04 s0 0.04 -0.04 0.04 l-0.08 0.12 c0 0.08 -0.08 0.16 -0.16 0.2 s-0.12 0.08 -0.12 0.16 c-0.04 0.08 -0.04 0.12 -0.08 0.12 l-0.08 -0.04 l-0.04 -0.04 l0 0.08 c0.04 0.04 0.04 0.08 0.04 0.12 l0.08 0 c0.08 0 0.12 0.04 0.12 0.12 l-0.04 0.08 c-0.04 0.04 -0.08 0.08 -0.08 0.12 c-0.04 0.2 -0.12 0.36 -0.24 0.36 c-0.08 0 -0.12 0.04 -0.12 0.08 c0 0.08 -0.04 0.12 -0.08 0.12 c-0.08 0.04 -0.08 0.08 -0.08 0.2 l0.04 0.08 c0 0.04 -0.04 0 -0.04 0 l-0.04 -0.08 l-0.04 0.08 c0 0.08 0 0.12 -0.04 0.12 l-0.04 0.04 l0.04 0.04 c0 0.12 -0.08 0.2 -0.28 0.24 c-0.04 0 -0.04 0.04 -0.04 0.12 l0 0.12 c-0.12 0 -0.48 0.4 -0.48 0.52 c0 0.08 -0.04 0.12 -0.32 0.12 l-0.32 0.16 c-0.04 0 -0.08 -0.04 -0.08 -0.12 l-0.04 0.04 c-0.08 0.16 -0.2 0.24 -0.28 0.24 z M48.44 24.880000000000003 l0.04 -0.08 c0 -0.04 0 -0.04 -0.04 -0.04 l-0.08 0.04 z M43.08 32.2 c0.04 0 0.16 -0.08 0.32 -0.2 c0.12 -0.12 0.24 -0.28 0.24 -0.36 l0.2 -0.28 c0.12 -0.12 0.2 -0.2 0.2 -0.24 c0 0 0.04 -0.08 0.12 -0.12 c0.08 0 0.16 -0.08 0.16 -0.12 c0 -0.12 0.16 -0.4 0.36 -0.72 c0.04 -0.04 0.04 -0.08 0.08 -0.08 l0.04 0 c0.04 0 0.08 -0.04 0.08 -0.12 c0.04 -0.04 0.08 -0.08 0.2 -0.08 l0.08 0 c0 -0.04 0 -0.04 -0.08 -0.08 l-0.04 -0.08 l0.12 -0.24 c0.04 -0.08 0.28 -0.36 0.32 -0.36 l0 0.12 l0.04 -0.08 c0.08 -0.08 0.2 -0.32 0.32 -0.48 c0.12 -0.2 0.16 -0.24 0.24 -0.24 l0.16 0 l-0.08 -0.08 l-0.04 -0.08 c0 -0.08 0 -0.12 0.08 -0.2 l0.4 -0.44 c0.12 -0.16 0.28 -0.32 0.28 -0.36 s0.04 -0.08 0.08 -0.12 c0.08 -0.04 0.2 -0.28 0.2 -0.36 c0 -0.04 0.04 -0.08 0.08 -0.08 c0.08 -0.04 0.12 -0.12 0.12 -0.16 s0 -0.04 -0.04 -0.04 s-0.04 -0.04 -0.04 -0.08 c0.04 -0.04 0.08 -0.08 0.12 -0.08 c0.08 0 0.12 -0.04 0.12 -0.16 c0.04 -0.12 0.04 -0.2 0.08 -0.2 s0.04 -0.04 0.04 -0.08 c0 -0.12 0.16 -0.4 0.28 -0.4 l0.04 0 c0.04 0 0.12 -0.12 0.12 -0.2 l0 -0.08 c0.04 0 0.12 -0.08 0.2 -0.16 l0.08 -0.12 l-0.12 0.04 l0 -0.08 l-0.04 0 c-0.08 0 -0.28 0.12 -0.44 0.28 c-0.08 0.08 -0.2 0.12 -0.24 0.12 s-0.16 0.08 -0.28 0.2 s-0.2 0.16 -0.24 0.16 l-0.24 0.2 c-0.12 0.16 -0.24 0.24 -0.24 0.24 c-0.04 0 -0.08 0.04 -0.16 0.12 l-0.2 0.16 c-0.08 0 -0.28 0.24 -0.32 0.36 l-0.16 0.08 c-0.08 0 -0.12 0 -0.12 0.04 l0.04 0.08 c0 0.08 0 0.12 -0.12 0.2 c-0.08 0 -0.16 0.08 -0.2 0.16 s-0.12 0.2 -0.2 0.24 c-0.08 0 -0.12 0.08 -0.12 0.12 l0 0.04 c0 0.04 -0.04 0.12 -0.12 0.2 s-0.16 0.2 -0.2 0.32 c-0.04 0.08 -0.08 0.16 -0.12 0.16 l-0.08 0.12 c0 0.08 -0.08 0.16 -0.12 0.16 l-0.04 0 l-0.08 0.32 c-0.08 0.12 -0.12 0.24 -0.12 0.28 s0 0.04 -0.04 0.04 s-0.08 0.04 -0.12 0.08 c0 0.08 -0.04 0.12 -0.08 0.12 l-0.04 0.04 l0.08 0.08 l0.16 -0.04 c0 0.04 -0.08 0.12 -0.16 0.2 c-0.08 0.04 -0.12 0.16 -0.12 0.24 s-0.04 0.16 -0.08 0.2 l-0.04 0.04 l0.04 0.08 c0 0.08 0 0.08 -0.04 0.08 l-0.08 0 c-0.04 0 -0.08 0.04 -0.12 0.08 l-0.04 0.08 l0.12 0 c0.04 0 0.04 0.04 0.04 0.08 l-0.04 0.12 l-0.04 0 l-0.04 -0.04 l-0.04 0.08 l-0.16 0.2 l-0.04 0.04 l0.16 0.08 l0.04 0.04 l-0.04 0.04 c-0.04 0 -0.04 0.04 -0.04 0.12 l0 0.08 c0 0.16 0 0.2 -0.12 0.24 c-0.08 0 -0.16 0.04 -0.16 0.08 l0.04 0.04 l0.04 -0.04 l0.04 0.12 c0 0.12 -0.04 0.24 -0.08 0.28 l-0.04 0.04 l0.04 0 z M43.16 25.64 l0.2 -0.2 c0 -0.04 -0.04 -0.04 -0.04 -0.04 c-0.04 0 -0.12 0.08 -0.16 0.16 l-0.04 0.08 l0.04 0 z M42.879999999999995 26 c0.04 0 0.08 0 0.08 -0.04 l-0.04 -0.08 l-0.08 0.12 l0.04 0 z M49.31999999999999 26.16 l-0.16 -0.08 l0 0.04 c0 0.04 0.04 0.04 0.08 0.04 l0.08 0 z M45 26.8 l0.08 -0.04 l0.04 -0.08 l-0.04 -0.04 l-0.12 0.12 z M46.8 26.880000000000003 c0 -0.04 0.04 -0.08 0.08 -0.12 l0.08 -0.04 l0.04 0 c0 0.04 -0.04 0.08 -0.12 0.12 z M49.12 26.96 l0 -0.12 c-0.04 0 -0.04 0 -0.04 0.04 c0 0.08 0.04 0.08 0.04 0.08 z M48.8 27.439999999999998 c0.04 0 0.04 -0.04 0.04 -0.08 c-0.04 -0.04 -0.08 -0.04 -0.12 -0.04 l0 0.04 c0 0.04 0.04 0.08 0.08 0.08 z M49.36 27.48 l0 -0.12 l-0.04 -0.04 l0 0.08 c0 0.04 0 0.08 0.04 0.08 z M49.239999999999995 27.72 c0.04 0 0.08 -0.04 0.08 -0.08 l-0.08 -0.04 l-0.04 0.08 z M48.44 27.880000000000003 l0 -0.16 l-0.04 0.08 z M48.919999999999995 28.36 c0.04 0 0.04 -0.04 0.08 -0.24 l0 -0.16 c-0.08 0.08 -0.12 0.28 -0.12 0.36 l0 0.04 l0.04 0 z M51.839999999999996 28.04 l0 -0.04 l-0.04 0 l-0.08 0.04 l0.12 0 z M51.8 28.28 l0 -0.12 l-0.04 -0.04 l0 0.08 c0 0.04 0 0.08 0.04 0.08 z M48.72 29.2 c0.04 0 0.12 -0.08 0.16 -0.16 s0.08 -0.12 0.12 -0.12 l0.04 0 l0 -0.04 c0 -0.08 0 -0.08 0.04 -0.08 l0.04 0 l0 -0.16 c0 -0.04 0 -0.04 0.04 -0.04 s0.08 0 0.08 -0.04 s0 -0.04 -0.04 -0.04 l-0.16 0.08 c-0.04 0.04 -0.08 0.08 -0.08 0.12 l0.08 0.04 l-0.08 0.08 c-0.04 0.04 -0.08 0.08 -0.12 0.08 l-0.08 -0.04 l0.04 0.16 l-0.04 0.04 c-0.04 0 -0.08 0 -0.08 0.04 z M47.919999999999995 28.84 l0.08 -0.08 l0.04 -0.08 c-0.04 0 -0.08 0.04 -0.12 0.08 l0 0.08 z M41.16 29 l0.04 -0.04 c0.04 -0.04 0.04 -0.12 0.04 -0.12 l0 -0.04 l-0.04 0 c-0.04 0.04 -0.08 0.08 -0.08 0.16 c0 0.04 0 0.04 0.04 0.04 z M42.76 29.08 l0.04 -0.08 l-0.08 -0.04 c-0.04 0 -0.04 0.04 -0.04 0.04 z M48.16 29.240000000000002 l0 -0.12 c0 -0.04 0 -0.12 -0.04 -0.12 l-0.04 0.04 l0.04 0.08 c0 0.08 0.04 0.12 0.04 0.12 z M47.4 29.32 l0.08 -0.04 l0.04 -0.12 l0 -0.04 l-0.08 -0.04 l-0.04 0.16 l0 0.08 z M49.28 29.28 c0.04 0 0.12 -0.04 0.12 -0.08 c0 0 -0.04 -0.04 -0.12 -0.04 l-0.04 0 s-0.04 0 -0.04 0.04 s0.04 0.08 0.08 0.08 z M48.72 29.52 l-0.04 -0.12 c-0.04 -0.04 -0.08 -0.08 -0.12 -0.08 l0 0.04 l0.04 0.08 l0.08 0.08 l0.04 0 z M48.36 29.64 l0.04 -0.04 l0.04 -0.08 l0 -0.04 l-0.08 0.08 l0 0.08 z M47.8 29.72 l0.08 -0.04 l0.08 -0.16 l-0.04 0 z M47.08 29.68 l0.08 -0.08 l-0.04 -0.04 l-0.04 0 c-0.04 0.04 -0.08 0.04 -0.08 0.08 s0.04 0.04 0.08 0.04 z M48.839999999999996 29.8 l0.12 -0.2 l0 0.04 c0 0.04 -0.04 0.08 -0.08 0.12 z M47.839999999999996 30.439999999999998 c0.04 0 0.04 -0.04 0.04 -0.08 c0 -0.08 0.04 -0.08 0.08 -0.08 l0.04 0 l0.04 -0.16 l0 -0.08 c0 -0.08 0 -0.12 -0.04 -0.12 l-0.04 0.04 l0.04 0.12 c0 0.08 0 0.12 -0.04 0.12 s-0.08 0.08 -0.12 0.12 l-0.04 0.08 z M44.599999999999994 30.439999999999998 l0.08 -0.04 c0.04 0 0.08 -0.04 0.08 -0.08 l-0.08 0 c0 0.04 -0.04 0.04 -0.04 0.04 z M51.44 30.6 l0.08 -0.04 c0 -0.04 0 -0.08 -0.04 -0.08 l-0.08 0.08 z M47.68 30.6 l0.08 -0.04 c0 -0.04 -0.04 -0.04 -0.08 -0.04 l-0.08 0.04 z M47 30.759999999999998 c0.04 0 0.08 -0.04 0.12 -0.08 l0.04 -0.08 l-0.08 0.04 z M40.48 30.880000000000003 l-0.08 -0.12 l0.04 -0.04 c0 -0.04 0.04 -0.04 0.04 -0.04 c0.04 0 0.04 0 0.04 0.08 s0 0.12 -0.04 0.12 z M46.839999999999996 30.84 l0.08 -0.12 l-0.04 0 l-0.08 0.04 z M46.12 31.16 c0.04 0 0.12 0 0.2 -0.04 l0.04 -0.08 l-0.04 -0.04 l-0.08 0 c-0.04 0 -0.04 0 -0.04 0.04 c0 0 -0.04 0.08 -0.08 0.08 l-0.04 0.04 l0.04 0 z M46.44 31.119999999999997 l0.08 -0.04 c0 -0.04 0 -0.08 -0.04 -0.08 s-0.08 0.04 -0.08 0.08 z M47.32 31.16 c0.04 0 0.08 0 0.08 -0.04 s-0.04 -0.08 -0.08 -0.08 l-0.04 0 l0 0.04 c0 0.04 0 0.08 0.04 0.08 z M40.44 31.36 l0 -0.08 c0 -0.08 0.04 -0.12 0.04 -0.12 c0.04 0 0.04 0.04 0.04 0.12 c0 0.04 -0.04 0.08 -0.08 0.08 z M43.16 31.36 l0 -0.16 c-0.04 0 -0.04 0.04 -0.04 0.08 z M47.12 31.439999999999998 l0.12 -0.16 c0 -0.04 0 -0.04 -0.04 -0.04 c-0.08 0 -0.12 0.04 -0.12 0.12 z M43.919999999999995 31.52 l0.08 -0.08 c0 -0.08 0 -0.08 -0.04 -0.08 c-0.04 0.04 -0.08 0.08 -0.08 0.12 s0 0.04 0.04 0.04 z M43.16 31.6 l0.08 -0.08 l-0.08 0 l-0.08 0.04 c0 0.04 0.04 0.04 0.08 0.04 z M51.48 31.72 l0.12 -0.16 c0 -0.04 -0.04 -0.04 -0.04 -0.04 s0 0.04 -0.04 0.04 z M49.04 31.68 l0.08 -0.04 c0 -0.04 0 -0.08 -0.04 -0.08 l-0.08 0.08 c0 0.04 0 0.04 0.04 0.04 z M47.199999999999996 31.72 c0 0 -0.04 0 -0.04 -0.04 l0.08 -0.08 l0.04 0 l0 0.08 c0 0.04 -0.04 0.04 -0.08 0.04 z M51.64 31.8 c0.04 0 0.04 -0.04 0.04 -0.04 l0 -0.08 l-0.08 0.08 s0 0.04 0.04 0.04 z M46.72 32.04 l0.08 -0.08 s0 -0.04 -0.04 -0.04 l-0.08 0.04 z M47.199999999999996 32.08 l0 -0.04 c0 -0.04 0.04 -0.08 0.08 -0.08 l0 0.04 c-0.04 0.04 -0.04 0.08 -0.08 0.08 z M45.959999999999994 32.24 c0.04 0 0.04 0 0.04 -0.04 l0 -0.04 l-0.08 0.04 c0 0.04 0 0.04 0.04 0.04 z M46.559999999999995 32.519999999999996 c-0.04 0 -0.08 0 -0.08 -0.04 c0 0 0.04 -0.04 0.12 -0.04 c0.04 0 0.08 0 0.08 0.04 s-0.08 0.04 -0.12 0.04 z M45.839999999999996 32.84 c0.04 0 0.08 -0.04 0.08 -0.12 c0 -0.04 -0.04 -0.04 -0.08 -0.04 l-0.04 0.08 z M45.76 33.6 c0.04 0 0.08 -0.04 0.12 -0.08 l0.08 -0.12 l-0.04 -0.04 l-0.08 0.04 l-0.12 0.16 c0 0.04 0 0.04 0.04 0.04 z M50.64 33.6 l0.08 -0.04 c0 -0.04 0 -0.04 -0.04 -0.04 l-0.08 0.04 z M51.36 33.84 c0.04 0 0.08 -0.04 0.08 -0.08 l-0.12 -0.04 c-0.04 0 -0.08 0.04 -0.08 0.08 z M45.519999999999996 34.480000000000004 l-0.04 -0.08 s0 -0.04 0.04 -0.04 c0.08 0 0.08 0.04 0.08 0.04 z M51.16 35.28 l0.12 -0.16 l-0.04 -0.04 l-0.08 0.12 l0 0.08 z M50.64 35.480000000000004 c0.04 0 0.04 -0.04 0.04 -0.16 l0 -0.08 l-0.04 0 l0 0.04 c-0.04 0.04 -0.04 0.08 -0.04 0.12 z M51.16 35.480000000000004 l0.04 -0.08 l-0.04 -0.04 s-0.04 0 -0.04 0.04 c0 0.08 0.04 0.08 0.04 0.08 z M50.839999999999996 35.88 c0.04 0 0.08 -0.04 0.08 -0.08 s0 -0.04 -0.04 -0.04 l-0.04 0 c-0.04 0 -0.04 0.04 -0.04 0.08 s0 0.04 0.04 0.04 z M50.599999999999994 36.08 c0.04 0 0.08 -0.04 0.08 -0.08 s-0.04 -0.04 -0.08 -0.04 l-0.04 0.04 z M50.559999999999995 38.56 c0.04 0 0.04 -0.04 0.04 -0.16 l0 -0.08 l-0.04 0.04 c-0.04 0.04 -0.04 0.12 -0.04 0.16 z M50.959999999999994 38.48 l-0.04 -0.08 c0 -0.04 -0.04 -0.04 -0.08 -0.04 l-0.04 0.04 l0.04 0.04 z M47.64 39.2 l-0.04 -0.04 l0 -0.04 c0 -0.04 0.04 -0.04 0.08 -0.04 c0 0 0.04 0 0.04 0.04 s-0.04 0.08 -0.08 0.08 z M49.959999999999994 39.28 c0.04 0 0.08 -0.04 0.08 -0.08 l0 -0.08 l-0.04 0.04 l-0.08 0.04 l-0.16 -0.08 l0.04 0.08 z M50.48 39.4 l0 -0.04 l-0.04 -0.08 s0 -0.04 -0.04 -0.04 l0 0.04 c0 0.04 0 0.08 0.04 0.08 c0 0.04 0.04 0.04 0.04 0.04 z M50.64 39.44 c0.04 -0.04 0.08 -0.04 0.08 -0.08 l-0.08 0 l-0.08 0.04 c0 0.04 0.04 0.04 0.08 0.04 z M50.31999999999999 39.8 c0.04 0 0.08 -0.04 0.12 -0.08 l0.08 -0.08 l-0.08 0.04 c-0.08 0.04 -0.12 0.08 -0.12 0.12 z M47.64 39.84 l-0.04 -0.08 c0 -0.08 0.04 -0.08 0.04 -0.08 l0.04 0.08 z M50.64 39.88 l0.08 -0.08 c0 -0.04 0 -0.04 -0.04 -0.04 l-0.08 0.04 z M50.519999999999996 39.96 l0.04 -0.12 l-0.04 0 l-0.08 0.08 c0 0.04 0.04 0.04 0.08 0.04 z M50.08 40.48 l0.04 -0.04 l0.16 -0.04 l0.16 0 l-0.04 -0.04 l-0.08 -0.04 c-0.12 0 -0.28 0.04 -0.28 0.12 z M49.519999999999996 40.48 c0.04 0 0.08 0 0.08 -0.04 l-0.08 0 l-0.08 0.04 l0.08 0 z M50 40.76 l-0.04 -0.04 c0 -0.04 -0.04 -0.04 -0.08 -0.04 l-0.04 0 z M50.28 41.4 c-0.04 0 -0.04 -0.04 -0.04 -0.08 l0 -0.08 z M49.72 41.84 l0.16 -0.08 c0.04 -0.04 0.04 -0.12 0.04 -0.16 l0.04 -0.16 l-0.04 -0.08 l-0.16 -0.08 c-0.04 0 -0.04 0.04 -0.04 0.08 c0 0.08 0.04 0.08 0.08 0.08 s0.04 0 0.04 0.04 s-0.04 0.16 -0.12 0.28 l-0.04 0.08 l0.04 0 z M48.8 41.64 c0.08 0 0.12 -0.04 0.12 -0.08 l0.04 -0.08 l-0.04 -0.04 c-0.04 0 -0.08 0.04 -0.12 0.12 l-0.04 0.04 z M49.04 41.68 c0.04 0 0.04 -0.04 0.08 -0.08 c0 -0.04 0 -0.08 -0.04 -0.08 s-0.04 0.04 -0.04 0.08 l0 0.08 z M48.76 41.92 l0.12 -0.08 l0 -0.04 l-0.08 0.04 z M49.519999999999996 42.48 c0.04 0 0.08 -0.04 0.08 -0.08 l0.04 -0.08 l-0.08 0.04 l-0.08 0.08 z M50 42.6 c-0.04 0 -0.04 -0.04 -0.04 -0.08 l0.08 -0.04 l0 0.04 c0 0.04 0 0.08 -0.04 0.08 z M49.68 42.64 l0.04 -0.04 l0.04 -0.08 l-0.08 0.04 l0 0.08 z M48.839999999999996 42.76 c0.04 0 0.08 -0.04 0.12 -0.08 l0.04 -0.08 l-0.04 0.04 c-0.04 0 -0.12 0.04 -0.12 0.08 l0 0.04 z M48.959999999999994 43 l0.16 -0.12 l0.04 -0.12 c-0.04 0 -0.12 0.04 -0.16 0.12 z M49.519999999999996 43.04 c0.04 0 0.08 -0.04 0.12 -0.08 l0.08 -0.08 l-0.08 0 c-0.04 0 -0.12 0.04 -0.12 0.08 l0 0.08 z M49.12 43.68 l0 -0.12 c0 -0.04 0 -0.08 -0.04 -0.08 c-0.04 0.04 -0.04 0.08 -0.04 0.12 z M49.31999999999999 43.68 c0.04 0 0.04 0 0.04 -0.04 c0 0 0 -0.04 -0.04 -0.04 l-0.04 -0.04 l0 0.04 l-0.04 0 c0 0.04 0.04 0.08 0.08 0.08 z M48.48 43.84 c0.04 0 0.08 -0.04 0.12 -0.08 l0.04 -0.08 c-0.04 0 -0.08 0.04 -0.12 0.08 z M48.36 43.84 l-0.04 -0.04 c-0.04 -0.04 -0.08 -0.08 -0.12 -0.08 l0.04 0.08 z M49.08 44.12 c0.04 0 0.08 -0.04 0.08 -0.08 l0.04 -0.12 l-0.08 0.04 l-0.08 0.12 c0 0.04 0 0.04 0.04 0.04 z M39.72 44.4 c-0.04 0 -0.08 -0.08 -0.08 -0.16 s0.04 -0.16 0.08 -0.16 s0.04 0.08 0.04 0.16 s0 0.16 -0.04 0.16 z M48.32 44.12 l0 -0.04 l-0.04 0 l-0.08 0.04 l0.12 0 z M48 44.24 c0.04 0 0.04 -0.04 0.08 -0.08 l0 -0.08 c-0.04 0.04 -0.08 0.08 -0.08 0.12 l0 0.04 z M48.559999999999995 44.36 l0.12 -0.12 l0.08 -0.04 l0 0.04 l0.08 -0.08 l-0.04 -0.04 l-0.08 0 c-0.12 0 -0.2 0.08 -0.2 0.16 z M48.599999999999994 44.8 l0.08 -0.04 l0 -0.04 l-0.08 0 s-0.04 0 -0.04 -0.04 l0 -0.04 l-0.04 0 c0 0.04 0.04 0.16 0.08 0.16 z M48.44 44.88 c0 -0.04 -0.04 -0.08 -0.08 -0.12 l-0.04 -0.08 l0.04 0.12 c0.04 0.04 0.04 0.08 0.08 0.08 z M40.16 44.8 l-0.04 -0.08 l-0.08 0.04 l0.08 0.04 l0.04 0 z M48.16 44.96 c0.04 0 0.08 -0.04 0.08 -0.12 c0 -0.04 -0.04 -0.08 -0.08 -0.12 l0 0.04 c0 0.08 0 0.12 -0.08 0.12 l-0.08 0 l0.04 0.04 z M48.76 44.92 l0.04 -0.08 c0 -0.04 0 -0.08 -0.04 -0.08 l-0.04 0.08 c0 0.04 0 0.08 0.04 0.08 z M47.72 45.56 l0.12 -0.12 l0.04 -0.08 l-0.04 0.08 l-0.12 0.08 l0 0.04 z M48.72 45.68 l-0.04 -0.08 c0 -0.04 0.04 -0.04 0.08 -0.04 l0.04 0 z M48.04 45.76 c0.04 0 0.08 0 0.12 -0.04 c0 -0.04 0 -0.04 -0.04 -0.04 s-0.08 0 -0.08 0.04 l0 0.04 z M48.04 46.64 c-0.04 0 -0.04 0 -0.04 -0.04 c0 -0.08 0.2 -0.24 0.28 -0.24 l-0.08 0.12 z M47.599999999999994 46.519999999999996 l0.08 -0.08 c0.08 -0.04 0.08 -0.08 0.08 -0.08 l-0.04 0 c-0.04 0 -0.12 0.04 -0.12 0.12 l0 0.04 z M46.08 46.68 l0.08 -0.04 c0 -0.04 0 -0.08 -0.04 -0.08 l-0.08 0.08 s0 0.04 0.04 0.04 z M47.68 46.88 l-0.04 0 l0 -0.04 l0.12 -0.04 l0.08 0 l-0.04 0.04 z"></path></g></svg>
